<svg id="svg" xmlns="http://www.w3.org/2000/svg" xmlns:xlink="http://www.w3.org/1999/xlink" width="30" height="30" viewBox="0, 0, 400,400">
  <g id="svgg"><path id="path0" d="M65.625 7.277 C 7.101 39.565,0.000 60.419,0.000 200.000 C 0.000 329.205,1.965 338.623,35.380 369.549 C 66.779 398.609,74.292 400.000,199.899 400.000 C 339.948 400.000,362.726 392.122,392.986 333.223 C 402.534 314.640,402.534 85.360,392.986 66.777 C 382.618 46.595,355.462 18.855,336.248 8.817 C 314.936 -2.317,85.381 -3.623,65.625 7.277 M322.637 47.294 C 363.763 77.999,365.625 84.612,365.625 200.000 C 365.625 357.446,357.446 365.625,200.000 365.625 C 51.045 365.625,36.767 354.204,32.394 231.561 C 25.910 49.697,43.198 30.774,213.648 33.157 C 295.337 34.300,307.313 35.853,322.637 47.294 M200.332 127.725 C 191.943 137.834,198.314 154.412,216.295 169.264 C 225.758 177.080,220.086 178.494,168.199 181.250 C 110.453 184.318,109.375 184.661,109.375 200.000 C 109.375 215.418,110.144 215.649,167.542 217.427 L 225.709 219.228 209.471 238.526 C 191.989 259.302,191.706 267.252,208.083 277.583 C 219.841 285.000,293.750 218.390,293.750 200.377 C 293.750 189.366,225.643 118.750,215.023 118.750 C 211.040 118.750,204.429 122.789,200.332 127.725 " stroke="none" fill="#f5f5f5" fill-rule="evenodd"></path></g>
</svg>
