<?xml version="1.0" encoding="UTF-8"?><svg xmlns="http://www.w3.org/2000/svg" xmlns:xlink="http://www.w3.org/1999/xlink" height="501.9" preserveAspectRatio="xMidYMid meet" version="1.0" viewBox="64.0 -1.9 370.6 501.9" width="370.6" zoomAndPan="magnify"><g><g id="change1_1"><path d="M 434.566406 381.5625 C 434.566406 381.5625 431.140625 296.402344 407.648438 238.652344 C 387.675781 189.554688 371.246094 179.722656 366.769531 177.878906 L 366.863281 176.984375 L 317.957031 160.265625 L 281.378906 137.605469 C 249.519531 152.667969 217.691406 154.789062 185.894531 143.828125 L 157.148438 164.75 L 123.492188 177.992188 C 119.824219 179.433594 116.792969 181.859375 114.585938 184.855469 L 114.488281 184.328125 C 81.214844 228.691406 63.957031 283.023438 65.53125 338.457031 L 67.507812 407.988281 C 67.507812 407.988281 93.617188 461.984375 116.265625 465.101562 L 110.410156 498.695312 L 169.671875 498.285156 L 169.660156 498.722656 L 272.027344 498.722656 L 389.703125 500 L 372.761719 429.726562 C 420.230469 419.847656 434.566406 381.5625 434.566406 381.5625 Z M 194.507812 128.804688 C 191.402344 120.226562 189.398438 106.066406 189.828125 97.199219 C 189.828125 97.199219 210.859375 84.378906 220.226562 86.113281 C 240.828125 89.921875 254.828125 94.757812 258.632812 95.554688 C 262.789062 88.417969 271.265625 79.007812 276.644531 75.539062 C 277.265625 75.140625 278.089844 75.316406 278.488281 75.9375 C 278.890625 76.558594 278.710938 77.382812 278.089844 77.78125 C 273.472656 80.765625 264.230469 95.6875 259.484375 103.878906 C 260.496094 107.121094 264.34375 109.398438 262.710938 117.4375 C 269.050781 109.601562 270.1875 107.054688 270.230469 106.945312 C 270.496094 106.261719 271.269531 105.921875 271.960938 106.191406 C 272.644531 106.460938 272.984375 107.238281 272.714844 107.921875 C 272.496094 108.480469 267.988281 119.730469 258.636719 129.042969 C 256.429688 133.761719 252.632812 138.289062 246.332031 141.828125 C 230.023438 150.980469 202.777344 151.640625 194.507812 128.804688" fill="#e8e3f4"/></g><g id="change2_1"><path d="M 406.652344 367.582031 C 392.367188 352.777344 372.726562 348.140625 364.515625 346.796875 C 368.882812 343.210938 386.632812 329.628906 401.84375 332.625 C 402.570312 332.765625 403.269531 332.296875 403.414062 331.570312 C 403.554688 330.847656 403.085938 330.144531 402.359375 330.003906 C 383.648438 326.332031 362.621094 344.863281 361.734375 345.652344 C 361.519531 345.847656 361.378906 346.09375 361.320312 346.355469 C 361 346.320312 360.789062 346.300781 360.707031 346.292969 L 352.027344 346.023438 C 352.167969 345.785156 352.234375 345.503906 352.203125 345.210938 C 352.144531 344.605469 346.046875 284.421875 348.289062 263.59375 C 348.367188 262.859375 347.839844 262.199219 347.105469 262.121094 C 346.378906 262.039062 345.714844 262.570312 345.636719 263.304688 C 343.359375 284.410156 349.296875 342.996094 349.550781 345.480469 C 349.566406 345.648438 349.613281 345.808594 349.6875 345.953125 L 287.296875 344.011719 C 286.53125 343.980469 285.941406 344.566406 285.917969 345.304688 C 285.894531 346.039062 286.476562 346.65625 287.210938 346.679688 L 360.554688 348.960938 C 360.816406 348.980469 387.355469 351.433594 404.730469 369.4375 C 404.992188 369.707031 405.34375 369.847656 405.691406 369.847656 C 406.023438 369.847656 406.359375 369.722656 406.617188 369.472656 C 407.148438 368.960938 407.164062 368.113281 406.652344 367.582031 Z M 309.558594 258.757812 C 309.558594 258.390625 309.261719 258.09375 308.890625 258.09375 L 296.285156 258.09375 C 295.914062 258.09375 295.617188 258.390625 295.617188 258.757812 C 295.617188 259.128906 295.914062 259.425781 296.285156 259.425781 L 308.890625 259.425781 C 309.261719 259.425781 309.558594 259.128906 309.558594 258.757812 Z M 278.488281 75.9375 C 278.089844 75.316406 277.347656 75.3125 276.644531 75.539062 C 270.863281 77.421875 261.6875 94.789062 257.535156 101.925781 C 253.730469 101.128906 241.949219 98.71875 221.34375 94.90625 C 211.980469 93.175781 189.828125 97.199219 189.828125 97.199219 C 189.398438 106.066406 191.402344 120.226562 194.507812 128.804688 C 202.777344 151.640625 230.023438 150.980469 246.332031 141.828125 C 252.632812 138.289062 256.429688 133.761719 258.636719 129.042969 C 267.988281 119.730469 272.496094 108.480469 272.714844 107.921875 C 272.984375 107.238281 272.644531 106.460938 271.960938 106.191406 C 271.269531 105.921875 270.496094 106.261719 270.230469 106.945312 C 270.1875 107.054688 269.695312 110.03125 263.355469 117.867188 C 264.988281 109.828125 262.542969 107.164062 261.53125 103.921875 C 266.273438 95.730469 273.472656 80.765625 278.089844 77.78125 C 278.710938 77.382812 278.890625 76.558594 278.488281 75.9375 Z M 222.933594 294.796875 C 222.628906 295.292969 221.984375 295.457031 221.480469 295.171875 L 220.628906 294.691406 L 210.242188 312.039062 L 217.777344 313.15625 L 238.058594 280.3125 C 238.6875 279.292969 238.398438 277.953125 237.398438 277.285156 L 234.804688 275.558594 C 234.082031 275.078125 233.1875 275.085938 232.484375 275.480469 L 233.300781 276.019531 C 233.785156 276.34375 233.925781 276.996094 233.617188 277.492188 M 317.882812 160.242188 L 283.828125 148.601562 L 281.808594 160.449219 L 269.957031 230.042969 C 266.488281 250.421875 264.953125 271.078125 265.378906 291.742188 L 269.621094 498.042969 L 205.03125 498.042969 L 209.359375 340.945312 L 191.472656 338.511719 C 190.742188 338.410156 190.230469 337.738281 190.332031 337.007812 C 190.429688 336.277344 191.105469 335.773438 191.835938 335.863281 L 209.433594 338.261719 L 209.765625 326.265625 L 194.527344 323.65625 C 193.800781 323.535156 193.3125 322.84375 193.4375 322.117188 C 193.5625 321.390625 194.246094 320.902344 194.980469 321.027344 L 209.839844 323.570312 L 210.578125 296.628906 C 211.230469 273.078125 208.964844 249.535156 203.839844 226.535156 L 192.945312 177.664062 L 187.414062 152.839844 L 173.148438 158.453125 C 171.886719 158.601562 170.542969 159.019531 169.101562 159.746094 C 168.40625 160.09375 167.734375 160.46875 167.0625 160.847656 L 158.265625 164.308594 C 155.519531 164.773438 152.707031 164.730469 149.925781 164.191406 C 141.199219 162.496094 133.355469 156.1875 130.710938 147.566406 C 127.882812 138.347656 130.941406 127.867188 137.53125 121 C 141.988281 116.355469 150.730469 114.855469 152.214844 107.867188 C 153.511719 101.75 146.871094 94.90625 145.746094 88.953125 C 143.683594 78.027344 153.476562 73.496094 159.566406 66.515625 C 164.921875 60.375 164.09375 52.074219 164.960938 44.515625 C 165.53125 39.519531 166.828125 34.738281 168.980469 30.1875 C 178.183594 10.738281 199.828125 0.78125 220.03125 6.023438 C 233.492188 0 248.710938 -1.945312 262.738281 2.210938 C 274.007812 5.550781 284.449219 12.515625 290.859375 22.484375 C 294.519531 28.167969 295.859375 34.421875 297.71875 40.820312 C 300.15625 49.222656 305.6875 52.085938 311.019531 58.179688 C 319.105469 67.425781 313.023438 76.664062 312.109375 87.105469 C 311.140625 98.144531 324.320312 105.273438 321.742188 116.480469 C 320.039062 123.878906 307.65625 130.054688 316.269531 137.75 C 319.582031 140.707031 322.261719 141.882812 322.914062 146.792969 C 323.617188 152.074219 321.273438 156.484375 317.882812 160.242188 Z M 371.957031 428.195312 C 341.613281 431.113281 312.484375 425.550781 307.285156 424.480469 L 301.605469 399.859375 C 301.4375 399.140625 300.710938 398.691406 300.003906 398.859375 C 299.285156 399.023438 298.835938 399.742188 299.003906 400.460938 L 304.875 425.910156 C 304.992188 426.410156 305.382812 426.800781 305.882812 426.910156 C 306.148438 426.972656 327.589844 431.699219 353.773438 431.699219 C 359.738281 431.699219 365.953125 431.457031 372.214844 430.855469 C 372.945312 430.78125 373.484375 430.132812 373.414062 429.394531 C 373.34375 428.664062 372.707031 428.109375 371.957031 428.195312 Z M 299.03125 262.292969 C 298.660156 262.292969 298.363281 262.59375 298.363281 262.960938 C 298.363281 263.328125 298.660156 263.628906 299.03125 263.628906 L 306.144531 263.628906 C 306.515625 263.628906 306.8125 263.328125 306.8125 262.960938 C 306.8125 262.59375 306.515625 262.292969 306.144531 262.292969 Z M 299.691406 225.375 L 299.691406 232.339844 L 305.484375 232.339844 L 305.484375 225.375 Z M 117.347656 366.382812 C 117.726562 365.882812 117.707031 365.1875 117.300781 364.707031 C 107.644531 353.386719 83.929688 348.792969 82.925781 348.601562 C 82.195312 348.46875 81.503906 348.941406 81.367188 349.664062 C 81.230469 350.390625 81.703125 351.089844 82.429688 351.226562 C 82.632812 351.265625 99.820312 354.59375 110.476562 362.160156 C 105.230469 360.785156 97.550781 359.765625 90.542969 362.609375 C 84.578125 365.027344 80.195312 369.816406 77.515625 376.84375 C 77.25 377.53125 77.597656 378.304688 78.285156 378.566406 C 78.441406 378.628906 78.601562 378.65625 78.761719 378.65625 C 79.300781 378.65625 79.804688 378.328125 80.007812 377.796875 C 82.414062 371.496094 86.292969 367.21875 91.535156 365.085938 C 102.347656 360.699219 115.589844 366.722656 115.722656 366.785156 C 116.292969 367.046875 116.96875 366.882812 117.347656 366.382812 Z M 202.632812 376.0625 L 149.121094 394.820312 C 148.425781 395.066406 148.0625 395.828125 148.304688 396.523438 C 148.496094 397.070312 149.011719 397.414062 149.5625 397.414062 C 149.710938 397.414062 149.859375 397.394531 150.007812 397.339844 L 203.515625 378.578125 C 204.210938 378.335938 204.578125 377.574219 204.335938 376.878906 C 204.089844 376.183594 203.328125 375.8125 202.632812 376.0625 Z M 128.316406 414.191406 C 127.59375 414.035156 126.886719 414.488281 126.726562 415.207031 L 116.523438 461.492188 C 116.445312 461.476562 116.367188 461.46875 116.285156 461.46875 C 115.320312 461.46875 114.460938 461.0625 113.65625 460.222656 C 112.15625 458.660156 111.058594 455.871094 110.261719 452.515625 C 110.515625 452.761719 110.78125 452.976562 111.0625 453.132812 C 118.796875 457.375 126.21875 411.121094 126.21875 411.121094 L 105.84375 408.984375 C 105.84375 408.984375 105.148438 420.007812 105.613281 431.085938 C 105.609375 439.332031 106.285156 456.394531 111.726562 462.066406 C 112.957031 463.351562 114.375 464.042969 115.941406 464.132812 L 113.347656 475.894531 C 113.191406 476.613281 113.644531 477.324219 114.363281 477.484375 C 114.460938 477.507812 114.558594 477.515625 114.652344 477.515625 C 115.265625 477.515625 115.820312 477.09375 115.957031 476.46875 L 129.335938 415.78125 C 129.492188 415.0625 129.035156 414.351562 128.316406 414.191406 Z M 349.464844 237.699219 C 349.5 237.703125 349.539062 237.703125 349.574219 237.703125 C 350.261719 237.703125 350.847656 237.175781 350.902344 236.476562 C 353.769531 201.09375 368.132812 180.574219 368.277344 180.371094 C 368.703125 179.769531 368.566406 178.9375 367.964844 178.507812 C 367.363281 178.082031 366.53125 178.21875 366.105469 178.820312 C 365.496094 179.671875 351.175781 200.09375 348.242188 236.261719 C 348.183594 236.996094 348.730469 237.640625 349.464844 237.699219 Z M 114.03125 187.96875 C 113.339844 188.222656 112.980469 188.988281 113.234375 189.679688 C 113.34375 189.972656 124.019531 219.394531 129.808594 261.347656 C 129.898438 262.019531 130.472656 262.5 131.128906 262.5 C 131.1875 262.5 131.25 262.496094 131.3125 262.488281 C 132.042969 262.386719 132.554688 261.714844 132.453125 260.984375 C 126.628906 218.75 115.851562 189.058594 115.742188 188.761719 C 115.488281 188.070312 114.722656 187.714844 114.03125 187.96875 Z M 173.707031 398.429688 L 152.664062 406.75 C 151.976562 407.019531 151.640625 407.796875 151.910156 408.480469 C 152.121094 409.007812 152.621094 409.324219 153.152344 409.324219 C 153.316406 409.324219 153.484375 409.292969 153.644531 409.230469 L 174.6875 400.910156 C 175.375 400.640625 175.710938 399.863281 175.441406 399.179688 C 175.167969 398.492188 174.394531 398.15625 173.707031 398.429688 Z M 137.34375 290.820312 C 137.394531 291.171875 142.585938 325.769531 144.039062 340.316406 C 144.113281 341.050781 143.578125 341.707031 142.847656 341.777344 C 142.800781 341.78125 142.757812 341.785156 142.710938 341.785156 C 142.03125 341.785156 141.453125 341.269531 141.382812 340.582031 C 139.9375 326.101562 134.757812 291.566406 134.703125 291.21875 C 134.59375 290.488281 135.097656 289.808594 135.824219 289.699219 C 136.546875 289.601562 137.234375 290.09375 137.34375 290.820312" fill="#15253d"/></g><g id="change3_1"><path d="M 309.558594 258.757812 C 309.558594 258.390625 309.261719 258.09375 308.890625 258.09375 L 296.285156 258.09375 C 295.914062 258.09375 295.617188 258.390625 295.617188 258.757812 C 295.617188 259.128906 295.914062 259.425781 296.285156 259.425781 L 308.890625 259.425781 C 309.261719 259.425781 309.558594 259.128906 309.558594 258.757812 Z M 306.8125 262.960938 C 306.8125 262.59375 306.515625 262.292969 306.144531 262.292969 L 299.03125 262.292969 C 298.660156 262.292969 298.363281 262.59375 298.363281 262.960938 C 298.363281 263.328125 298.660156 263.628906 299.03125 263.628906 L 306.144531 263.628906 C 306.515625 263.628906 306.8125 263.328125 306.8125 262.960938 Z M 296.105469 250.472656 L 309.074219 250.472656 L 309.074219 237.503906 L 296.105469 237.503906 Z M 321.449219 228.859375 L 321.449219 287.21875 L 284.546875 287.21875 L 268.296875 339.21875 C 268.121094 339.789062 267.59375 340.152344 267.023438 340.152344 C 266.890625 340.152344 266.757812 340.136719 266.625 340.09375 C 266.527344 340.0625 266.453125 340.003906 266.371094 339.953125 C 265.84375 339.648438 265.558594 339.027344 265.75 338.421875 L 266.300781 336.652344 L 283.726562 280.894531 L 283.726562 228.859375 L 299.691406 228.859375 L 299.691406 232.339844 L 305.484375 232.339844 L 305.484375 228.859375 Z M 162.816406 213.808594 L 176.035156 218.542969 L 202.242188 311.101562 C 203.035156 311.03125 203.851562 311.058594 204.675781 311.214844 L 205.066406 311.269531 L 179.125 219.652344 L 201.972656 227.835938 C 202.664062 228.085938 203.429688 227.722656 203.679688 227.03125 C 203.925781 226.335938 203.566406 225.570312 202.871094 225.324219 L 164.9375 211.730469 L 182.320312 157.820312 C 182.546875 157.117188 182.160156 156.363281 181.460938 156.140625 C 180.757812 155.910156 180.007812 156.300781 179.78125 157 L 161.996094 212.140625 C 161.777344 212.828125 162.140625 213.5625 162.816406 213.808594 Z M 314.59375 397.035156 L 295.800781 384.9375 L 244.214844 351.730469 C 242.695312 350.75 240.957031 350.164062 239.15625 350.027344 L 189.851562 346.195312 L 142.980469 342.554688 L 86.921875 338.199219 C 84.566406 338.015625 83.507812 341.089844 85.480469 342.394531 L 110.191406 358.761719 C 110.683594 359.070312 111.164062 359.386719 111.632812 359.714844 L 127.792969 370.414062 L 129.046875 369.910156 L 145.4375 381.152344 L 144.832031 381.699219 L 146.644531 382.898438 C 146.9375 382.808594 147.246094 382.710938 147.5625 382.609375 L 155.425781 388.003906 L 166.796875 388.625 L 202.632812 376.0625 C 203.328125 375.8125 204.089844 376.183594 204.335938 376.878906 C 204.578125 377.574219 204.210938 378.335938 203.515625 378.578125 L 173.78125 389.003906 L 194.121094 390.113281 L 207.96875 391.40625 L 267.542969 396.980469 L 298.992188 399.921875 C 299.085938 399.410156 299.46875 398.980469 300.003906 398.859375 C 300.710938 398.691406 301.4375 399.140625 301.605469 399.859375 L 301.675781 400.171875 L 313.140625 401.242188 C 315.53125 401.464844 316.613281 398.332031 314.59375 397.035156 Z M 220.40625 294.566406 L 220.628906 294.691406 L 221.480469 295.171875 C 221.984375 295.457031 222.628906 295.292969 222.933594 294.796875 L 233.617188 277.492188 C 233.925781 276.996094 233.785156 276.34375 233.300781 276.019531 L 232.484375 275.480469 L 232.039062 275.183594 C 231.527344 274.839844 230.828125 274.996094 230.511719 275.527344 L 220.011719 293.066406 C 219.699219 293.589844 219.878906 294.265625 220.40625 294.566406 Z M 196.222656 164.589844 C 197.925781 164.140625 199.902344 157.570312 201.851562 148.417969 C 194.613281 150.117188 189.90625 151.992188 187.476562 153.121094 L 190.488281 166.644531 C 192.1875 165.839844 194.089844 165.144531 196.222656 164.589844 Z M 301.921875 222.671875 L 301.074219 225.375 L 301.921875 225.375 Z M 282.320312 157.4375 L 283.828125 148.601562 C 278.011719 147.65625 272.511719 146.921875 267.265625 146.339844 C 271.253906 151.628906 276.867188 155.132812 282.320312 157.4375 Z M 295.484375 155.320312 C 295.199219 154.640625 295.515625 153.855469 296.195312 153.570312 C 296.875 153.28125 297.65625 153.601562 297.945312 154.28125 L 319.316406 204.851562 C 319.582031 205.476562 319.332031 206.203125 318.742188 206.535156 L 307.375 212.9375 C 307.519531 213.234375 307.558594 213.585938 307.453125 213.925781 L 303.875 225.375 L 303.257812 225.375 L 303.257812 220.929688 C 303.257812 220.589844 302.996094 220.320312 302.667969 220.277344 L 304.449219 214.585938 L 273.550781 231.984375 C 272.90625 232.347656 272.097656 232.121094 271.734375 231.476562 C 271.371094 230.835938 271.597656 230.019531 272.242188 229.660156 L 316.394531 204.792969 L 295.484375 155.320312" fill="#454582"/></g><g id="change4_1"><path d="M 302.667969 220.277344 C 302.640625 220.277344 302.617188 220.261719 302.589844 220.261719 C 302.21875 220.261719 301.921875 220.5625 301.921875 220.929688 L 301.921875 225.375 L 303.257812 225.375 L 303.257812 220.929688 C 303.257812 220.589844 302.996094 220.320312 302.667969 220.277344 Z M 204.28125 376.789062 C 204.296875 376.820312 204.320312 376.84375 204.335938 376.878906 C 204.578125 377.574219 204.210938 378.335938 203.515625 378.578125 L 150.007812 397.339844 C 149.859375 397.394531 149.710938 397.414062 149.5625 397.414062 C 149.011719 397.414062 148.496094 397.070312 148.304688 396.523438 C 148.0625 395.828125 148.425781 395.066406 149.121094 394.820312 L 202.632812 376.0625 C 202.925781 375.957031 203.222656 375.980469 203.492188 376.074219 L 201.097656 373.324219 C 199.902344 371.949219 198.152344 371.207031 196.328125 371.285156 C 182.636719 371.863281 157.285156 379.511719 146.644531 382.898438 C 145.230469 383.351562 144.078125 383.726562 143.242188 383.996094 C 142.277344 384.3125 141.734375 384.496094 141.734375 384.496094 L 143.375 383.015625 L 144.832031 381.699219 L 159.574219 368.386719 C 161.851562 366.335938 162.175781 362.882812 160.328125 360.4375 C 159.269531 359.039062 157.40625 358.523438 155.78125 359.175781 L 127.792969 370.414062 L 117.101562 374.710938 C 117.101562 374.710938 105.832031 383.511719 105.847656 408.984375 C 105.847656 412.742188 106.09375 416.859375 106.660156 421.367188 C 107.21875 425.835938 118.496094 419.792969 125.4375 415.613281 C 125.996094 415.277344 126.523438 414.953125 127.019531 414.644531 C 127.207031 414.425781 127.453125 414.269531 127.734375 414.203125 C 129.597656 413.035156 130.804688 412.230469 130.804688 412.230469 L 139.078125 415.328125 L 146.183594 417.984375 C 150.644531 419.652344 155.660156 418.613281 159.09375 415.3125 L 173.617188 401.335938 L 153.644531 409.230469 C 153.484375 409.292969 153.316406 409.324219 153.152344 409.324219 C 152.621094 409.324219 152.121094 409.007812 151.910156 408.480469 C 151.640625 407.796875 151.976562 407.019531 152.664062 406.75 L 173.707031 398.429688 C 174.394531 398.15625 175.167969 398.492188 175.441406 399.179688 C 175.5 399.328125 175.519531 399.480469 175.519531 399.632812 L 192.296875 389.941406 L 205.050781 382.578125 C 206.847656 381.539062 207.042969 379.015625 205.425781 377.710938 Z M 286.109375 352.523438 C 286.109375 352.523438 274.992188 350.132812 266.527344 347.65625 C 262.105469 346.363281 258.40625 345.046875 257.398438 344.039062 C 255.925781 342.566406 249.6875 332.417969 245.125 324.859375 C 241.914062 319.539062 236.503906 315.933594 230.359375 315.023438 L 217.777344 313.15625 L 210.242188 312.039062 L 210.15625 312.027344 L 205.066406 311.269531 L 204.675781 311.214844 C 203.851562 311.058594 203.035156 311.03125 202.242188 311.101562 C 198.125 311.453125 194.625 314.617188 194.074219 318.929688 L 193.746094 321.496094 C 194.039062 321.148438 194.492188 320.941406 194.980469 321.027344 L 231.195312 327.226562 C 231.921875 327.351562 232.410156 328.039062 232.285156 328.769531 C 232.175781 329.417969 231.609375 329.878906 230.972656 329.878906 C 230.898438 329.878906 230.820312 329.871094 230.746094 329.855469 L 194.527344 323.65625 C 193.902344 323.550781 193.480469 323.019531 193.445312 322.414062 L 193.375 322.398438 C 189.160156 321.660156 185.1875 324.609375 184.671875 328.855469 L 184.660156 328.957031 C 184.203125 332.738281 186.671875 336.210938 190.335938 337.089844 C 190.339844 337.0625 190.328125 337.035156 190.332031 337.007812 C 190.429688 336.277344 191.105469 335.773438 191.835938 335.863281 L 230.171875 341.085938 C 230.902344 341.1875 231.414062 341.859375 231.3125 342.589844 C 231.222656 343.257812 230.652344 343.742188 229.992188 343.742188 C 229.933594 343.742188 229.871094 343.738281 229.8125 343.730469 L 191.472656 338.511719 C 191.03125 338.449219 190.691406 338.171875 190.496094 337.804688 L 189.5 341.269531 C 189.015625 342.953125 189.179688 344.683594 189.851562 346.195312 L 239.15625 350.027344 C 240.957031 350.164062 242.695312 350.75 244.214844 351.730469 L 295.800781 384.9375 C 293.523438 375.808594 291.300781 367.140625 289.527344 360.304688 Z M 200.742188 212.644531 L 190.488281 166.644531 C 192.1875 165.839844 194.089844 165.144531 196.222656 164.589844 C 197.925781 164.140625 199.902344 157.570312 201.851562 148.417969 C 202.328125 146.1875 202.800781 143.808594 203.269531 141.328125 C 215.164062 150.828125 233.914062 148.796875 246.332031 141.828125 C 252.632812 138.289062 256.429688 133.761719 258.636719 129.042969 C 259.546875 128.136719 260.398438 127.210938 261.214844 126.277344 C 261.5 130.601562 262.011719 134.457031 262.839844 137.402344 C 263.804688 140.84375 265.347656 143.796875 267.265625 146.339844 C 271.253906 151.628906 276.867188 155.132812 282.320312 157.4375 L 273.429688 209.660156 C 264.023438 216.898438 251.378906 222.011719 234.394531 222.011719 C 221.390625 222.011719 209.839844 218.257812 200.742188 212.644531" fill="#a73c28"/></g><g id="change5_1"><path d="M 286.246094 95.871094 C 283.609375 100.78125 279.367188 104.027344 275.199219 104.839844 C 275.113281 104.855469 275.027344 104.878906 274.9375 104.894531 C 273.71875 105.101562 272.511719 105.101562 271.355469 104.863281 C 271.125 105.378906 270.890625 105.890625 270.652344 106.402344 C 270.625 106.453125 270.582031 106.492188 270.558594 106.550781 C 270.554688 106.5625 270.503906 106.699219 270.40625 106.933594 C 268.820312 110.304688 267.101562 113.597656 265.25 116.761719 C 264.101562 118.585938 262.769531 120.519531 261.238281 122.460938 C 262.769531 114.402344 260.542969 107.148438 259.492188 103.921875 C 260.679688 101.808594 262.445312 98.945312 264.0625 96.261719 C 268.761719 88.453125 274.644531 79.550781 278.054688 77.289062 C 278.492188 77 278.691406 76.492188 278.625 76.003906 C 280.339844 75.882812 282.007812 76.183594 283.511719 76.988281 C 284.460938 77.496094 285.269531 78.179688 285.960938 78.980469 C 289.285156 82.835938 289.5625 89.6875 286.246094 95.871094 Z M 253.859375 83.808594 C 253.597656 84.097656 253.242188 84.25 252.878906 84.253906 C 252.558594 84.257812 252.234375 84.144531 251.972656 83.914062 C 245.425781 78.070312 239.039062 80.804688 238.769531 80.921875 C 238.09375 81.21875 237.308594 80.921875 237.007812 80.25 C 236.703125 79.578125 237 78.792969 237.667969 78.488281 C 238 78.339844 245.867188 74.882812 253.753906 81.925781 C 254.300781 82.414062 254.351562 83.257812 253.859375 83.808594 Z M 246.867188 92.238281 C 246.691406 93.84375 245.253906 95.003906 243.652344 94.828125 C 242.046875 94.65625 240.890625 93.21875 241.0625 91.617188 C 241.234375 90.011719 242.671875 88.855469 244.273438 89.027344 C 245.878906 89.199219 247.039062 90.636719 246.867188 92.238281 Z M 219.027344 77.789062 C 218.765625 78.097656 218.394531 78.257812 218.019531 78.265625 C 217.710938 78.269531 217.398438 78.164062 217.144531 77.949219 C 210.371094 72.253906 203.925781 75.3125 203.863281 75.34375 C 203.199219 75.671875 202.402344 75.398438 202.074219 74.734375 C 201.75 74.074219 202.023438 73.273438 202.6875 72.949219 C 203.015625 72.789062 210.777344 69.105469 218.863281 75.90625 C 219.429688 76.382812 219.5 77.222656 219.027344 77.789062 Z M 214.191406 88.726562 C 214.019531 90.328125 212.578125 91.488281 210.976562 91.316406 C 209.371094 91.144531 208.214844 89.703125 208.386719 88.101562 C 208.558594 86.496094 209.996094 85.339844 211.601562 85.511719 C 213.203125 85.683594 214.363281 87.121094 214.191406 88.726562 Z M 269.558594 74.476562 C 259.082031 71.671875 244.707031 69.425781 241.925781 52.394531 C 239.9375 40.222656 229.207031 38.683594 223.855469 38.6875 C 213.9375 52.105469 200.460938 58.636719 190.589844 61.773438 C 189.488281 72.296875 188.527344 85.007812 189.902344 97.628906 C 193.917969 96.882812 213.195312 93.699219 221.527344 95.132812 C 221.628906 95.148438 221.625 95.144531 221.699219 95.160156 C 222.257812 93.605469 222.902344 91.886719 223.667969 89.953125 C 223.9375 89.269531 224.714844 88.933594 225.398438 89.203125 C 226.085938 89.476562 226.421875 90.25 226.152344 90.9375 C 225.550781 92.457031 224.953125 94.050781 224.394531 95.628906 C 224.335938 95.617188 253.988281 101.492188 257.632812 102.203125 C 259.175781 99.472656 261.65625 94.972656 264.222656 90.882812 C 267.445312 85.742188 271.058594 80.464844 274.066406 77.296875 C 274.109375 77.25 274.15625 77.199219 274.199219 77.152344 C 272.980469 75.910156 271.453125 74.984375 269.558594 74.476562" fill="#e24e34"/></g></g></svg>