<?xml version="1.0" encoding="UTF-8"?><svg xmlns="http://www.w3.org/2000/svg" xmlns:xlink="http://www.w3.org/1999/xlink" height="493.9" preserveAspectRatio="xMidYMid meet" version="1.0" viewBox="0.0 0.0 500.0 493.9" width="500.0" zoomAndPan="magnify"><defs><clipPath id="a"><path d="M 76 0 L 365 0 L 365 493.929688 L 76 493.929688 Z M 76 0"/></clipPath><clipPath id="b"><path d="M 0 20 L 500 20 L 500 493.929688 L 0 493.929688 Z M 0 20"/></clipPath></defs><g><g id="change1_1"><path d="M 357.644531 198.265625 C 357.644531 215.007812 344.070312 228.578125 327.324219 228.578125 C 324.046875 228.578125 320.742188 228.035156 317.570312 227.046875 C 314.453125 242.605469 308.601562 257 299.050781 268.890625 L 299.769531 281.183594 L 233.675781 400.015625 L 180.433594 301.609375 L 181 292.980469 C 145.945312 269.824219 146.894531 208.691406 146.894531 154.226562 C 146.894531 74.902344 176.199219 58.226562 176.199219 58.226562 C 206.515625 36.503906 266.136719 44.585938 286.851562 70.859375 C 296.273438 82.808594 313.324219 124.347656 318.753906 168.933594 C 321.339844 168.269531 324.1875 167.945312 327.324219 167.945312 C 344.070312 167.945312 357.644531 181.519531 357.644531 198.265625" fill="#dd6539"/></g><g id="change2_1"><path d="M 322.40625 328.832031 C 322.085938 328.640625 321.667969 328.746094 321.476562 329.070312 L 299.730469 292.722656 L 253.222656 350.371094 L 234.167969 393.226562 L 218.242188 356.9375 L 200.609375 337.355469 L 178.59375 306.222656 L 169.59375 322.640625 L 172.03125 351.371094 C 171.757812 351.527344 171.65625 351.875 171.8125 352.152344 L 189.703125 387.75 L 233.011719 415.964844 L 313.269531 376.398438 L 322.675781 329.710938 C 322.828125 329.394531 322.714844 329.011719 322.40625 328.832031 Z M 152.84375 253.625 C 152.84375 235.425781 168.347656 219.890625 195.757812 213.707031 C 201.199219 204.273438 209.402344 198.265625 218.582031 198.265625 C 227.265625 198.265625 235.074219 203.640625 240.503906 212.207031 C 252.714844 214.054688 264.273438 217.703125 273.863281 222.632812 C 275.261719 220.726562 276.679688 218.84375 278.082031 216.945312 L 283.5625 209.820312 C 287.21875 205.074219 290.964844 200.398438 294.722656 195.734375 C 298.5 191.085938 302.28125 186.441406 306.160156 181.871094 L 311.976562 175.015625 C 313.957031 172.765625 315.898438 170.484375 317.917969 168.261719 C 318.316406 167.824219 318.996094 167.789062 319.433594 168.191406 C 319.839844 168.558594 319.898438 169.167969 319.589844 169.601562 C 317.859375 172.058594 316.058594 174.449219 314.292969 176.871094 L 308.871094 184.042969 C 305.257812 188.824219 301.546875 193.527344 297.835938 198.230469 C 294.101562 202.914062 290.355469 207.589844 286.523438 212.191406 L 280.761719 219.09375 C 279.335938 220.738281 277.917969 222.394531 276.484375 224.039062 C 288.542969 230.800781 296.996094 239.675781 298.855469 249.527344 C 300.738281 246.890625 302.683594 244.296875 304.660156 241.730469 C 308.417969 236.914062 312.277344 232.171875 316.511719 227.730469 C 317.035156 227.179688 317.90625 227.160156 318.457031 227.683594 C 318.945312 228.148438 319.015625 228.886719 318.664062 229.429688 C 315.324219 234.578125 311.609375 239.429688 307.792969 244.203125 C 305.023438 247.621094 302.203125 250.996094 299.238281 254.261719 C 298.539062 277.902344 259.171875 313.664062 219.101562 313.664062 C 178.671875 313.664062 152.84375 277.253906 152.84375 253.625" fill="#89cf9e"/></g><g id="change3_1"><path d="M 205.460938 216.433594 C 206.050781 216.132812 206.527344 216.015625 206.828125 215.71875 C 209.234375 213.332031 211.664062 210.964844 213.933594 208.449219 C 214.308594 208.035156 214.175781 206.777344 213.820312 206.183594 C 213.320312 205.335938 212.285156 205.363281 211.578125 206.0625 C 209.121094 208.472656 206.683594 210.902344 204.347656 213.421875 C 203.984375 213.8125 203.988281 214.773438 204.175781 215.359375 C 204.316406 215.804688 205.011719 216.078125 205.460938 216.433594 Z M 213.3125 304.574219 C 212.71875 304.421875 211.773438 304.652344 211.324219 305.074219 C 209.078125 307.191406 206.941406 309.421875 204.777344 311.621094 C 204.652344 311.746094 204.542969 311.871094 204.441406 312.003906 C 205.777344 312.308594 207.132812 312.574219 208.507812 312.800781 C 210.25 311.039062 211.996094 309.285156 213.71875 307.507812 C 214.046875 307.167969 214.230469 306.691406 214.601562 306.074219 C 214.152344 305.515625 213.820312 304.707031 213.3125 304.574219 Z M 242.90625 212.601562 C 242.109375 212.464844 241.308594 212.328125 240.503906 212.207031 C 240.226562 211.769531 239.9375 211.347656 239.652344 210.929688 C 239.53125 211.234375 239.492188 211.601562 239.507812 212.015625 C 239.636719 215.183594 239.734375 218.355469 239.863281 221.523438 C 239.910156 222.648438 240.34375 223.507812 241.636719 223.523438 C 242.75 223.539062 243.402344 222.675781 243.34375 221.320312 C 243.28125 219.863281 243.199219 218.40625 243.125 216.949219 C 243.144531 216.945312 243.164062 216.945312 243.179688 216.945312 C 243.089844 215.496094 243 214.050781 242.90625 212.601562 Z M 240.992188 308.785156 C 239.796875 308.859375 239.484375 309.671875 239.507812 310.71875 C 240.574219 310.417969 241.632812 310.101562 242.6875 309.761719 C 242.429688 309.105469 241.894531 308.726562 240.992188 308.785156 Z M 207.007812 271.09375 C 207.066406 272.226562 207.632812 272.960938 208.78125 272.90625 C 209.8125 272.855469 210.4375 272.1875 210.394531 271.089844 C 210.273438 267.8125 210.15625 264.535156 209.976562 261.261719 C 209.917969 260.140625 209.359375 259.257812 208.082031 259.386719 C 206.828125 259.511719 206.476562 260.425781 206.542969 261.574219 C 206.632812 263.085938 206.703125 264.597656 206.785156 266.105469 C 206.765625 266.109375 206.746094 266.109375 206.730469 266.109375 C 206.824219 267.769531 206.921875 269.433594 207.007812 271.09375 Z M 245.339844 276.941406 C 244.757812 276.078125 243.785156 275.691406 243.023438 276.417969 C 242.542969 276.878906 242.171875 278.121094 242.457031 278.601562 C 244.222656 281.589844 246.136719 284.496094 248.140625 287.332031 C 248.445312 287.761719 249.515625 287.902344 250.144531 287.769531 C 250.605469 287.675781 250.933594 286.921875 251.28125 286.503906 C 251.035156 285.875 250.945312 285.46875 250.738281 285.144531 C 248.953125 282.402344 247.164062 279.660156 245.339844 276.941406 Z M 192.699219 263.632812 C 191.464844 266.289062 190.144531 268.910156 188.875 271.554688 C 188.660156 272.003906 188.515625 272.488281 188.21875 273.265625 C 188.632812 273.71875 189.007812 274.449219 189.589844 274.703125 C 190.59375 275.136719 191.324219 274.484375 191.761719 273.578125 C 193.132812 270.757812 194.488281 267.933594 195.839844 265.101562 C 196.328125 264.074219 196.339844 263.03125 195.222656 262.484375 C 194.066406 261.917969 193.242188 262.457031 192.699219 263.632812 Z M 236.566406 263.972656 C 236.996094 264.507812 237.328125 265.308594 237.78125 265.382812 C 238.457031 265.492188 239.425781 265.316406 239.902344 264.871094 C 242.144531 262.769531 244.269531 260.542969 246.429688 258.351562 C 247.503906 257.261719 247.652344 256.222656 246.769531 255.480469 C 245.753906 254.632812 244.835938 255 243.988281 255.863281 C 241.839844 258.0625 239.65625 260.226562 237.515625 262.433594 C 237.15625 262.808594 236.949219 263.335938 236.566406 263.972656 Z M 179.761719 277.296875 C 179.109375 276.300781 178.300781 275.644531 177.140625 276.402344 C 175.984375 277.15625 176.242188 278.1875 176.886719 279.175781 C 178.589844 281.789062 180.277344 284.417969 182.035156 287.003906 C 182.363281 287.484375 182.976562 287.773438 183.59375 288.257812 C 184.210938 287.800781 184.957031 287.53125 185.058594 287.109375 C 185.214844 286.460938 185.132812 285.578125 184.789062 285.019531 C 183.179688 282.40625 181.441406 279.867188 179.761719 277.296875 Z M 198.628906 302.070312 C 196.777344 301.59375 194.925781 301.121094 193.070312 300.648438 C 191.605469 300.277344 190.144531 299.90625 188.28125 299.433594 C 187.914062 299.84375 187.195312 300.3125 187.003906 300.945312 C 186.664062 302.035156 187.339844 302.761719 188.421875 303.039062 C 191.539062 303.84375 194.664062 304.644531 197.789062 305.429688 C 198.804688 305.683594 199.6875 305.367188 199.988281 304.355469 C 200.316406 303.242188 199.839844 302.378906 198.628906 302.070312 Z M 227.78125 200.363281 C 227.539062 200.25 227.296875 200.152344 227.054688 200.046875 C 227.226562 200.167969 227.425781 200.269531 227.65625 200.332031 C 227.695312 200.34375 227.738281 200.351562 227.78125 200.363281 Z M 165.171875 273.003906 C 162.933594 273.621094 160.714844 274.320312 158.511719 275.054688 C 159.019531 276.082031 159.558594 277.109375 160.132812 278.128906 C 162.273438 277.414062 164.355469 276.710938 166.40625 275.941406 C 166.8125 275.789062 167.207031 274.515625 166.988281 274.066406 C 166.71875 273.519531 165.675781 272.863281 165.171875 273.003906 Z M 297.132812 252.628906 C 294.246094 251.929688 291.375 251.175781 288.496094 250.445312 C 288.105469 250.347656 287.714844 250.261719 286.902344 250.066406 C 286.546875 250.523438 285.898438 251.03125 285.71875 251.671875 C 285.460938 252.589844 285.96875 253.335938 286.957031 253.59375 C 290.074219 254.402344 293.195312 255.207031 296.320312 255.996094 C 297.402344 256.273438 298.441406 256.148438 298.746094 254.898438 C 299.046875 253.660156 298.367188 252.933594 297.132812 252.628906 Z M 285.953125 278.128906 C 286.003906 278.664062 286.8125 279.128906 287.089844 279.421875 C 287.421875 279.398438 287.582031 279.394531 287.6875 279.390625 C 288.976562 277.820312 290.171875 276.242188 291.269531 274.660156 C 289.773438 275.144531 288.285156 275.644531 286.8125 276.183594 C 286.324219 276.363281 285.890625 277.488281 285.953125 278.128906 Z M 237.992188 298.132812 C 235.242188 297.472656 232.503906 296.75 229.761719 296.054688 C 229.226562 295.917969 228.683594 295.792969 227.726562 295.5625 C 227.363281 296.003906 226.6875 296.492188 226.511719 297.125 C 226.238281 298.128906 226.820312 298.867188 227.867188 299.136719 C 230.949219 299.933594 234.027344 300.742188 237.121094 301.5 C 238.199219 301.765625 239.246094 301.605469 239.519531 300.328125 C 239.769531 299.171875 239.199219 298.425781 237.992188 298.132812 Z M 232.96875 275.117188 C 233.015625 273.28125 231.933594 272.574219 230.316406 273.082031 C 227.324219 274.015625 224.359375 275.023438 221.375 275.972656 C 220.246094 276.328125 219.792969 277.070312 220.09375 278.164062 C 220.40625 279.308594 221.300781 279.621094 222.367188 279.285156 C 225.5 278.304688 228.636719 277.316406 231.734375 276.230469 C 232.296875 276.035156 232.699219 275.371094 232.96875 275.117188 Z M 181.113281 257.710938 C 181.4375 257.363281 181.414062 256.449219 181.214844 255.925781 C 181.035156 255.46875 180.386719 255.191406 179.835938 254.75 C 179.207031 255.171875 178.664062 255.429688 178.257812 255.828125 C 176.132812 257.90625 174.039062 260.019531 171.949219 262.128906 C 171.667969 262.414062 171.230469 262.753906 171.234375 263.066406 C 171.246094 263.796875 171.257812 264.742188 171.691406 265.183594 C 172.035156 265.53125 173.292969 265.558594 173.660156 265.210938 C 176.226562 262.800781 178.703125 260.28125 181.113281 257.710938 Z M 278.527344 227.957031 C 277.863281 226.929688 277.019531 226.351562 275.894531 227.035156 C 274.722656 227.746094 274.960938 228.792969 275.613281 229.789062 C 277.351562 232.449219 279.066406 235.121094 280.84375 237.75 C 281.148438 238.199219 281.730469 238.460938 282.308594 238.90625 C 282.90625 238.472656 283.652344 238.207031 283.769531 237.777344 C 283.941406 237.136719 283.886719 236.242188 283.550781 235.6875 C 281.941406 233.070312 280.1875 230.542969 278.527344 227.957031 Z M 212.34375 227.5625 C 211.992188 227.078125 210.761719 226.832031 210.152344 227.058594 C 209.714844 227.222656 209.214844 228.601562 209.460938 229.011719 C 211.324219 232.121094 213.328125 235.148438 215.398438 238.121094 C 215.652344 238.484375 216.632812 238.601562 217.152344 238.441406 C 217.660156 238.285156 218.015625 237.625 218.386719 237.234375 C 218.1875 236.648438 218.136719 236.28125 217.949219 236 C 216.113281 233.164062 214.316406 230.300781 212.34375 227.5625 Z M 265.859375 286.304688 C 265.09375 285.691406 264.238281 285.703125 263.539062 286.421875 C 262.773438 287.214844 262.832031 288.175781 263.605469 288.839844 C 266.0625 290.941406 268.558594 293.003906 271.105469 294.992188 C 272.03125 294.308594 272.933594 293.609375 273.824219 292.90625 C 273.753906 292.808594 273.675781 292.714844 273.582031 292.636719 C 271.035156 290.492188 268.453125 288.390625 265.859375 286.304688 Z M 221.121094 253.523438 C 224.296875 254.484375 227.535156 255.238281 230.761719 256.039062 C 231.769531 256.289062 232.648438 255.996094 232.90625 254.933594 C 233.183594 253.804688 232.699219 252.976562 231.488281 252.671875 C 228.855469 252.011719 226.222656 251.332031 223.589844 250.664062 C 222.90625 250.492188 222.21875 250.335938 221.121094 250.074219 C 220.757812 250.511719 219.90625 251.078125 219.921875 251.621094 C 219.933594 252.289062 220.546875 253.351562 221.121094 253.523438 Z M 206.621094 250.863281 C 206.941406 249.894531 206.335938 249.097656 205.304688 248.828125 C 202.085938 247.992188 198.863281 247.164062 195.632812 246.371094 C 194.597656 246.117188 193.664062 246.566406 193.617188 247.613281 C 193.589844 248.28125 194.144531 249.429688 194.675781 249.589844 C 198 250.605469 201.390625 251.402344 205.179688 252.378906 C 205.59375 251.96875 206.40625 251.515625 206.621094 250.863281 Z M 265.730469 224.707031 C 265.46875 224.148438 264.421875 223.457031 263.933594 223.59375 C 260.542969 224.542969 257.1875 225.632812 253.886719 226.851562 C 253.40625 227.03125 252.976562 228.164062 253.050781 228.796875 C 253.113281 229.335938 253.9375 229.78125 254.402344 230.25 C 258.1875 228.980469 261.6875 227.867188 265.121094 226.578125 C 265.535156 226.421875 265.945312 225.160156 265.730469 224.707031 Z M 222.191406 225.246094 C 223.078125 225.789062 224.144531 225.285156 224.722656 224.09375 C 226.050781 221.378906 227.359375 218.652344 228.664062 215.925781 C 228.839844 215.566406 228.953125 215.183594 229.226562 214.472656 C 228.792969 214.007812 228.324219 213.078125 227.78125 213.03125 C 227.125 212.976562 226.074219 213.492188 225.765625 214.070312 C 224.265625 216.859375 222.960938 219.757812 221.585938 222.617188 C 221.078125 223.660156 221.144531 224.605469 222.191406 225.246094 Z M 252.804688 300.800781 C 252.460938 302 253.121094 302.738281 254.242188 303.039062 C 255.167969 303.289062 256.097656 303.527344 257.023438 303.761719 C 258.53125 302.984375 260.015625 302.175781 261.472656 301.328125 C 259.339844 300.78125 257.210938 300.238281 255.082031 299.683594 C 253.980469 299.398438 253.125 299.6875 252.804688 300.800781 Z M 227.765625 311.761719 C 227.101562 311.714844 226.0625 312.238281 225.753906 312.820312 C 225.660156 312.992188 225.578125 313.171875 225.488281 313.347656 C 226.667969 313.238281 227.84375 313.101562 229.015625 312.933594 C 228.632812 312.453125 228.222656 311.792969 227.765625 311.761719 Z M 177.523438 221.441406 C 177.507812 220.964844 177.476562 220.488281 177.449219 220.015625 C 176.296875 220.582031 175.183594 221.179688 174.105469 221.789062 C 174.191406 222.800781 174.644531 223.574219 175.824219 223.515625 C 177.074219 223.453125 177.5625 222.609375 177.523438 221.441406 Z M 238.324219 245.800781 C 239.222656 246.527344 240.214844 246.671875 240.996094 245.714844 C 241.796875 244.738281 241.371094 243.820312 240.492188 243.097656 C 238.046875 241.078125 235.59375 239.066406 233.125 237.074219 C 232.785156 236.800781 232.351562 236.652344 231.738281 236.324219 C 231.234375 236.765625 230.402344 237.144531 230.332031 237.632812 C 230.234375 238.304688 230.503906 239.300781 230.988281 239.734375 C 233.363281 241.835938 235.859375 243.800781 238.324219 245.800781 Z M 165.992188 252.855469 C 162.71875 251.859375 159.386719 251.054688 156.054688 250.253906 C 155.027344 250.007812 154.230469 250.511719 154.023438 251.574219 C 153.824219 252.613281 154.34375 253.335938 155.367188 253.613281 C 157.214844 254.113281 159.074219 254.582031 160.929688 255.058594 C 162.394531 255.429688 163.863281 255.789062 165.734375 256.253906 C 166.125 255.871094 167.035156 255.378906 167.0625 254.839844 C 167.097656 254.171875 166.535156 253.019531 165.992188 252.855469 Z M 260.796875 249.761719 C 263.871094 250.550781 266.957031 251.3125 270.03125 252.109375 C 271.167969 252.402344 272.125 252.210938 272.4375 250.992188 C 272.769531 249.714844 272 249.03125 270.808594 248.734375 C 267.777344 247.972656 264.75 247.203125 261.722656 246.4375 C 261.480469 246.375 261.234375 246.328125 260.59375 246.183594 C 260.230469 246.636719 259.539062 247.144531 259.371094 247.796875 C 259.105469 248.816406 259.785156 249.503906 260.796875 249.761719 Z M 259.945312 262.28125 C 259.738281 262.421875 259.105469 262.613281 258.898438 263.019531 C 257.3125 266.167969 255.738281 269.328125 254.351562 272.5625 C 254.140625 273.054688 254.726562 274.257812 255.269531 274.582031 C 255.699219 274.835938 257.027344 274.449219 257.273438 273.988281 C 258.910156 270.921875 260.40625 267.78125 261.847656 264.617188 C 262.367188 263.476562 261.480469 262.296875 259.945312 262.28125 Z M 164.734375 237.144531 C 163.796875 238.246094 164.433594 239.210938 165.378906 239.984375 C 167.714844 241.902344 170.054688 243.820312 172.417969 245.707031 C 172.828125 246.035156 173.355469 246.21875 174.015625 246.566406 C 174.527344 246.121094 175.351562 245.734375 175.363281 245.320312 C 175.386719 244.578125 175.136719 243.574219 174.617188 243.113281 C 172.363281 241.101562 169.957031 239.265625 167.632812 237.332031 C 166.679688 236.539062 165.675781 236.039062 164.734375 237.144531 Z M 207.554688 295.480469 C 208.003906 295.351562 208.292969 294.664062 208.730469 294.128906 C 208.308594 293.484375 208.082031 292.890625 207.65625 292.53125 C 205.226562 290.488281 202.753906 288.496094 200.292969 286.492188 C 199.402344 285.769531 198.433594 285.53125 197.644531 286.535156 C 196.894531 287.492188 197.21875 288.4375 198.101562 289.183594 C 199.335938 290.21875 200.589844 291.230469 201.839844 292.253906 C 203.089844 293.273438 204.289062 294.363281 205.621094 295.265625 C 206.109375 295.59375 206.96875 295.652344 207.554688 295.480469 Z M 273.878906 259.390625 C 272.71875 259.503906 272.308594 260.347656 272.363281 261.445312 C 272.4375 262.90625 272.511719 264.367188 272.585938 265.824219 C 272.578125 265.824219 272.570312 265.824219 272.566406 265.828125 C 272.660156 267.636719 272.726562 269.453125 272.859375 271.261719 C 272.9375 272.308594 273.550781 273.003906 274.628906 272.910156 C 275.65625 272.820312 276.292969 272.121094 276.25 271.058594 C 276.109375 267.734375 275.921875 264.414062 275.734375 261.097656 C 275.671875 259.949219 275.023438 259.277344 273.878906 259.390625 Z M 187.136719 228.707031 C 187.441406 229.921875 188.339844 230.265625 189.488281 229.898438 C 192.605469 228.902344 195.734375 227.925781 198.816406 226.832031 C 199.402344 226.625 199.8125 225.921875 200.074219 225.671875 C 200.011719 223.875 199.03125 223.226562 197.601562 223.667969 C 194.570312 224.609375 191.558594 225.601562 188.535156 226.566406 C 187.484375 226.902344 186.847656 227.570312 187.136719 228.707031 Z M 194 200.914062 C 197.519531 197.511719 198.058594 190.675781 194.523438 186.261719 C 187.839844 177.914062 171.980469 166.605469 156.40625 168.707031 C 151.808594 169.328125 150.730469 174.441406 153.253906 183.039062 C 160.527344 207.835938 182.289062 212.246094 194 200.914062 Z M 239.285156 193.519531 C 244.652344 178.402344 263.207031 164.3125 288.753906 170.5625 C 294.769531 172.035156 299.21875 176.058594 295.773438 183.726562 C 278.152344 222.910156 237.21875 199.332031 239.285156 193.519531" fill="#fefae5"/></g><g clip-path="url(#a)" id="change4_1"><path d="M 339.6875 170.582031 C 335.910156 168.894531 331.730469 167.945312 327.324219 167.945312 C 324.289062 167.945312 321.523438 168.253906 319.003906 168.875 C 314.628906 150.394531 302.234375 117.945312 267.664062 97.835938 C 208.851562 114.753906 170.746094 134.773438 146.917969 151.117188 C 146.90625 152.148438 146.894531 153.175781 146.894531 154.226562 C 146.894531 190.546875 146.480469 229.828125 156.59375 258.839844 C 159.738281 297.871094 165.609375 336.636719 176.257812 362.800781 C 206.089844 436.105469 203.375 493.019531 203.375 493.019531 L 76.933594 492.632812 C 76.933594 492.632812 90.695312 441.066406 87.910156 353.894531 C 86.136719 298.273438 98.441406 226.152344 117.007812 175.722656 C 113.480469 177.738281 108.789062 176.695312 106.542969 173.003906 C 92.027344 149.144531 81.039062 127.148438 77.765625 109.210938 C 76.777344 103.808594 78.871094 98.324219 83.304688 94.78125 C 98.769531 82.417969 135.429688 48.257812 156.273438 33.5 C 193.617188 7.058594 274.402344 -28.117188 354.839844 37.261719 C 357.109375 39.109375 360.921875 45.675781 354.335938 55.140625 C 357.136719 59.28125 359.988281 65.691406 362.425781 75.550781 C 368.828125 101.445312 358.839844 148.035156 339.6875 170.582031" fill="#f4dbb5"/></g><g clip-path="url(#b)" id="change5_1"><path d="M 136.890625 274.4375 C 137.265625 277.578125 137.550781 280.722656 138 283.855469 L 139.320312 293.253906 L 141.039062 302.601562 C 141.722656 305.703125 142.492188 308.789062 143.21875 311.878906 C 143.34375 312.417969 143.878906 312.765625 144.425781 312.652344 C 144.984375 312.535156 145.34375 311.992188 145.230469 311.4375 L 145.214844 311.359375 C 144.585938 308.289062 143.90625 305.238281 143.320312 302.164062 L 141.871094 292.871094 L 140.695312 283.523438 C 140.292969 280.410156 140.058594 277.273438 139.726562 274.148438 C 138.519531 261.632812 137.617188 249.078125 136.976562 236.503906 C 136.257812 223.933594 135.773438 211.347656 135.359375 198.757812 C 135.148438 192.460938 134.980469 186.164062 134.824219 179.867188 C 134.667969 173.980469 134.527344 168.085938 134.441406 162.199219 C 134.523438 162.140625 134.601562 162.074219 134.679688 162.015625 L 141.921875 156.472656 C 144.34375 154.632812 146.777344 152.800781 149.171875 150.898438 C 149.488281 150.644531 149.589844 150.183594 149.378906 149.816406 C 149.148438 149.410156 148.632812 149.269531 148.226562 149.496094 C 146.890625 150.253906 145.59375 151.066406 144.273438 151.851562 L 140.40625 154.339844 C 137.84375 156.027344 135.335938 157.800781 132.875 159.640625 C 130.414062 161.476562 128.003906 163.394531 125.6875 165.425781 C 124.53125 166.445312 123.398438 167.496094 122.273438 168.558594 C 121.179688 169.675781 120.097656 170.730469 119.074219 172.011719 C 118.761719 172.398438 118.769531 172.96875 119.113281 173.347656 C 119.496094 173.769531 120.148438 173.804688 120.570312 173.421875 L 120.613281 173.382812 C 121.671875 172.429688 122.84375 171.414062 124.003906 170.472656 C 125.15625 169.503906 126.324219 168.546875 127.519531 167.613281 C 128.933594 166.492188 130.367188 165.386719 131.792969 164.273438 C 129.90625 172.8125 127.976562 181.34375 126.175781 189.90625 L 123.453125 204.589844 C 122.566406 209.484375 121.574219 214.367188 120.882812 219.296875 C 119.390625 229.140625 117.777344 238.972656 116.714844 248.875 C 116.148438 253.824219 115.472656 258.757812 114.996094 263.714844 L 113.675781 278.597656 C 112.214844 298.460938 111.363281 318.390625 111.832031 338.316406 C 112.121094 348.277344 112.53125 358.238281 113.46875 368.164062 C 114.386719 378.097656 115.582031 387.980469 117.648438 397.808594 C 117.746094 398.257812 118.183594 398.546875 118.632812 398.460938 C 119.089844 398.375 119.390625 397.933594 119.304688 397.476562 L 119.296875 397.433594 C 117.453125 387.761719 116.4375 377.851562 115.722656 367.976562 C 114.933594 358.097656 114.613281 348.183594 114.449219 338.269531 C 114.222656 318.441406 115.058594 298.605469 116.644531 278.835938 L 117.960938 264.015625 C 118.425781 259.074219 119.089844 254.15625 119.644531 249.230469 C 120.667969 239.359375 122.3125 229.570312 123.699219 219.746094 C 124.34375 214.824219 125.285156 209.949219 126.128906 205.0625 L 128.707031 190.398438 C 129.964844 183.894531 131.289062 177.402344 132.613281 170.910156 C 132.59375 173.90625 132.578125 176.898438 132.566406 179.894531 C 132.578125 186.203125 132.652344 192.511719 132.742188 198.820312 C 132.921875 211.4375 133.414062 224.050781 134.003906 236.660156 C 134.636719 249.269531 135.574219 261.867188 136.890625 274.4375 Z M 310.46875 226.933594 C 312.640625 227.867188 314.941406 228.5625 317.332031 228.742188 C 317.746094 228.773438 318.15625 228.554688 318.351562 228.160156 C 318.605469 227.640625 318.390625 227.015625 317.875 226.757812 L 317.839844 226.742188 C 316.808594 226.234375 315.765625 225.828125 314.730469 225.402344 L 311.605469 224.175781 L 308.464844 222.957031 C 307.414062 222.558594 306.34375 222.144531 305.285156 221.789062 L 305.242188 221.777344 C 304.929688 221.671875 304.570312 221.753906 304.335938 222.015625 C 304.019531 222.367188 304.046875 222.90625 304.398438 223.226562 C 305.316406 224.054688 306.285156 224.710938 307.308594 225.320312 C 308.324219 225.933594 309.382812 226.464844 310.46875 226.933594 Z M 153.210938 411.457031 C 150.664062 400.203125 147.960938 388.992188 144.894531 377.878906 C 141.851562 366.753906 138.648438 355.6875 135.074219 344.71875 C 134.9375 344.289062 134.480469 344.042969 134.046875 344.164062 C 133.597656 344.292969 133.335938 344.757812 133.460938 345.207031 L 133.464844 345.214844 C 135.015625 350.742188 136.539062 356.292969 138.011719 361.851562 C 139.496094 367.40625 140.957031 372.96875 142.363281 378.542969 C 145.1875 389.6875 147.890625 400.863281 150.304688 412.09375 C 150.882812 414.90625 151.546875 417.703125 152.109375 420.519531 L 153.796875 428.964844 C 154.359375 431.777344 154.8125 434.609375 155.324219 437.433594 L 156.066406 441.671875 L 156.710938 445.921875 C 157.65625 451.582031 158.289062 457.273438 158.890625 462.960938 L 159.503906 471.511719 L 159.566406 480.054688 L 159.566406 480.113281 C 159.574219 480.644531 159.988281 481.09375 160.527344 481.128906 C 161.097656 481.167969 161.589844 480.738281 161.625 480.167969 C 162.410156 468.511719 161.097656 456.945312 159.535156 445.507812 C 157.890625 434.066406 155.722656 422.714844 153.210938 411.457031 Z M 152.257812 60.765625 L 152.28125 60.75 C 159.816406 56.105469 167.730469 51.96875 175.738281 48.140625 C 183.753906 44.308594 191.925781 40.796875 200.25 37.703125 C 216.882812 31.53125 234.09375 26.753906 251.667969 24.585938 C 269.191406 22.367188 287.160156 22.667969 304.269531 27.023438 C 321.378906 31.269531 337.386719 39.722656 350.632812 51.449219 C 351.054688 51.820312 351.703125 51.792969 352.082031 51.375 C 352.464844 50.953125 352.4375 50.300781 352.015625 49.917969 C 345.363281 43.859375 338.050781 38.484375 330.117188 34.160156 C 322.191406 29.839844 313.707031 26.550781 304.976562 24.257812 C 300.605469 23.128906 296.171875 22.257812 291.707031 21.601562 C 287.238281 20.984375 282.742188 20.589844 278.238281 20.390625 C 273.738281 20.179688 269.230469 20.242188 264.734375 20.441406 C 260.234375 20.644531 255.75 21.035156 251.292969 21.632812 C 242.371094 22.78125 233.554688 24.601562 224.882812 26.902344 C 216.207031 29.203125 207.675781 32.019531 199.320312 35.257812 C 182.609375 41.757812 166.488281 49.675781 151.359375 59.339844 C 150.972656 59.585938 150.855469 60.101562 151.09375 60.492188 C 151.339844 60.890625 151.859375 61.011719 152.257812 60.765625 Z M 130.683594 115.5625 C 136.421875 110.820312 142.242188 106.171875 148.230469 101.757812 C 154.21875 97.339844 160.34375 93.113281 166.59375 89.089844 C 172.859375 85.085938 179.253906 81.292969 185.78125 77.753906 C 192.320312 74.21875 199.046875 71.066406 205.855469 68.117188 C 212.6875 65.222656 219.683594 62.742188 226.789062 60.609375 C 233.90625 58.535156 241.15625 56.933594 248.488281 55.800781 L 248.511719 55.796875 C 249.0625 55.714844 249.449219 55.203125 249.375 54.644531 C 249.304688 54.082031 248.785156 53.683594 248.21875 53.757812 C 240.757812 54.730469 233.359375 56.183594 226.082031 58.128906 C 218.847656 60.203125 211.71875 62.632812 204.757812 65.484375 C 197.816406 68.382812 191.015625 71.609375 184.390625 75.152344 C 177.78125 78.726562 171.285156 82.503906 164.984375 86.585938 C 152.414062 94.800781 140.363281 103.785156 128.996094 113.5625 C 117.613281 123.324219 106.761719 133.675781 96.777344 144.902344 C 96.476562 145.246094 96.5 145.769531 96.835938 146.082031 C 97.175781 146.398438 97.710938 146.378906 98.027344 146.039062 L 98.042969 146.019531 C 103.09375 140.585938 108.457031 135.382812 113.914062 130.320312 C 119.371094 125.25 124.953125 120.316406 130.683594 115.5625 Z M 337.535156 92.429688 C 334.1875 91.210938 330.820312 90.160156 327.292969 89.46875 C 326.789062 89.367188 326.28125 89.652344 326.113281 90.148438 C 325.933594 90.691406 326.222656 91.273438 326.761719 91.457031 L 326.796875 91.46875 C 328.40625 92.011719 330.0625 92.574219 331.671875 93.195312 C 333.296875 93.78125 334.90625 94.410156 336.492188 95.085938 C 339.675781 96.417969 342.808594 97.847656 345.816406 99.484375 C 348.828125 101.109375 351.722656 102.9375 354.363281 105.054688 C 355.683594 106.109375 356.9375 107.246094 358.058594 108.496094 C 359.207031 109.722656 360.214844 111.070312 361.101562 112.496094 L 361.117188 112.519531 C 361.335938 112.871094 361.785156 113.019531 362.175781 112.847656 C 362.601562 112.65625 362.796875 112.15625 362.605469 111.730469 C 361.121094 108.375 358.753906 105.480469 356.066406 103.066406 C 353.394531 100.609375 350.371094 98.621094 347.253906 96.867188 C 344.128906 95.125 340.871094 93.660156 337.535156 92.429688 Z M 351.023438 57.960938 L 350.996094 57.980469 C 347.78125 60.304688 344.417969 62.527344 341.027344 64.652344 C 337.628906 66.773438 334.203125 68.863281 330.703125 70.8125 C 323.714844 74.738281 316.632812 78.507812 309.347656 81.851562 C 302.078125 85.222656 294.734375 88.453125 287.21875 91.242188 C 280.878906 93.738281 274.414062 95.894531 267.933594 98.003906 C 267.839844 97.949219 267.75 97.890625 267.65625 97.835938 C 255.117188 101.441406 243.53125 105.191406 232.8125 109.015625 C 248.066406 114.988281 272.003906 122.09375 293.148438 118.535156 C 287.035156 111.714844 279.582031 105.238281 270.550781 99.601562 L 270.890625 99.507812 C 272.835938 98.949219 274.800781 98.457031 276.71875 97.8125 C 280.558594 96.542969 284.433594 95.355469 288.21875 93.914062 C 290.117188 93.222656 292.023438 92.535156 293.902344 91.785156 L 299.523438 89.480469 C 301.40625 88.738281 303.246094 87.894531 305.097656 87.070312 C 306.832031 86.277344 308.597656 85.546875 310.304688 84.699219 C 310.355469 84.835938 310.433594 84.96875 310.546875 85.078125 L 310.570312 85.101562 C 312.796875 87.253906 315.007812 89.507812 317.125 91.808594 C 319.269531 94.09375 321.351562 96.4375 323.367188 98.835938 C 327.433594 103.597656 331.242188 108.574219 334.734375 113.753906 C 336.484375 116.339844 338.140625 118.984375 339.703125 121.683594 C 341.25 124.390625 342.660156 127.171875 344.007812 129.976562 C 345.320312 132.800781 346.464844 135.695312 347.480469 138.632812 C 348.480469 141.582031 349.261719 144.59375 349.90625 147.640625 L 349.910156 147.660156 C 350 148.085938 350.402344 148.378906 350.839844 148.320312 C 351.304688 148.265625 351.632812 147.839844 351.570312 147.378906 C 351.171875 144.199219 350.484375 141.058594 349.640625 137.960938 C 348.730469 134.886719 347.636719 131.867188 346.398438 128.914062 C 343.890625 123.011719 340.695312 117.441406 337.207031 112.097656 C 333.644531 106.800781 329.738281 101.742188 325.523438 96.96875 C 321.359375 92.292969 316.996094 87.839844 312.1875 83.777344 L 316.070312 81.867188 L 321.457031 79.058594 C 323.257812 78.136719 325.007812 77.113281 326.78125 76.136719 C 328.5625 75.175781 330.289062 74.113281 332.023438 73.070312 C 338.960938 68.882812 345.71875 64.4375 352.050781 59.296875 C 352.394531 59.015625 352.464844 58.511719 352.203125 58.148438 C 351.929688 57.769531 351.402344 57.6875 351.023438 57.960938 Z M 300.28125 158.296875 C 301.828125 156.398438 299.78125 148.015625 294.839844 145.585938 C 294.839844 145.585938 260.210938 137.6875 252.253906 146.96875 C 244.296875 156.246094 255.316406 160.699219 260.40625 160.921875 C 267.292969 161.222656 298.734375 160.199219 300.28125 158.296875 Z M 154.203125 145.875 C 149.367188 148.507812 147.671875 156.972656 149.296875 158.804688 C 150.925781 160.640625 182.382812 160.339844 189.25 159.746094 C 194.324219 159.3125 205.148438 154.402344 196.808594 145.464844 C 188.46875 136.527344 154.203125 145.875 154.203125 145.875 Z M 210.960938 177.765625 L 210.953125 177.785156 C 210.507812 179.871094 210.148438 181.964844 209.808594 184.0625 C 209.453125 186.160156 209.167969 188.261719 208.886719 190.367188 C 208.609375 192.472656 208.363281 194.582031 208.164062 196.695312 C 207.976562 198.8125 207.789062 200.933594 207.722656 203.066406 L 207.722656 203.089844 C 207.707031 203.566406 208.027344 204.003906 208.511719 204.117188 C 209.0625 204.242188 209.613281 203.898438 209.738281 203.351562 C 210.21875 201.269531 210.578125 199.171875 210.9375 197.070312 C 211.285156 194.972656 211.585938 192.863281 211.855469 190.753906 C 212.117188 188.640625 212.378906 186.527344 212.570312 184.40625 C 212.777344 182.289062 212.964844 180.167969 213.066406 178.035156 C 213.089844 177.523438 212.742188 177.054688 212.222656 176.945312 C 211.648438 176.820312 211.082031 177.1875 210.960938 177.765625 Z M 322.546875 208.652344 C 323.105469 208.707031 323.605469 208.300781 323.664062 207.738281 L 323.667969 207.671875 C 323.765625 206.710938 323.804688 205.761719 323.867188 204.8125 L 324.164062 201.992188 C 324.355469 200.695312 324.550781 199.398438 324.828125 198.128906 C 325.253906 198.335938 325.652344 198.570312 326.027344 198.851562 C 326.78125 199.449219 327.445312 200.171875 328.03125 201.007812 C 328.621094 201.839844 329.097656 202.800781 329.542969 203.785156 C 329.972656 204.765625 330.363281 205.847656 330.691406 206.84375 L 330.71875 206.925781 C 330.863281 207.359375 331.273438 207.664062 331.753906 207.65625 C 332.34375 207.648438 332.8125 207.160156 332.800781 206.570312 C 332.777344 205.242188 332.539062 204.046875 332.164062 202.816406 C 331.785156 201.605469 331.257812 200.410156 330.5 199.3125 C 329.746094 198.214844 328.757812 197.222656 327.554688 196.5 C 326.90625 196.117188 326.195312 195.863281 325.472656 195.703125 C 325.929688 194.210938 326.484375 192.757812 327.199219 191.394531 C 327.640625 190.601562 328.085938 189.808594 328.621094 189.089844 C 329.113281 188.363281 329.769531 187.640625 330.304688 187.136719 L 330.425781 187.023438 C 330.777344 186.6875 330.863281 186.140625 330.601562 185.707031 C 330.296875 185.207031 329.648438 185.050781 329.148438 185.351562 C 328.097656 185.992188 327.394531 186.695312 326.65625 187.480469 C 325.9375 188.257812 325.332031 189.117188 324.773438 190.003906 C 323.671875 191.785156 322.90625 193.734375 322.347656 195.710938 C 321.761719 197.6875 321.519531 199.722656 321.367188 201.742188 C 321.324219 202.753906 321.339844 203.765625 321.347656 204.769531 C 321.441406 205.773438 321.507812 206.773438 321.636719 207.765625 C 321.695312 208.226562 322.0625 208.601562 322.546875 208.652344 Z M 174.992188 200.015625 C 183.226562 201.804688 191.246094 195.640625 192.902344 186.242188 C 193 185.699219 193.066406 185.15625 193.117188 184.613281 C 187.851562 178.785156 178.707031 172.105469 168.570312 169.539062 C 165.84375 172.023438 163.832031 175.566406 163.089844 179.761719 C 161.433594 189.15625 166.761719 198.226562 174.992188 200.015625 Z M 262.308594 201.074219 C 272.257812 203.019531 281.898438 196.527344 283.84375 186.578125 C 285.160156 179.824219 282.589844 173.222656 277.695312 169.0625 C 264.992188 168.761719 254.648438 173.640625 247.664062 180.570312 C 246.34375 190.144531 252.703125 199.199219 262.308594 201.074219 Z M 203.375 493.019531 L 500 493.929688 C 500 493.929688 483.578125 417.253906 442.113281 380.152344 C 406.398438 348.199219 358.59375 339.445312 322.710938 329.574219 C 322.699219 329.621094 322.695312 329.667969 322.675781 329.710938 C 320.578125 334.0625 318.097656 338.152344 315.535156 342.210938 C 312.910156 346.226562 310.101562 350.125 307.136719 353.90625 C 301.214844 361.476562 294.457031 368.410156 287.019531 374.558594 C 283.253906 377.574219 279.3125 380.390625 275.1875 382.910156 C 271.046875 385.40625 266.699219 387.570312 262.199219 389.347656 C 257.703125 391.144531 253.007812 392.410156 248.273438 393.34375 L 244.691406 393.886719 C 243.5 394.066406 242.285156 394.101562 241.089844 394.21875 C 238.796875 394.488281 236.484375 394.371094 234.1875 394.390625 C 234.09375 394.449219 233.992188 394.492188 233.875 394.496094 C 227.304688 394.800781 220.621094 393.808594 214.367188 391.589844 C 208.089844 389.40625 202.261719 386.070312 197 382.078125 C 191.746094 378.0625 187.035156 373.402344 182.855469 368.34375 C 179.230469 363.988281 176.03125 359.316406 173.167969 354.460938 C 174.152344 357.359375 175.179688 360.148438 176.257812 362.800781 C 206.089844 436.105469 203.375 493.019531 203.375 493.019531 Z M 253.308594 380.164062 C 253.324219 380.464844 253.5625 380.707031 253.867188 380.714844 C 254.183594 380.722656 254.445312 380.472656 254.453125 380.15625 L 254.453125 380.140625 C 254.621094 374.109375 255.058594 368.03125 256.214844 362.148438 C 256.789062 359.21875 257.519531 356.296875 258.734375 353.683594 C 259.347656 352.390625 260.09375 351.171875 261.023438 350.28125 C 261.492188 349.84375 262.003906 349.496094 262.535156 349.273438 C 262.816406 349.152344 263.410156 349.164062 264.03125 349.316406 C 265.289062 349.613281 266.644531 350.25 267.960938 350.90625 C 269.285156 351.574219 270.617188 352.292969 271.96875 353.011719 C 273.324219 353.726562 274.695312 354.441406 276.144531 355.082031 C 277.601562 355.710938 279.109375 356.316406 280.910156 356.535156 C 281.804688 356.625 282.824219 356.617188 283.859375 356.1875 C 284.90625 355.78125 285.75 354.882812 286.203125 353.988281 C 287.097656 352.164062 287.132812 350.453125 287.121094 348.820312 C 287.003906 345.609375 286.542969 342.625 286.222656 339.609375 C 285.890625 336.609375 285.570312 333.617188 285.632812 330.714844 C 285.667969 329.277344 285.804688 327.84375 286.1875 326.625 C 286.375 326.019531 286.640625 325.492188 286.953125 325.117188 C 287.253906 324.746094 287.640625 324.53125 288.03125 324.4375 C 288.363281 324.351562 288.929688 324.421875 289.519531 324.621094 C 290.113281 324.8125 290.738281 325.109375 291.359375 325.441406 C 292.605469 326.117188 293.839844 326.953125 295.074219 327.804688 C 297.578125 329.503906 299.964844 331.425781 303.0625 332.765625 C 303.855469 333.078125 304.714844 333.367188 305.757812 333.382812 C 306.277344 333.386719 306.851562 333.296875 307.394531 333.058594 C 307.9375 332.824219 308.414062 332.441406 308.757812 332.023438 C 309.101562 331.609375 309.355469 331.15625 309.535156 330.664062 C 309.707031 330.191406 309.800781 329.738281 309.863281 329.300781 C 309.980469 328.429688 309.980469 327.601562 309.941406 326.792969 C 309.742188 323.582031 309.039062 320.574219 308.273438 317.59375 C 306.632812 311.660156 304.644531 305.890625 302.34375 300.21875 C 302.210938 299.890625 301.84375 299.714844 301.5 299.828125 C 301.144531 299.945312 300.953125 300.332031 301.070312 300.6875 L 301.074219 300.699219 C 302.988281 306.441406 304.816406 312.246094 306.152344 318.117188 C 306.816406 321.039062 307.425781 324.015625 307.523438 326.886719 C 307.5625 328.285156 307.425781 329.78125 306.828125 330.382812 C 306.535156 330.695312 306.28125 330.792969 305.792969 330.789062 C 305.308594 330.777344 304.691406 330.585938 304.085938 330.320312 C 302.855469 329.777344 301.617188 328.964844 300.398438 328.121094 C 299.171875 327.28125 297.953125 326.382812 296.699219 325.492188 C 295.445312 324.601562 294.167969 323.710938 292.746094 322.914062 C 292.035156 322.519531 291.289062 322.144531 290.4375 321.855469 C 289.59375 321.578125 288.613281 321.332031 287.441406 321.554688 C 286.339844 321.773438 285.363281 322.40625 284.699219 323.207031 C 284.03125 324.003906 283.636719 324.878906 283.367188 325.722656 C 282.839844 327.414062 282.710938 329.042969 282.65625 330.640625 C 282.589844 333.828125 282.902344 336.90625 283.25 339.949219 C 283.597656 342.980469 284.066406 346.019531 284.1875 348.894531 C 284.230469 350.277344 284.097656 351.714844 283.625 352.640625 C 283.382812 353.09375 283.113281 353.359375 282.734375 353.523438 C 282.359375 353.695312 281.808594 353.746094 281.199219 353.6875 C 279.964844 353.566406 278.589844 353.078125 277.257812 352.515625 C 275.914062 351.945312 274.578125 351.273438 273.234375 350.585938 C 271.886719 349.898438 270.535156 349.179688 269.125 348.511719 C 267.707031 347.859375 266.273438 347.195312 264.558594 346.828125 C 263.707031 346.671875 262.707031 346.519531 261.5625 346.984375 C 260.695312 347.371094 259.953125 347.929688 259.332031 348.550781 C 258.097656 349.808594 257.292969 351.269531 256.644531 352.738281 C 255.375 355.691406 254.714844 358.746094 254.210938 361.796875 C 253.746094 364.851562 253.488281 367.914062 253.34375 370.976562 C 253.199219 374.039062 253.175781 377.09375 253.308594 380.164062 Z M 243.089844 350.816406 C 252.757812 331.101562 299.769531 281.183594 299.769531 281.183594 L 321.796875 328.804688 C 321.667969 328.859375 321.554688 328.945312 321.476562 329.070312 L 321.46875 329.089844 C 319.082031 333.152344 316.476562 337.140625 313.71875 340.980469 C 310.996094 344.855469 308.109375 348.613281 305.078125 352.234375 C 299.023438 359.492188 292.386719 366.253906 285.125 372.238281 C 281.480469 375.210938 277.65625 377.953125 273.6875 380.464844 C 269.71875 382.980469 265.523438 385.09375 261.238281 387.003906 C 256.941406 388.902344 252.4375 390.273438 247.871094 391.367188 C 243.386719 392.453125 238.789062 392.925781 234.167969 393.226562 C 234.105469 393.191406 234.035156 393.175781 233.964844 393.164062 C 234.597656 388.53125 238.644531 359.878906 243.089844 350.816406 Z M 183.988281 335.382812 C 184.902344 334.59375 185.8125 333.820312 186.722656 333.191406 C 187.175781 332.878906 187.632812 332.597656 188.035156 332.425781 C 188.453125 332.246094 188.726562 332.25 188.730469 332.285156 C 188.890625 332.34375 189.074219 332.496094 189.269531 332.84375 C 189.460938 333.183594 189.613281 333.65625 189.726562 334.160156 C 189.949219 335.183594 190.023438 336.335938 190.039062 337.496094 C 190.058594 339.824219 189.878906 342.226562 189.660156 344.636719 C 189.449219 347.050781 189.160156 349.464844 189.03125 351.988281 C 188.976562 353.261719 188.96875 354.597656 189.296875 356.03125 C 189.472656 356.746094 189.734375 357.535156 190.363281 358.289062 C 190.988281 359.070312 192.132812 359.539062 193.027344 359.523438 C 193.9375 359.539062 194.671875 359.316406 195.34375 359.078125 C 196.003906 358.828125 196.609375 358.535156 197.183594 358.222656 C 198.324219 357.597656 199.375 356.914062 200.390625 356.226562 C 201.410156 355.539062 202.402344 354.847656 203.390625 354.234375 C 203.886719 353.929688 204.382812 353.648438 204.863281 353.414062 C 205.332031 353.191406 205.832031 353.019531 206.121094 353.007812 C 206.191406 353.003906 206.242188 353.003906 206.273438 353.007812 C 206.316406 353.027344 206.261719 352.988281 206.359375 353.039062 C 206.527344 353.117188 206.695312 353.25 206.863281 353.386719 C 207.195312 353.683594 207.511719 354.078125 207.792969 354.523438 C 208.359375 355.417969 208.792969 356.492188 209.15625 357.589844 C 209.878906 359.804688 210.3125 362.167969 210.695312 364.539062 C 211.425781 369.289062 211.722656 374.15625 211.867188 378.988281 L 211.867188 379.007812 C 211.878906 379.359375 212.160156 379.648438 212.519531 379.664062 C 212.894531 379.675781 213.210938 379.386719 213.222656 379.011719 C 213.421875 374.089844 213.28125 369.1875 212.773438 364.265625 C 212.511719 361.800781 212.109375 359.34375 211.386719 356.894531 C 211.019531 355.671875 210.578125 354.445312 209.875 353.253906 C 209.523438 352.660156 209.097656 352.070312 208.53125 351.539062 C 208.238281 351.28125 207.925781 351.027344 207.550781 350.828125 C 207.386719 350.722656 207.039062 350.585938 206.789062 350.535156 C 206.519531 350.476562 206.265625 350.460938 206.027344 350.46875 C 205.09375 350.511719 204.429688 350.789062 203.789062 351.054688 C 203.164062 351.335938 202.589844 351.644531 202.039062 351.960938 C 200.933594 352.601562 199.90625 353.277344 198.882812 353.925781 C 197.863281 354.570312 196.859375 355.214844 195.855469 355.742188 C 194.882812 356.261719 193.777344 356.699219 193.117188 356.660156 C 192.792969 356.632812 192.71875 356.582031 192.5625 356.410156 C 192.40625 356.226562 192.234375 355.835938 192.136719 355.371094 C 191.929688 354.417969 191.925781 353.289062 191.984375 352.128906 C 192.109375 349.785156 192.402344 347.351562 192.628906 344.910156 C 192.855469 342.464844 193.070312 339.996094 193.019531 337.445312 C 192.992188 336.167969 192.914062 334.875 192.609375 333.511719 C 192.449219 332.832031 192.242188 332.125 191.835938 331.398438 C 191.445312 330.691406 190.742188 329.890625 189.742188 329.535156 C 189.214844 329.328125 188.59375 329.304688 188.132812 329.382812 C 187.648438 329.453125 187.25 329.59375 186.890625 329.746094 C 186.171875 330.0625 185.59375 330.441406 185.050781 330.828125 C 183.976562 331.613281 183.046875 332.449219 182.132812 333.273438 C 181.21875 334.097656 180.332031 334.921875 179.4375 335.667969 C 178.558594 336.398438 177.59375 337.132812 176.820312 337.417969 C 176.636719 337.480469 176.480469 337.511719 176.402344 337.507812 C 176.324219 337.5 176.316406 337.511719 176.261719 337.476562 C 176.210938 337.441406 176.113281 337.34375 176.023438 337.179688 C 175.933594 337.019531 175.875 336.863281 175.816406 336.628906 C 175.597656 335.695312 175.609375 334.492188 175.675781 333.339844 C 175.824219 330.996094 176.214844 328.609375 176.660156 326.238281 C 177.511719 321.480469 178.683594 316.746094 179.878906 312.039062 L 179.878906 312.027344 C 179.949219 311.742188 179.792969 311.445312 179.511719 311.347656 C 179.214844 311.246094 178.886719 311.402344 178.78125 311.703125 C 177.171875 316.335938 175.808594 321.03125 174.644531 325.816406 C 174.101562 328.222656 173.609375 330.640625 173.355469 333.160156 C 173.253906 334.433594 173.148438 335.695312 173.414062 337.160156 C 173.488281 337.519531 173.617188 337.949219 173.8125 338.328125 C 174 338.707031 174.265625 339.113281 174.691406 339.460938 C 175.105469 339.816406 175.703125 340.035156 176.230469 340.074219 C 176.761719 340.113281 177.214844 340.019531 177.613281 339.902344 C 179.15625 339.386719 180.140625 338.5625 181.160156 337.78125 C 182.152344 336.988281 183.074219 336.171875 183.988281 335.382812 Z M 184.785156 366.675781 C 180.5 361.902344 176.527344 356.820312 172.78125 351.542969 C 172.640625 351.34375 172.382812 351.265625 172.148438 351.332031 C 169.429688 342.796875 167.074219 333.367188 165.0625 323.296875 L 180.433594 301.609375 C 180.433594 301.609375 211.613281 339.625 218.957031 351.691406 C 224.265625 360.421875 232.335938 388.402344 233.679688 393.121094 C 227.335938 392.738281 221.132812 391.363281 215.292969 389.082031 C 209.394531 386.761719 203.875 383.539062 198.808594 379.691406 C 193.722656 375.867188 189.089844 371.425781 184.785156 366.675781 Z M 87.929688 354.558594 C 90.621094 441.328125 76.933594 492.632812 76.933594 492.632812 L 0 492.398438 C 0 492.398438 12.691406 417.253906 35.679688 391.476562 C 49.027344 376.511719 67.851562 364.285156 87.929688 354.558594" fill="#1c212e"/></g></g></svg>