<svg width="90" height="90" viewBox="0 0 90 90" fill="none" xmlns="http://www.w3.org/2000/svg">
<g clip-path="url(#clip0)">
<path d="M64.376 36.1286C64.376 39.1794 61.9327 41.6522 58.9184 41.6522C58.3284 41.6522 57.7336 41.5533 57.1627 41.3732C56.6016 44.2084 55.5483 46.8314 53.8291 48.9981L53.9585 51.2382L42.0616 72.8921L32.478 54.9602L32.58 53.3878C26.2702 49.1682 26.441 38.0284 26.441 28.1037C26.441 13.649 31.7159 10.6103 31.7159 10.6103C37.1728 6.65189 47.9046 8.12462 51.6333 12.9122C53.3292 15.0897 56.3984 22.659 57.3757 30.7836C57.8412 30.6626 58.3538 30.6035 58.9184 30.6035C61.9327 30.6035 64.376 33.0771 64.376 36.1286Z" fill="#DD6539"/>
<path d="M58.0331 59.9208C57.9755 59.8859 57.9002 59.9051 57.8658 59.9642L53.9515 53.3408L45.5801 63.8457L42.1502 71.655L39.2836 65.0423L36.1097 61.474L32.1469 55.8009L30.5269 58.7926L30.9656 64.0279C30.9164 64.0564 30.8981 64.1198 30.9262 64.1703L34.1466 70.657L41.9421 75.7984L56.3885 68.5885L58.0816 60.081C58.1091 60.0233 58.0887 59.9536 58.0331 59.9208ZM27.5119 46.2164C27.5119 42.9 30.3026 40.0692 35.2364 38.9424C36.2159 37.2234 37.6924 36.1286 39.3448 36.1286C40.9078 36.1286 42.3134 37.108 43.2907 38.669C45.4887 39.0057 47.5692 39.6706 49.2954 40.5689C49.5471 40.2215 49.8023 39.8784 50.0548 39.5325L51.0412 38.2341C51.6994 37.3693 52.3737 36.5172 53.0501 35.6673C53.73 34.8203 54.4106 33.9739 55.1088 33.1411L56.1558 31.8919C56.5123 31.4819 56.8617 31.0662 57.2252 30.6612C57.2969 30.5815 57.4193 30.5751 57.498 30.6484C57.5712 30.7153 57.5817 30.8263 57.5262 30.9053C57.2147 31.3531 56.8905 31.7887 56.5727 32.23L55.5968 33.5369C54.9464 34.4082 54.2784 35.2652 53.6105 36.1222C52.9383 36.9756 52.264 37.8277 51.5742 38.6662L50.5371 39.924C50.2805 40.2236 50.0252 40.5254 49.7672 40.8251C51.9377 42.0573 53.4593 43.6745 53.794 45.4697C54.1329 44.9892 54.483 44.5166 54.8388 44.0489C55.5152 43.1712 56.2099 42.3071 56.9721 41.4978C57.0663 41.3974 57.2231 41.3938 57.3223 41.4892C57.4102 41.5739 57.4228 41.7085 57.3595 41.8074C56.7584 42.7456 56.0897 43.6296 55.4027 44.4995C54.9042 45.1223 54.3966 45.7373 53.8629 46.3324C53.737 50.6402 46.6509 57.1569 39.4383 57.1569C32.1609 57.1569 27.5119 50.5221 27.5119 46.2164Z" fill="#89CF9E"/>
<path d="M36.983 39.4392C37.0891 39.3844 37.1749 39.363 37.2291 39.3089C37.6622 38.874 38.0995 38.4427 38.508 37.9843C38.5755 37.9088 38.5516 37.6796 38.4876 37.5714C38.3976 37.417 38.2113 37.4219 38.0841 37.5494C37.6418 37.9885 37.203 38.4313 36.7826 38.8904C36.7172 38.9616 36.7179 39.1367 36.7516 39.2435C36.7769 39.3246 36.9021 39.3744 36.983 39.4392ZM38.3962 55.5005C38.2894 55.4727 38.1192 55.5147 38.0384 55.5916C37.6341 55.9774 37.2494 56.3838 36.8599 56.7846C36.8374 56.8073 36.8177 56.8301 36.7994 56.8543C37.0399 56.9098 37.2839 56.9582 37.5314 56.9995C37.845 56.6785 38.1593 56.3589 38.4694 56.035C38.5284 55.9731 38.5615 55.8863 38.6283 55.7738C38.5474 55.672 38.4876 55.5247 38.3962 55.5005ZM43.7231 38.7409C43.5797 38.716 43.4355 38.6911 43.2907 38.669C43.2408 38.5893 43.1887 38.5124 43.1374 38.4363C43.1156 38.4918 43.1086 38.5587 43.1114 38.6342C43.1346 39.2114 43.1522 39.7894 43.1754 40.3667C43.1838 40.5717 43.2619 40.7283 43.4946 40.7311C43.695 40.734 43.8124 40.5767 43.8019 40.3297C43.7906 40.0642 43.7758 39.7987 43.7625 39.5332C43.766 39.5325 43.7695 39.5325 43.7723 39.5325C43.7562 39.2684 43.74 39.005 43.7231 38.7409ZM43.3786 56.2678C43.1634 56.2813 43.1072 56.4294 43.1114 56.6201C43.3033 56.5653 43.4939 56.5077 43.6837 56.4457C43.6373 56.3262 43.541 56.2571 43.3786 56.2678ZM37.2614 49.3995C37.2719 49.606 37.3739 49.7398 37.5806 49.7298C37.7662 49.7206 37.8787 49.5989 37.871 49.3988C37.8492 48.8016 37.8281 48.2044 37.7958 47.6079C37.7852 47.4036 37.6847 47.2428 37.4548 47.2663C37.2291 47.289 37.1658 47.4556 37.1777 47.6649C37.1939 47.9403 37.2066 48.2158 37.2213 48.4906C37.2178 48.4913 37.2143 48.4913 37.2115 48.4913C37.2284 48.7938 37.2459 49.097 37.2614 49.3995ZM44.1612 50.4651C44.0564 50.3078 43.8813 50.2373 43.7442 50.3697C43.6577 50.4537 43.5909 50.6801 43.6423 50.7676C43.9601 51.3122 44.3046 51.8418 44.6653 52.3585C44.7201 52.4368 44.9128 52.4625 45.026 52.4383C45.109 52.4212 45.168 52.2838 45.2306 52.2076C45.1863 52.093 45.1701 52.019 45.1329 51.9599C44.8116 51.4602 44.4895 50.9605 44.1612 50.4651ZM34.6859 48.04C34.4637 48.524 34.226 49.0016 33.9975 49.4835C33.9588 49.5654 33.9328 49.6537 33.8794 49.7953C33.9539 49.8779 34.0214 50.011 34.1262 50.0573C34.3069 50.1363 34.4384 50.0174 34.5171 49.8523C34.7639 49.3383 35.0079 48.8237 35.2512 48.3076C35.3391 48.1204 35.3412 47.9304 35.1401 47.8307C34.9319 47.7275 34.7836 47.8257 34.6859 48.04ZM42.5819 48.1019C42.6593 48.1994 42.7191 48.3454 42.8006 48.3589C42.9223 48.3788 43.0966 48.3468 43.1824 48.2656C43.586 47.8827 43.9685 47.4769 44.3573 47.0776C44.5507 46.879 44.5774 46.6897 44.4185 46.5544C44.2357 46.4 44.0705 46.4669 43.9179 46.6242C43.5312 47.025 43.1381 47.4193 42.7528 47.8215C42.6881 47.8898 42.6508 47.9859 42.5819 48.1019ZM32.3571 50.5299C32.2397 50.3484 32.0941 50.2288 31.8853 50.3669C31.6772 50.5043 31.7236 50.6922 31.8396 50.8723C32.1462 51.3485 32.4499 51.8275 32.7663 52.2987C32.8254 52.3863 32.9358 52.439 33.0469 52.5272C33.158 52.444 33.2923 52.3948 33.3105 52.318C33.3387 52.1998 33.3239 52.0389 33.262 51.9371C32.9723 51.4609 32.6594 50.9983 32.3571 50.5299ZM35.7532 55.0442C35.4199 54.9573 35.0866 54.8712 34.7526 54.7851C34.489 54.7175 34.226 54.6498 33.8906 54.5637C33.8245 54.6385 33.6951 54.7239 33.6607 54.8392C33.5995 55.0378 33.7212 55.1702 33.9159 55.2207C34.477 55.3673 35.0395 55.5133 35.602 55.6563C35.7848 55.7026 35.9437 55.645 35.9979 55.4606C36.0569 55.2577 35.9712 55.1004 35.7532 55.0442ZM41.0006 36.5108C40.957 36.4902 40.9134 36.4724 40.8698 36.4532C40.9008 36.4752 40.9366 36.4937 40.9781 36.5051C40.9851 36.5073 40.9929 36.5087 41.0006 36.5108ZM29.7309 49.7476C29.328 49.8601 28.9287 49.9875 28.5321 50.1213C28.6235 50.3085 28.7205 50.4957 28.8239 50.6815C29.2092 50.5513 29.584 50.4231 29.9531 50.2829C30.0262 50.2551 30.0973 50.0231 30.0579 49.9412C30.0094 49.8416 29.8216 49.722 29.7309 49.7476ZM53.4839 46.0348C52.9643 45.9074 52.4475 45.77 51.9293 45.6369C51.859 45.6191 51.7887 45.6035 51.6424 45.5679C51.5784 45.6512 51.4617 45.7437 51.4294 45.8604C51.383 46.0277 51.4744 46.1637 51.6523 46.2106C52.2133 46.358 52.7751 46.5046 53.3376 46.6484C53.5324 46.6989 53.7194 46.6762 53.7743 46.4484C53.8284 46.2227 53.7061 46.0903 53.4839 46.0348ZM51.4715 50.6815C51.4807 50.779 51.6262 50.8637 51.6762 50.9171C51.7359 50.9129 51.7647 50.9121 51.7837 50.9114C52.0158 50.6253 52.2309 50.3377 52.4285 50.0494C52.1592 50.1377 51.8913 50.2288 51.6262 50.327C51.5383 50.3598 51.4603 50.5648 51.4715 50.6815ZM42.8386 54.3267C42.3436 54.2064 41.8507 54.0747 41.3571 53.948C41.2608 53.9231 41.163 53.9003 40.9908 53.8583C40.9254 53.9387 40.8037 54.0277 40.7721 54.143C40.7229 54.326 40.8276 54.4605 41.0161 54.5096C41.5708 54.6548 42.1249 54.8022 42.6818 54.9403C42.8758 54.9887 43.0643 54.9595 43.1135 54.7267C43.1585 54.516 43.0558 54.3801 42.8386 54.3267ZM41.9344 50.1327C41.9428 49.7982 41.748 49.6693 41.4569 49.7619C40.9183 49.932 40.3847 50.1156 39.8475 50.2886C39.6443 50.3534 39.5627 50.4886 39.6169 50.6879C39.6731 50.8965 39.8341 50.9534 40.0261 50.8922C40.59 50.7135 41.1546 50.5335 41.7122 50.3356C41.8134 50.3 41.8858 50.179 41.9344 50.1327ZM32.6004 46.9609C32.6587 46.8975 32.6545 46.731 32.6187 46.6356C32.5863 46.5523 32.4696 46.5018 32.3705 46.4213C32.2573 46.4982 32.1595 46.5452 32.0864 46.6178C31.7039 46.9965 31.327 47.3816 30.9509 47.7659C30.9002 47.8179 30.8215 47.8798 30.8222 47.9368C30.8243 48.0699 30.8264 48.2421 30.9044 48.3226C30.9663 48.3859 31.1927 48.3909 31.2588 48.3276C31.7208 47.8884 32.1666 47.4293 32.6004 46.9609ZM50.1349 41.539C50.0154 41.3518 49.8635 41.2465 49.661 41.3711C49.4501 41.5006 49.493 41.6914 49.6104 41.8729C49.9233 42.3576 50.2319 42.8445 50.5519 43.3235C50.6067 43.4054 50.7115 43.4531 50.8155 43.5342C50.9231 43.4552 51.0574 43.4068 51.0785 43.3285C51.1094 43.2118 51.0996 43.0488 51.0391 42.9477C50.7494 42.4708 50.4337 42.0103 50.1349 41.539ZM38.2219 41.4672C38.1586 41.3789 37.9371 41.334 37.8274 41.3753C37.7487 41.4052 37.6587 41.6565 37.703 41.7312C38.0384 42.2978 38.3991 42.8495 38.7717 43.3912C38.8174 43.4574 38.9939 43.4787 39.0874 43.4495C39.1788 43.4211 39.2428 43.3008 39.3096 43.2296C39.2737 43.1228 39.2646 43.0559 39.2308 43.0047C38.9004 42.4879 38.5769 41.9661 38.2219 41.4672ZM47.8547 52.1713C47.7169 52.0596 47.5629 52.0617 47.437 52.1927C47.2992 52.3372 47.3098 52.5123 47.449 52.6333C47.8912 53.0162 48.3405 53.3921 48.799 53.7544C48.9656 53.6298 49.128 53.5024 49.2883 53.3743C49.2757 53.3565 49.2616 53.3394 49.2447 53.3252C48.7863 52.9344 48.3215 52.5514 47.8547 52.1713ZM39.8018 46.1978C40.3734 46.3729 40.9563 46.5103 41.5371 46.6562C41.7185 46.7018 41.8767 46.6484 41.9231 46.4548C41.973 46.2491 41.8858 46.0982 41.6679 46.0427C41.194 45.9224 40.7201 45.7985 40.2462 45.6768C40.1231 45.6455 39.9994 45.617 39.8018 45.5693C39.7364 45.649 39.5831 45.7522 39.5859 45.8512C39.588 45.9729 39.6984 46.1665 39.8018 46.1978ZM37.1918 45.7131C37.2494 45.5366 37.1405 45.3914 36.9548 45.3422C36.3755 45.1899 35.7954 45.039 35.2139 44.8945C35.0276 44.8482 34.8595 44.9301 34.8511 45.1209C34.8462 45.2426 34.946 45.4519 35.0416 45.481C35.64 45.6661 36.2503 45.8113 36.9323 45.9893C37.0069 45.9145 37.1531 45.832 37.1918 45.7131ZM47.8315 40.9468C47.7844 40.845 47.5959 40.719 47.508 40.744C46.8977 40.9169 46.2937 41.1155 45.6996 41.3376C45.6131 41.3703 45.5358 41.5768 45.5491 41.6921C45.5604 41.7903 45.7087 41.8715 45.7924 41.9569C46.4737 41.7255 47.1037 41.5227 47.7218 41.2878C47.7963 41.2593 47.8701 41.0294 47.8315 40.9468ZM39.9944 41.045C40.1541 41.144 40.346 41.0522 40.4501 40.8351C40.6891 40.3404 40.9247 39.8435 41.1595 39.3467C41.1912 39.2812 41.2116 39.2114 41.2608 39.0819C41.1827 38.9972 41.0983 38.8278 41.0006 38.8192C40.8825 38.8093 40.6933 38.9032 40.6378 39.0086C40.3678 39.5168 40.133 40.045 39.8855 40.566C39.7941 40.7561 39.806 40.9283 39.9944 41.045ZM45.5048 54.8129C45.443 55.0314 45.5618 55.1659 45.7636 55.2207C45.9302 55.2663 46.0976 55.3097 46.2642 55.3524C46.5356 55.2108 46.8028 55.0634 47.0651 54.9089C46.6812 54.8093 46.298 54.7104 45.9148 54.6093C45.7165 54.5573 45.5625 54.61 45.5048 54.8129ZM40.9978 56.8102C40.8783 56.8016 40.6912 56.897 40.6357 57.0031C40.6188 57.0344 40.6041 57.0671 40.5879 57.0992C40.8002 57.0792 41.0119 57.0543 41.2228 57.0237C41.1539 56.9362 41.0801 56.8159 40.9978 56.8102ZM31.9542 40.3517C31.9514 40.2649 31.9458 40.1781 31.9409 40.0919C31.7334 40.1951 31.533 40.3041 31.339 40.4151C31.3544 40.5995 31.436 40.7404 31.6484 40.7297C31.8734 40.7183 31.9612 40.5646 31.9542 40.3517ZM42.8983 44.7906C43.0601 44.923 43.2387 44.9493 43.3793 44.7749C43.5234 44.597 43.4468 44.4297 43.2886 44.298C42.8484 43.93 42.4069 43.5634 41.9625 43.2004C41.9013 43.1506 41.8233 43.1235 41.7129 43.0637C41.6222 43.1442 41.4724 43.2132 41.4598 43.3022C41.4422 43.4246 41.4907 43.6061 41.5779 43.6851C42.0054 44.0681 42.4547 44.4261 42.8983 44.7906ZM29.8786 46.0761C29.2894 45.8946 28.6896 45.748 28.0898 45.602C27.9049 45.5572 27.7615 45.649 27.7242 45.8426C27.6884 46.032 27.7819 46.1637 27.9661 46.2142C28.2987 46.3053 28.6334 46.3907 28.9673 46.4776C29.231 46.5452 29.4954 46.6107 29.8322 46.6954C29.9025 46.6256 30.0663 46.5359 30.0712 46.4377C30.0776 46.316 29.9763 46.106 29.8786 46.0761ZM46.9434 45.5124C47.4968 45.6561 48.0522 45.7949 48.6056 45.9402C48.8102 45.9935 48.9825 45.9587 49.0387 45.7366C49.0985 45.5038 48.96 45.3793 48.7455 45.3252C48.1999 45.1863 47.655 45.0461 47.1101 44.9066C47.0665 44.8952 47.0222 44.8867 46.9069 44.8603C46.8415 44.9429 46.717 45.0354 46.6868 45.1543C46.639 45.3401 46.7613 45.4654 46.9434 45.5124ZM46.7901 47.7937C46.7529 47.8193 46.639 47.8542 46.6017 47.9282C46.3162 48.502 46.0329 49.0778 45.7833 49.6672C45.7453 49.7569 45.8508 49.9761 45.9485 50.0352C46.0258 50.0815 46.2649 50.011 46.3092 49.927C46.6038 49.3682 46.8731 48.7959 47.1326 48.2194C47.2261 48.0115 47.0665 47.7966 46.7901 47.7937ZM29.6522 43.2132C29.4834 43.4139 29.598 43.5898 29.7682 43.7307C30.1887 44.0802 30.6098 44.4297 31.0352 44.7735C31.1091 44.8333 31.204 44.8667 31.3228 44.9301C31.4149 44.849 31.5633 44.7785 31.5654 44.703C31.5696 44.5678 31.5246 44.3849 31.4311 44.3009C31.0254 43.9343 30.5923 43.5997 30.1739 43.2474C30.0023 43.1029 29.8216 43.0118 29.6522 43.2132ZM37.3598 53.8434C37.4407 53.8199 37.4927 53.6946 37.5715 53.5971C37.4955 53.4796 37.4548 53.3714 37.3781 53.306C36.9408 52.9337 36.4957 52.5707 36.0527 52.2055C35.8924 52.0738 35.718 52.0304 35.576 52.2133C35.441 52.3877 35.4994 52.56 35.6583 52.6959C35.8805 52.8846 36.1062 53.0689 36.3312 53.2554C36.5562 53.4412 36.772 53.6398 37.0118 53.8042C37.0997 53.864 37.2544 53.8747 37.3598 53.8434ZM49.2982 47.267C49.0894 47.2876 49.0155 47.4414 49.0254 47.6414C49.0387 47.9076 49.0521 48.1738 49.0655 48.4393C49.064 48.4393 49.0626 48.4393 49.0619 48.44C49.0788 48.7696 49.0908 49.1006 49.1147 49.4302C49.1287 49.6209 49.2391 49.7476 49.4332 49.7305C49.6181 49.7142 49.7327 49.5868 49.725 49.3931C49.6997 48.7874 49.6659 48.1824 49.6322 47.578C49.6209 47.3688 49.5042 47.2463 49.2982 47.267ZM33.6846 41.6757C33.7394 41.8971 33.9012 41.9597 34.1079 41.8928C34.669 41.7113 35.2322 41.5333 35.7869 41.334C35.8924 41.2963 35.9662 41.1682 36.0134 41.1226C36.0021 40.7952 35.8256 40.677 35.5683 40.7575C35.0226 40.929 34.4805 41.1098 33.9363 41.2856C33.7472 41.3469 33.6326 41.4686 33.6846 41.6757ZM34.92 36.6112C35.5535 35.9912 35.6505 34.7455 35.0142 33.9412C33.8112 32.4201 30.9565 30.3594 28.1531 30.7423C27.3255 30.8555 27.1315 31.7873 27.5857 33.354C28.8949 37.8725 32.812 38.6761 34.92 36.6112ZM43.0713 35.2637C44.0374 32.509 47.3773 29.9415 51.9757 31.0804C53.0585 31.3488 53.8594 32.082 53.2392 33.4792C50.0674 40.6194 42.6994 36.3229 43.0713 35.2637Z" fill="#FEFAE5"/>
<path d="M61.1438 31.0843C60.4638 30.7768 59.7115 30.6038 58.9184 30.6038C58.372 30.6038 57.8742 30.66 57.4207 30.7732C56.6332 27.4056 54.4022 21.4926 48.1795 17.8282C37.5933 20.9111 30.7343 24.5591 26.4452 27.5373C26.4431 27.7252 26.441 27.9124 26.441 28.1039C26.441 34.7223 26.3665 41.8803 28.1869 47.1669C28.7529 54.2793 29.8097 61.3433 31.7264 66.111C37.0962 79.4688 36.6075 89.8398 36.6075 89.8398L13.8481 89.7694C13.8481 89.7694 16.3252 80.3728 15.8238 64.488C15.5046 54.3526 17.7195 41.2105 21.0614 32.021C20.4265 32.3883 19.582 32.1982 19.1777 31.5256C16.5649 27.1779 14.587 23.1697 13.9978 19.901C13.8199 18.9166 14.1968 17.9172 14.9949 17.2716C17.7785 15.0187 24.3774 8.79397 28.1292 6.10475C34.8511 1.28652 49.3924 -5.12333 63.8712 6.79022C64.2797 7.12691 64.966 8.32346 63.7805 10.0482C64.2846 10.8027 64.7979 11.9708 65.2367 13.7674C66.3891 18.486 64.5912 26.9757 61.1438 31.0843Z" fill="#F4DBB5"/>
<path d="M24.6403 50.0089C24.7078 50.5812 24.7591 51.1542 24.84 51.7251L25.0777 53.4377L25.387 55.1411C25.5101 55.7062 25.6486 56.2686 25.7794 56.8316C25.8019 56.9298 25.8982 56.9932 25.9966 56.9725C26.0972 56.9512 26.1619 56.8522 26.1415 56.7512L26.1387 56.7369C26.0255 56.1775 25.9031 55.6215 25.7977 55.0613L25.5368 53.3679L25.3252 51.6646C25.2527 51.0973 25.2105 50.5257 25.1508 49.9562C24.9335 47.6756 24.7711 45.3879 24.6558 43.0965C24.5264 40.8059 24.4392 38.5125 24.3647 36.2183C24.3267 35.0709 24.2965 33.9235 24.2684 32.776C24.2402 31.7033 24.2149 30.6292 24.1995 29.5565C24.2142 29.5458 24.2283 29.5337 24.2423 29.523L25.5459 28.513C25.9819 28.1777 26.4199 27.8439 26.8509 27.4972C26.9079 27.451 26.9262 27.367 26.8882 27.3001C26.8467 27.226 26.7539 27.2004 26.6808 27.2417C26.4403 27.3798 26.2069 27.5278 25.9692 27.6709L25.2731 28.1243C24.8119 28.4318 24.3605 28.755 23.9175 29.0903C23.4745 29.4248 23.0407 29.7743 22.6238 30.1445C22.4156 30.3302 22.2117 30.5217 22.0092 30.7153C21.8123 30.9189 21.6176 31.1111 21.4334 31.3446C21.3771 31.415 21.3785 31.519 21.4404 31.588C21.5093 31.6649 21.6267 31.6713 21.7027 31.6015L21.7104 31.5944C21.9009 31.4207 22.1119 31.2357 22.3207 31.0641C22.5281 30.8876 22.7384 30.7132 22.9535 30.5431C23.208 30.3388 23.4661 30.1373 23.7227 29.9345C23.3831 31.4905 23.0358 33.0451 22.7116 34.6054L22.2216 37.2811C22.062 38.173 21.8834 39.0627 21.7589 39.961C21.4903 41.7548 21.1999 43.5464 21.0087 45.3508C20.9067 46.2527 20.7851 47.1517 20.6993 48.055L20.4616 50.767C20.1987 54.3865 20.0454 58.0182 20.1298 61.6491C20.1818 63.4642 20.2556 65.2794 20.4244 67.0881C20.5896 68.8982 20.8048 70.6991 21.1767 72.49C21.1943 72.5718 21.273 72.6245 21.3539 72.6089C21.4362 72.5932 21.4903 72.5128 21.4748 72.4295L21.4734 72.4217C21.1416 70.6592 20.9588 68.8533 20.8301 67.0539C20.688 65.2537 20.6304 63.4472 20.6009 61.6406C20.5601 58.0274 20.7105 54.4129 20.996 50.8104L21.233 48.1098C21.3166 47.2094 21.4362 46.3132 21.536 45.4156C21.7202 43.6169 22.0163 41.8331 22.2659 40.0429C22.3819 39.146 22.5513 38.2577 22.7032 37.3672L23.1673 34.6951C23.3937 33.5099 23.632 32.3269 23.8704 31.1438C23.8669 31.6898 23.8641 32.235 23.862 32.781C23.8641 33.9306 23.8774 35.0801 23.8936 36.2297C23.9259 38.5289 24.0145 40.8273 24.1207 43.125C24.2346 45.4227 24.4034 47.7183 24.6403 50.0089ZM55.8844 41.3526C56.2753 41.5227 56.6895 41.6494 57.1198 41.6822C57.1943 41.6879 57.2681 41.648 57.3033 41.5761C57.349 41.4814 57.3103 41.3676 57.2175 41.3206L57.2112 41.3177C57.0256 41.2252 56.8378 41.1512 56.6515 41.0736L56.089 40.8501L55.5237 40.628C55.3345 40.5554 55.1419 40.4799 54.9513 40.4152L54.9436 40.413C54.8873 40.3938 54.8227 40.4087 54.7805 40.4564C54.7235 40.5205 54.7284 40.6187 54.7917 40.6771C54.957 40.828 55.1313 40.9476 55.3155 41.0586C55.4984 41.1704 55.6889 41.2672 55.8844 41.3526ZM27.578 74.977C27.1195 72.9263 26.633 70.8834 26.081 68.8583C25.5333 66.8311 24.9567 64.8145 24.3134 62.8158C24.2888 62.7375 24.2065 62.6926 24.1284 62.7147C24.0476 62.7382 24.0005 62.8229 24.023 62.9048L24.0237 62.9062C24.3028 63.9134 24.577 64.9249 24.8421 65.9378C25.1093 66.95 25.3723 67.9636 25.6254 68.9793C26.1338 71.0101 26.6203 73.0466 27.0548 75.0931C27.1589 75.6056 27.2784 76.1152 27.3797 76.6284L27.6834 78.1674C27.7847 78.6799 27.8663 79.1959 27.9584 79.7106L28.092 80.4829L28.208 81.2573C28.3781 82.2887 28.492 83.3259 28.6003 84.3622L28.7107 85.9204L28.722 87.4771V87.4878C28.7234 87.5846 28.7979 87.6665 28.8949 87.6729C28.9976 87.68 29.0862 87.6017 29.0925 87.4978C29.2338 85.3737 28.9976 83.2661 28.7163 81.1819C28.4203 79.097 28.0301 77.0285 27.578 74.977ZM27.4064 11.073L27.4106 11.0701C28.767 10.2238 30.1915 9.46996 31.6329 8.77239C33.0757 8.07411 34.5466 7.43419 36.045 6.87044C39.0389 5.74578 42.1369 4.87524 45.3002 4.48018C48.4545 4.07588 51.6888 4.13068 54.7685 4.92435C57.8482 5.69809 60.7296 7.23844 63.1139 9.37529C63.1898 9.44292 63.3066 9.43793 63.3748 9.36177C63.4437 9.28489 63.4388 9.16602 63.3628 9.09626C62.1654 7.99225 60.8491 7.0128 59.4211 6.22483C57.9945 5.43757 56.4673 4.83822 54.8958 4.42039C54.109 4.21468 53.3109 4.05594 52.5073 3.93636C51.7029 3.82389 50.8936 3.752 50.0829 3.7157C49.2729 3.67726 48.4615 3.68865 47.6522 3.72495C46.8422 3.76197 46.035 3.83315 45.2327 3.94205C43.6268 4.15133 42.0398 4.48303 40.4789 4.90229C38.9173 5.32154 37.3816 5.83476 35.8777 6.42485C32.8697 7.6093 29.9679 9.05213 27.2447 10.8131C27.1751 10.858 27.154 10.952 27.1969 11.0231C27.2412 11.0957 27.3347 11.1178 27.4064 11.073ZM23.523 21.0582C24.5559 20.1941 25.6036 19.347 26.6815 18.5427C27.7594 17.7376 28.8619 16.9675 29.9869 16.2343C31.1147 15.5047 32.2657 14.8135 33.4406 14.1686C34.6177 13.5244 35.8284 12.95 37.054 12.4126C38.2838 11.8851 39.543 11.4331 40.822 11.0445C42.1031 10.6665 43.4081 10.3747 44.7279 10.1682L44.7321 10.1675C44.8313 10.1526 44.9009 10.0593 44.8875 9.95755C44.8748 9.85505 44.7813 9.78245 44.6794 9.79597C43.3364 9.97321 42.0047 10.238 40.6948 10.5925C39.3926 10.9705 38.1094 11.4132 36.8564 11.9328C35.607 12.461 34.3828 13.0489 33.1903 13.6946C32.0006 14.3459 30.8313 15.0342 29.6972 15.778C27.4345 17.275 25.2654 18.9121 23.2193 20.6938C21.1704 22.4726 19.2171 24.3589 17.4199 26.4046C17.3658 26.4673 17.37 26.5626 17.4305 26.6196C17.4916 26.6772 17.588 26.6737 17.6449 26.6118L17.6477 26.6082C18.5569 25.6181 19.5223 24.6699 20.5045 23.7474C21.4868 22.8235 22.4916 21.9245 23.523 21.0582ZM60.7563 16.8429C60.1538 16.6208 59.5477 16.4293 58.9127 16.3033C58.822 16.2848 58.7306 16.3368 58.7004 16.4272C58.668 16.5261 58.7201 16.6322 58.8171 16.6656L58.8234 16.6678C59.1131 16.7667 59.4113 16.8692 59.7009 16.9824C59.9934 17.0892 60.2831 17.2038 60.5686 17.3269C61.1416 17.5696 61.7056 17.8302 62.247 18.1284C62.7891 18.4245 63.3101 18.7576 63.7854 19.1434C64.023 19.3356 64.2487 19.5428 64.4505 19.7706C64.6573 19.9941 64.8387 20.2396 64.9983 20.4994L65.0011 20.5037C65.0405 20.5678 65.1213 20.5948 65.1916 20.5635C65.2683 20.5286 65.3034 20.4375 65.269 20.3599C65.0018 19.7485 64.5757 19.221 64.092 18.7811C63.611 18.3334 63.0668 17.9711 62.5057 17.6515C61.9432 17.334 61.3568 17.0671 60.7563 16.8429ZM63.1842 10.5619L63.1793 10.5654C62.6006 10.989 61.9952 11.394 61.3849 11.7812C60.7732 12.1677 60.1566 12.5485 59.5266 12.9037C58.2687 13.6191 56.9939 14.306 55.6826 14.9153C54.3741 15.5296 53.0522 16.1183 51.6994 16.6265C50.5582 17.0813 49.3945 17.4743 48.2281 17.8586C48.2112 17.8487 48.195 17.838 48.1781 17.828C45.9211 18.485 43.8356 19.1684 41.9062 19.8652C44.652 20.9536 48.9607 22.2484 52.7667 21.5999C51.6663 20.3571 50.3248 19.1769 48.6991 18.1498L48.7603 18.1327C49.1105 18.0309 49.4641 17.9412 49.8094 17.8238C50.5005 17.5924 51.198 17.376 51.8794 17.1134C52.2211 16.9874 52.5642 16.8621 52.9024 16.7254L53.9142 16.3055C54.2531 16.1702 54.5843 16.0165 54.9176 15.8663C55.2298 15.7218 55.5476 15.5887 55.8548 15.4342C55.864 15.4591 55.878 15.4833 55.8984 15.5033L55.9027 15.5075C56.3034 15.8997 56.7014 16.3104 57.0825 16.7297C57.4685 17.1461 57.8433 17.5732 58.2061 18.0103C58.938 18.8779 59.6236 19.7848 60.2522 20.7286C60.5672 21.1999 60.8653 21.6818 61.1466 22.1736C61.425 22.6669 61.6788 23.1737 61.9214 23.6848C62.1577 24.1994 62.3637 24.7269 62.5465 25.2622C62.7265 25.7996 62.8671 26.3484 62.9831 26.9036L62.9838 26.9072C63 26.9847 63.0724 27.0381 63.1512 27.0274C63.2348 27.0175 63.2939 26.9399 63.2827 26.8559C63.2109 26.2765 63.0872 25.7042 62.9353 25.1397C62.7715 24.5795 62.5746 24.0293 62.3517 23.4912C61.9003 22.4156 61.3252 21.4006 60.6973 20.4268C60.056 19.4616 59.3529 18.5398 58.5942 17.67C57.8447 16.818 57.0593 16.0065 56.1938 15.2662L56.8927 14.9182L57.8623 14.4064C58.1864 14.2384 58.5014 14.0519 58.8206 13.8739C59.1413 13.6988 59.452 13.5052 59.7642 13.3152C61.013 12.5521 62.2294 11.7421 63.3691 10.8053C63.431 10.7541 63.4437 10.6622 63.3966 10.596C63.3473 10.527 63.2524 10.5121 63.1842 10.5619ZM54.0506 28.8454C54.3291 28.4995 53.9606 26.9719 53.0712 26.5292C53.0712 26.5292 46.838 25.0899 45.4057 26.7812C43.9734 28.4717 45.957 29.2832 46.8731 29.3237C48.1127 29.3786 53.7722 29.1921 54.0506 28.8454ZM27.7566 26.5819C26.8861 27.0616 26.5809 28.6041 26.8734 28.9379C27.1666 29.2725 32.8289 29.2177 34.065 29.1095C34.9784 29.0305 36.9267 28.1357 35.4255 26.5071C33.9244 24.8785 27.7566 26.5819 27.7566 26.5819ZM37.973 32.3931L37.9716 32.3966C37.8914 32.7767 37.8267 33.1583 37.7655 33.5405C37.7016 33.9227 37.6502 34.3057 37.5996 34.6894C37.5497 35.073 37.5054 35.4574 37.4695 35.8425C37.4358 36.2283 37.402 36.6148 37.3901 37.0035V37.0077C37.3873 37.0946 37.4449 37.1743 37.5321 37.1949C37.6313 37.2177 37.7304 37.1551 37.7529 37.0554C37.8394 36.676 37.9041 36.2938 37.9688 35.9108C38.0313 35.5286 38.0855 35.1442 38.134 34.7598C38.1811 34.3747 38.2282 33.9897 38.2627 33.6031C38.2999 33.2173 38.3337 32.8308 38.352 32.4422C38.3562 32.3489 38.2936 32.2635 38.2001 32.2436C38.0967 32.2208 37.9948 32.2877 37.973 32.3931ZM58.0584 38.0213C58.159 38.0313 58.249 37.9573 58.2595 37.8548L58.2602 37.8427C58.2778 37.6676 58.2848 37.4946 58.2961 37.3216L58.3495 36.8077C58.384 36.5714 58.4191 36.3351 58.4691 36.1037C58.5457 36.1414 58.6174 36.1842 58.6849 36.2354C58.8206 36.3443 58.9402 36.476 59.0456 36.6283C59.1518 36.7799 59.2376 36.955 59.3177 37.1344C59.3951 37.3131 59.4654 37.5103 59.5245 37.6918L59.5294 37.7067C59.5554 37.7857 59.6292 37.8413 59.7157 37.8398C59.8219 37.8384 59.9063 37.7494 59.9041 37.6419C59.8999 37.3999 59.857 37.1821 59.7895 36.9579C59.7213 36.7372 59.6264 36.5194 59.49 36.3194C59.3543 36.1194 59.1764 35.9386 58.9598 35.8069C58.8431 35.7371 58.7152 35.6909 58.5851 35.6617C58.6673 35.3898 58.7672 35.125 58.8959 34.8766C58.9753 34.7321 59.0555 34.5876 59.1518 34.4566C59.2404 34.3242 59.3585 34.1925 59.4548 34.1007L59.4766 34.0801C59.5399 34.0188 59.5554 33.9192 59.5083 33.8402C59.4534 33.7491 59.3367 33.7206 59.2467 33.7754C59.0576 33.8921 58.931 34.0203 58.7981 34.1633C58.6688 34.305 58.5598 34.4616 58.4592 34.6232C58.2609 34.9477 58.1231 35.3029 58.0226 35.6631C57.9171 36.0233 57.8735 36.3941 57.8461 36.7621C57.8384 36.9465 57.8412 37.1309 57.8426 37.3138C57.8595 37.4967 57.8714 37.679 57.8946 37.8598C57.9052 37.9437 57.9713 38.0121 58.0584 38.0213ZM31.4986 36.4475C32.9808 36.7735 34.4243 35.6503 34.7224 33.9377C34.74 33.8387 34.752 33.7398 34.7611 33.6409C33.8133 32.5788 32.1673 31.3617 30.3427 30.894C29.8519 31.3467 29.4898 31.9923 29.3562 32.7568C29.058 34.4687 30.0171 36.1215 31.4986 36.4475ZM47.2155 36.6404C49.0064 36.9949 50.7417 35.8119 51.0919 33.9989C51.3288 32.7682 50.8662 31.5652 49.9852 30.8072C47.6986 30.7523 45.8367 31.6414 44.5795 32.9041C44.3419 34.6488 45.4866 36.2988 47.2155 36.6404ZM36.6075 89.8396L90 90.0055C90 90.0055 87.0441 76.0334 79.5804 69.2726C73.1517 63.45 64.5469 61.8548 58.088 60.0561C58.0859 60.0646 58.0852 60.0732 58.0816 60.081C57.7041 60.874 57.2576 61.6192 56.7963 62.3588C56.3238 63.0905 55.8183 63.8009 55.2846 64.49C54.2187 65.8694 53.0023 67.1329 51.6635 68.2533C50.9857 68.8028 50.2763 69.316 49.5338 69.7751C48.7884 70.23 48.0059 70.6243 47.1959 70.9482C46.3866 71.2756 45.5414 71.5063 44.6892 71.6764L44.0445 71.7753C43.83 71.8081 43.6113 71.8145 43.3962 71.8358C42.9834 71.8849 42.5672 71.8636 42.1538 71.8671C42.1369 71.8778 42.1186 71.8857 42.0975 71.8864C40.9148 71.9419 39.7118 71.7611 38.5861 71.3568C37.4562 70.9589 36.4071 70.351 35.46 69.6235C34.5143 68.8918 33.6663 68.0426 32.914 67.1208C32.2615 66.3271 31.6856 65.4758 31.1702 64.591C31.3474 65.1192 31.5323 65.6274 31.7264 66.1108C37.0962 79.4686 36.6075 89.8396 36.6075 89.8396ZM45.5956 69.2747C45.5984 69.3296 45.6413 69.3737 45.6961 69.3751C45.753 69.3765 45.8002 69.331 45.8016 69.2733V69.2705C45.8318 68.1714 45.9105 67.0639 46.1187 65.9919C46.222 65.458 46.3535 64.9256 46.5722 64.4494C46.6826 64.2138 46.8169 63.9917 46.9842 63.8294C47.0686 63.7497 47.1607 63.6863 47.2563 63.6458C47.307 63.6237 47.4138 63.6258 47.5256 63.6536C47.752 63.7077 47.996 63.8237 48.233 63.9433C48.4713 64.065 48.7111 64.196 48.9544 64.327C49.1984 64.4572 49.4452 64.5875 49.706 64.7042C49.9683 64.8188 50.2397 64.9291 50.5638 64.969C50.7248 64.9854 50.9084 64.984 51.0947 64.9057C51.2831 64.8316 51.435 64.6679 51.5166 64.5049C51.6776 64.1725 51.6839 63.8607 51.6818 63.5632C51.6607 62.9781 51.5777 62.4343 51.5201 61.8847C51.4603 61.3381 51.4027 60.7928 51.4139 60.264C51.4202 60.002 51.4448 59.7408 51.5138 59.5187C51.5475 59.4084 51.5953 59.3123 51.6516 59.2439C51.7057 59.1763 51.7753 59.1372 51.8456 59.1201C51.9054 59.1044 52.0073 59.1172 52.1135 59.1535C52.2204 59.1884 52.3329 59.2425 52.4447 59.303C52.669 59.4262 52.8912 59.5785 53.1134 59.7337C53.5641 60.0433 53.9937 60.3935 54.5513 60.6376C54.694 60.6946 54.8487 60.7473 55.0364 60.7501C55.1299 60.7508 55.2333 60.7345 55.331 60.691C55.4288 60.6483 55.5145 60.5786 55.5764 60.5024C55.6383 60.427 55.684 60.3444 55.7163 60.2547C55.7473 60.1686 55.7641 60.086 55.7754 60.0063C55.7965 59.8475 55.7965 59.6966 55.7895 59.5493C55.7536 58.9642 55.627 58.4161 55.4892 57.873C55.1939 56.7917 54.836 55.7404 54.4219 54.7069C54.398 54.6471 54.3319 54.615 54.27 54.6357C54.206 54.657 54.1716 54.7275 54.1927 54.7923L54.1934 54.7944C54.5379 55.8408 54.867 56.8985 55.1074 57.9684C55.227 58.5008 55.3366 59.0432 55.3542 59.5664C55.3613 59.8212 55.3366 60.0938 55.2291 60.2034C55.1763 60.2604 55.1306 60.2782 55.0427 60.2775C54.9555 60.2753 54.8445 60.2405 54.7355 60.1921C54.514 60.0931 54.2911 59.9451 54.0717 59.7913C53.8509 59.6383 53.6316 59.4746 53.4059 59.3123C53.1802 59.15 52.9502 58.9877 52.6943 58.8425C52.5663 58.7706 52.432 58.7022 52.2788 58.6496C52.1269 58.599 51.9504 58.5542 51.7395 58.5948C51.5412 58.6346 51.3654 58.7499 51.2459 58.8959C51.1256 59.0411 51.0546 59.2005 51.0061 59.3543C50.9112 59.6625 50.888 59.9593 50.8781 60.2504C50.8662 60.8313 50.9224 61.3922 50.985 61.9467C51.0476 62.499 51.132 63.0528 51.1538 63.5767C51.1615 63.8287 51.1376 64.0906 51.0525 64.2593C51.0089 64.3419 50.9604 64.3903 50.8922 64.4202C50.8247 64.4515 50.7255 64.4608 50.6159 64.4501C50.3937 64.428 50.1462 64.3391 49.9064 64.2366C49.6645 64.1326 49.4241 64.0102 49.1822 63.8849C48.9396 63.7596 48.6963 63.6287 48.4425 63.507C48.1873 63.3881 47.9292 63.2671 47.6205 63.2002C47.4673 63.1717 47.2873 63.1439 47.0813 63.2286C46.9252 63.2991 46.7916 63.4009 46.6798 63.5141C46.4576 63.7433 46.3127 64.0095 46.196 64.2771C45.9675 64.8153 45.8487 65.3719 45.758 65.9278C45.6743 66.4845 45.6279 67.0425 45.6019 67.6006C45.5759 68.1586 45.5716 68.7153 45.5956 69.2747ZM43.7562 63.9269C45.4964 60.3344 53.9585 51.2382 53.9585 51.2382L57.9234 59.9159C57.9002 59.9258 57.8798 59.9415 57.8658 59.9643L57.8644 59.9678C57.4348 60.7081 56.9658 61.4349 56.4694 62.1346C55.9793 62.8407 55.4597 63.5255 54.9141 64.1853C53.8242 65.5078 52.6296 66.74 51.3225 67.8305C50.6665 68.3722 49.9781 68.8719 49.2638 69.3296C48.5494 69.788 47.7942 70.173 47.0229 70.5211C46.2495 70.8671 45.4388 71.1169 44.6168 71.3162C43.8096 71.5141 42.982 71.6002 42.1502 71.655C42.139 71.6486 42.1263 71.6458 42.1137 71.6436C42.2276 70.7994 42.956 65.5783 43.7562 63.9269ZM33.1179 61.1146C33.2824 60.9708 33.4463 60.8298 33.6101 60.7152C33.6916 60.6583 33.7739 60.607 33.8463 60.5757C33.9216 60.543 33.9708 60.5437 33.9715 60.5501C34.0003 60.5608 34.0334 60.5885 34.0685 60.6519C34.103 60.7138 34.1304 60.7999 34.1508 60.8918C34.1909 61.0783 34.2042 61.2882 34.207 61.4997C34.2105 61.9239 34.1782 62.3617 34.1388 62.8008C34.1009 63.2407 34.0488 63.6806 34.0256 64.1405C34.0158 64.3725 34.0144 64.616 34.0734 64.8772C34.1051 65.0074 34.1522 65.1512 34.2654 65.2886C34.3779 65.431 34.5839 65.5164 34.7449 65.5135C34.9088 65.5164 35.0409 65.4758 35.1619 65.4324C35.2807 65.3868 35.3897 65.3335 35.493 65.2765C35.6984 65.1626 35.8875 65.0381 36.0703 64.9128C36.2538 64.7875 36.4324 64.6615 36.6103 64.5498C36.6996 64.4942 36.7889 64.443 36.8754 64.4003C36.9598 64.3597 37.0498 64.3284 37.1018 64.3262C37.1145 64.3255 37.1236 64.3255 37.1292 64.3262C37.137 64.3298 37.1271 64.3227 37.1447 64.3319C37.1749 64.3462 37.2052 64.3704 37.2354 64.3953C37.2952 64.4494 37.3521 64.5213 37.4027 64.6024C37.5047 64.7654 37.5827 64.9612 37.6481 65.1612C37.7782 65.5648 37.8563 65.9954 37.9252 66.4275C38.0566 67.2931 38.1101 68.18 38.1361 69.0605V69.064C38.1382 69.1281 38.1888 69.1808 38.2535 69.1836C38.321 69.1858 38.378 69.1331 38.3801 69.0648C38.4159 68.1679 38.3906 67.2746 38.2992 66.3777C38.2521 65.9285 38.1797 65.4808 38.0496 65.0345C37.9835 64.8117 37.9041 64.5882 37.7775 64.3711C37.7142 64.2629 37.6376 64.1554 37.5356 64.0586C37.4829 64.0116 37.4266 63.9654 37.3591 63.9291C37.3296 63.9098 37.267 63.8849 37.222 63.8757C37.1735 63.865 37.1278 63.8621 37.0849 63.8636C36.9169 63.8714 36.7973 63.9219 36.682 63.9703C36.5695 64.0216 36.4662 64.0778 36.367 64.1355C36.168 64.2522 35.9831 64.3754 35.7989 64.4935C35.6154 64.611 35.4347 64.7284 35.254 64.8245C35.0789 64.9192 34.8799 64.9989 34.7611 64.9918C34.7027 64.9868 34.6894 64.9776 34.6613 64.9462C34.6331 64.9128 34.6022 64.8416 34.5846 64.7569C34.5473 64.5832 34.5466 64.3775 34.5572 64.1661C34.5797 63.739 34.6324 63.2955 34.6732 62.8507C34.714 62.4051 34.7527 61.9552 34.7435 61.4904C34.7386 61.2576 34.7245 61.022 34.6697 60.7736C34.6409 60.6497 34.6036 60.5209 34.5305 60.3885C34.4602 60.2597 34.3336 60.1138 34.1536 60.049C34.0587 60.0113 33.9469 60.007 33.8639 60.0212C33.7767 60.034 33.705 60.0597 33.6403 60.0874C33.5109 60.1451 33.4069 60.2141 33.3091 60.2846C33.1158 60.4277 32.9484 60.58 32.7839 60.7302C32.6194 60.8804 32.4598 61.0306 32.2988 61.1665C32.1405 61.2996 31.9669 61.4335 31.8277 61.4854C31.7946 61.4968 31.7665 61.5025 31.7524 61.5018C31.7384 61.5004 31.737 61.5025 31.7271 61.4961C31.718 61.4897 31.7004 61.4719 31.6842 61.442C31.668 61.4128 31.6575 61.3843 31.647 61.3416C31.6076 61.1715 31.6097 60.9523 31.6216 60.7423C31.6484 60.3152 31.7187 59.8803 31.7988 59.4482C31.9521 58.5812 32.163 57.7185 32.3782 56.8608V56.8587C32.3909 56.8067 32.3627 56.7526 32.3121 56.7348C32.2587 56.7163 32.1996 56.7448 32.1806 56.7996C31.8909 57.6438 31.6455 58.4994 31.436 59.3713C31.3383 59.8098 31.2497 60.2504 31.204 60.7095C31.1857 60.9416 31.1667 61.1715 31.2145 61.4384C31.2279 61.5039 31.2511 61.5822 31.2863 61.6513C31.32 61.7203 31.3678 61.7943 31.4445 61.8577C31.519 61.9225 31.6266 61.9623 31.7215 61.9694C31.8171 61.9766 31.8987 61.9595 31.9704 61.9381C32.2481 61.8442 32.4253 61.694 32.6088 61.5516C32.7874 61.4071 32.9534 61.2583 33.1179 61.1146ZM33.2613 66.8169C32.49 65.947 31.7749 65.021 31.1006 64.0593C31.0753 64.023 31.0289 64.0088 30.9867 64.0209C30.4973 62.4656 30.0734 60.7473 29.7113 58.9122L32.478 54.9603C32.478 54.9603 38.0904 61.8876 39.4123 64.0864C40.3678 65.6773 41.8205 70.7759 42.0623 71.6358C40.9205 71.5661 39.8039 71.3155 38.7527 70.8998C37.691 70.477 36.6975 69.8897 35.7855 69.1886C34.8701 68.4918 34.0362 67.6824 33.2613 66.8169ZM15.8273 64.6088C16.3118 80.4202 13.848 89.7691 13.848 89.7691L0 89.7264C0 89.7264 2.28445 76.0334 6.42234 71.3361C8.82492 68.6092 12.2133 66.3812 15.8273 64.6088Z" fill="#1C212E"/>
</g>
<defs>
<clipPath id="clip0">
<rect width="90" height="90" fill="white"/>
</clipPath>
</defs>
</svg>
