<?xml version="1.0" encoding="UTF-8"?><svg xmlns="http://www.w3.org/2000/svg" xmlns:xlink="http://www.w3.org/1999/xlink" height="500.1" preserveAspectRatio="xMidYMid meet" version="1.0" viewBox="0.0 0.0 444.2 500.1" width="444.2" zoomAndPan="magnify"><defs><clipPath id="a"><path d="M 0 175 L 444.160156 175 L 444.160156 499 L 0 499 Z M 0 175"/></clipPath></defs><g><g id="change1_1"><path d="M 407.988281 150.789062 C 406.425781 186.339844 373.429688 200.269531 361.050781 190.722656 C 360.972656 190.664062 360.898438 190.589844 360.820312 190.523438 C 349.097656 230.414062 320.445312 264.675781 283.074219 281.617188 L 289.78125 331.773438 C 289.78125 331.773438 318.257812 340.363281 318.378906 372.878906 C 318.546875 418.007812 277.949219 454.59375 226.027344 454.59375 C 174.105469 454.59375 126.929688 418.007812 127.394531 372.878906 C 127.589844 353.804688 162.46875 330.121094 162.46875 330.121094 L 168.910156 278.015625 C 134.894531 260.648438 108.671875 229.367188 97.800781 190.777344 C 85.363281 200.207031 52.503906 186.265625 50.945312 150.789062 C 50 129.390625 65.378906 110.105469 83.640625 114.671875 C 88.011719 115.765625 91.792969 119.964844 94.863281 125.878906 C 108.789062 57.9375 177.222656 7.5625 229.46875 5.566406 C 279.671875 3.644531 349.832031 57.203125 364.035156 125.9375 C 367.113281 119.992188 370.90625 115.769531 375.292969 114.671875 C 393.554688 110.105469 408.929688 129.390625 407.988281 150.789062" fill="#8d4a37"/></g><g id="change2_1"><path d="M 374.414062 115.988281 L 374.3125 116.066406 C 373.511719 116.695312 372.707031 117.3125 371.898438 117.914062 C 371.484375 118.199219 371.109375 118.539062 370.742188 118.894531 L 369.628906 119.933594 L 368.507812 120.957031 L 367.46875 122.082031 C 366.792969 122.847656 366.046875 123.535156 365.429688 124.355469 L 363.496094 126.738281 C 362.875 127.550781 362.292969 128.398438 361.683594 129.222656 C 361.058594 130.035156 360.5 130.898438 359.933594 131.757812 C 359.375 132.621094 358.785156 133.464844 358.257812 134.351562 C 356.015625 137.8125 354.117188 141.496094 352.21875 145.179688 C 351.570312 146.433594 350.964844 147.707031 350.363281 148.988281 L 355.941406 198.550781 C 357.296875 195.800781 358.691406 193.054688 360.273438 190.40625 L 360.285156 190.394531 C 360.523438 189.992188 361.042969 189.863281 361.445312 190.101562 C 361.773438 190.300781 361.921875 190.6875 361.828125 191.039062 C 361.035156 194.128906 359.867188 197.039062 358.582031 199.902344 C 357.917969 201.347656 357.21875 202.773438 356.453125 204.167969 C 355.210938 208.175781 340.210938 253.824219 295.148438 279.375 C 278.078125 289.054688 253.96875 292.558594 229.425781 292.558594 C 204.886719 292.558594 180.773438 289.054688 163.707031 279.375 C 116.546875 252.636719 102.3125 203.878906 102.3125 203.878906 L 102.335938 203.667969 C 101.636719 202.433594 100.980469 201.175781 100.351562 199.902344 C 99.664062 198.492188 99.019531 197.0625 98.441406 195.601562 C 97.859375 194.136719 97.328125 192.664062 96.929688 191.109375 C 96.789062 190.554688 97.121094 189.992188 97.675781 189.851562 C 98.132812 189.730469 98.597656 189.941406 98.824219 190.328125 L 98.832031 190.339844 C 100.359375 192.945312 101.671875 195.667969 102.925781 198.40625 L 108.472656 149.128906 C 108.304688 148.761719 108.144531 148.390625 107.96875 148.023438 C 107.53125 147.085938 107.082031 146.152344 106.605469 145.230469 C 104.753906 141.53125 102.839844 137.859375 100.675781 134.351562 C 98.539062 130.832031 96.214844 127.421875 93.59375 124.28125 C 92.976562 123.453125 92.234375 122.757812 91.5625 121.984375 L 90.527344 120.855469 L 89.40625 119.816406 L 88.296875 118.765625 C 87.929688 118.40625 87.554688 118.0625 87.136719 117.773438 C 86.328125 117.164062 85.523438 116.542969 84.71875 115.90625 L 84.664062 115.863281 C 84.300781 115.578125 84.234375 115.050781 84.523438 114.6875 C 84.78125 114.359375 85.234375 114.277344 85.585938 114.472656 C 89.367188 116.570312 92.632812 119.441406 95.546875 122.570312 C 96.25 123.375 96.972656 124.164062 97.660156 124.984375 C 98.324219 125.816406 98.949219 126.679688 99.597656 127.527344 C 100.261719 128.367188 100.847656 129.253906 101.441406 130.136719 C 102.03125 131.019531 102.65625 131.886719 103.195312 132.800781 C 105.46875 136.394531 107.410156 140.171875 109.171875 144.019531 C 109.601562 144.984375 110.027344 145.957031 110.4375 146.929688 C 112.601562 150.789062 116.667969 157.925781 118.644531 160.621094 C 129.375 175.234375 142.59375 185.425781 162.734375 182.046875 C 185.308594 178.257812 207.960938 168.109375 229.425781 168.109375 C 250.894531 168.109375 273.546875 178.257812 296.117188 182.046875 C 316.257812 185.425781 329.480469 175.234375 340.210938 160.621094 C 342.554688 157.425781 347.839844 147.980469 349.398438 145.164062 C 349.558594 144.800781 349.710938 144.433594 349.871094 144.066406 C 350.699219 142.121094 351.660156 140.234375 352.628906 138.351562 L 354.132812 135.550781 L 355.738281 132.800781 C 357.976562 129.191406 360.390625 125.65625 363.296875 122.492188 C 363.976562 121.664062 364.800781 120.957031 365.546875 120.1875 L 366.691406 119.054688 L 367.933594 118.011719 L 369.195312 117 C 369.609375 116.652344 370.03125 116.324219 370.503906 116.046875 C 371.414062 115.453125 372.332031 114.875 373.25 114.3125 C 373.730469 114.019531 374.359375 114.171875 374.652344 114.652344 C 374.925781 115.097656 374.816406 115.671875 374.414062 115.988281" fill="#f4dbb5"/></g><g clip-path="url(#a)" id="change3_1"><path d="M 147.476562 257.675781 C 147.652344 256.796875 147.710938 255.894531 147.601562 254.984375 C 147.121094 250.945312 143.566406 249.339844 140.460938 247.449219 C 139.9375 247.128906 139.449219 246.769531 138.945312 246.429688 C 139.453125 247.1875 139.964844 247.925781 140.46875 248.652344 C 141.429688 249.265625 142.386719 249.886719 143.335938 250.550781 C 145.75 252.246094 146.566406 254.324219 146.386719 256.417969 C 146.75 256.851562 147.113281 257.269531 147.476562 257.675781 Z M 226.472656 178.582031 C 227.363281 177.738281 228.148438 176.824219 228.882812 175.875 C 228.550781 175.886719 228.207031 175.882812 227.882812 175.898438 C 227.699219 175.910156 227.515625 175.929688 227.335938 175.941406 C 223.925781 179.976562 218.878906 183 213.5 182.5625 C 210.867188 182.347656 209.152344 181.285156 208.050781 179.75 C 207.65625 179.867188 207.265625 179.988281 206.878906 180.113281 C 210.964844 186.046875 221.070312 183.683594 226.472656 178.582031 Z M 279.839844 278.46875 C 280.9375 278.066406 282.011719 277.648438 283.0625 277.214844 C 283.402344 276.929688 283.742188 276.648438 284.101562 276.386719 C 284.78125 275.878906 285.5 275.429688 286.257812 275.046875 C 286.707031 275.085938 287.074219 275.15625 287.402344 275.242188 C 288.160156 274.867188 288.90625 274.484375 289.632812 274.089844 C 288.027344 271.652344 283.671875 274.914062 279.839844 278.46875 Z M 236.902344 283.40625 C 239.011719 284.039062 241.140625 284.628906 243.277344 285.128906 C 244.78125 285.0625 246.273438 284.980469 247.75 284.875 C 244.949219 284.390625 242.171875 283.683594 239.441406 282.902344 C 239.402344 282.789062 239.332031 282.683594 239.191406 282.605469 C 236.730469 281.25 234.09375 280.351562 231.269531 280.171875 C 229.355469 280.046875 225.984375 279.886719 224.589844 281.574219 C 223.390625 283.027344 223.964844 284.125 225.160156 284.972656 C 226.222656 285.035156 227.28125 285.085938 228.34375 285.132812 C 226.714844 284.648438 223.398438 283.640625 227.378906 281.550781 C 228.554688 280.933594 230.90625 281.296875 232.230469 281.464844 C 233.738281 281.652344 235.160156 282.078125 236.535156 282.652344 C 236.4375 282.941406 236.523438 283.292969 236.902344 283.40625 Z M 292.078125 267.859375 C 293.527344 268.324219 294.363281 269.496094 294.761719 270.855469 C 295.117188 270.597656 295.46875 270.335938 295.828125 270.058594 C 295.359375 268.71875 294.433594 267.578125 292.824219 266.894531 C 288.144531 264.898438 283.824219 271.132812 280.871094 273.734375 C 277.601562 276.617188 274.054688 279.3125 270.207031 281.40625 C 271.617188 281.054688 273.011719 280.6875 274.363281 280.285156 C 275.097656 279.800781 275.824219 279.304688 276.53125 278.785156 C 280.402344 275.945312 283.597656 272.433594 287.292969 269.414062 C 288.566406 268.371094 290.328125 267.300781 292.078125 267.859375 Z M 310.210938 213.824219 C 309.925781 214.074219 309.636719 214.320312 309.351562 214.570312 L 307.621094 216.070312 C 308.679688 217.046875 309.753906 217.128906 310.835938 216.320312 C 313.070312 215.117188 314.585938 212.796875 316.601562 211.277344 C 319.734375 208.921875 323.316406 207.664062 327.1875 207.230469 C 328.390625 207.09375 329.65625 207.066406 330.832031 206.734375 C 334.542969 205.679688 335.558594 201.417969 331.5 199.789062 C 328.839844 198.726562 324.285156 198.585938 321.734375 199.964844 C 319.382812 201.238281 317.894531 203.695312 316.402344 205.816406 C 315.230469 207.480469 314.058594 209.144531 312.890625 210.808594 C 313.050781 211.027344 313.078125 211.332031 312.816406 211.5625 C 312.425781 211.902344 312.035156 212.238281 311.644531 212.578125 C 311.402344 212.925781 311.15625 213.273438 310.914062 213.621094 C 310.726562 213.882812 310.445312 213.914062 310.210938 213.824219 Z M 310.710938 211.808594 C 313.140625 208.238281 315.46875 204.394531 318.363281 201.230469 C 320.65625 198.726562 323.371094 197.738281 326.742188 197.890625 C 329.605469 198.019531 333.40625 198.300781 335.066406 201.03125 C 336.320312 203.101562 335.398438 205.425781 333.5625 206.777344 C 330.632812 208.933594 326.339844 208.195312 323 209.273438 C 320.578125 210.050781 318.296875 211.324219 316.375 212.988281 C 314.941406 214.230469 313.769531 215.785156 312.199219 216.863281 C 310.984375 217.695312 307.203125 219.351562 306.136719 217.3125 C 305.867188 216.800781 306.0625 216.277344 306.273438 215.8125 C 306.667969 214.957031 307.839844 214.300781 308.546875 213.683594 C 309.265625 213.058594 309.988281 212.433594 310.710938 211.808594 Z M 311.269531 207.585938 C 309.8125 209.660156 308.351562 211.734375 306.894531 213.808594 C 307.0625 214.074219 307.066406 214.472656 306.722656 214.695312 C 306.40625 214.90625 306.097656 215.125 305.804688 215.355469 C 305.09375 216.367188 304.378906 217.378906 303.667969 218.394531 C 303.554688 218.550781 303.40625 218.628906 303.257812 218.644531 C 302.851562 220.519531 304.738281 221.925781 306.792969 221.535156 C 309.019531 221.113281 310.835938 219.601562 312.441406 218.105469 C 314.585938 216.109375 316.515625 214.054688 319.3125 212.980469 C 325.183594 210.730469 336.238281 213.214844 338.855469 205.675781 C 340.625 200.585938 336.25 196.085938 331.765625 194.644531 C 326.90625 193.078125 321.902344 193.679688 318.449219 197.636719 C 315.777344 200.695312 313.605469 204.269531 311.269531 207.585938 Z M 313.238281 202.710938 C 315.617188 199.339844 317.988281 195.019531 322.019531 193.390625 C 328.203125 190.898438 337.59375 193.882812 339.871094 200.464844 C 342.40625 207.785156 335.601562 211.785156 329.347656 212.578125 C 324.519531 213.1875 319.90625 213.105469 315.980469 216.410156 C 313.265625 218.691406 311.074219 221.679688 307.46875 222.59375 C 305.550781 223.082031 302.015625 222.910156 301.519531 220.398438 C 301.097656 218.277344 303.105469 216.023438 304.894531 214.574219 C 307.675781 210.621094 310.457031 206.667969 313.238281 202.710938 Z M 348.449219 202.375 C 348.492188 202.300781 348.542969 202.21875 348.589844 202.148438 L 348.363281 200.136719 C 347.058594 198.21875 345.460938 196.464844 343.882812 195.007812 C 339.308594 190.78125 333.40625 186.664062 327.066406 185.425781 C 326.433594 185.75 325.800781 186.070312 325.152344 186.367188 C 330.214844 186.964844 334.875 189.453125 338.925781 192.441406 C 342.507812 195.085938 346.265625 198.386719 348.449219 202.375 Z M 337.90625 218.914062 C 335.765625 219.582031 333.636719 220.09375 331.804688 220.515625 C 312.914062 224.878906 296.789062 236.03125 281.964844 248.085938 C 274.179688 254.417969 266.828125 262.066406 258.167969 267.195312 C 248.097656 273.15625 237.363281 270.984375 226.703125 268.066406 C 207.160156 262.722656 187.101562 260.964844 167.34375 266.4375 C 165.3125 267 163.308594 267.648438 161.324219 268.355469 C 161.78125 268.613281 162.253906 268.863281 162.722656 269.113281 C 182.328125 262.425781 203.617188 263.015625 223.496094 268.429688 C 232.613281 270.910156 242.4375 274.03125 251.867188 271.292969 C 261.050781 268.628906 268.226562 261.136719 275.34375 255.136719 C 290.828125 242.082031 307.277344 228.863281 327.015625 223.003906 C 329.957031 222.128906 333.355469 221.546875 336.6875 220.734375 C 337.097656 220.125 337.507812 219.515625 337.90625 218.914062 Z M 186.242188 257.484375 C 223.746094 266.882812 266.496094 259.066406 291.542969 227.636719 C 297.21875 220.519531 300.96875 212.660156 304.390625 204.296875 C 306.511719 199.109375 309.277344 193.519531 313.421875 189.953125 C 312.683594 190.078125 311.945312 190.203125 311.203125 190.292969 C 308.480469 193.082031 306.433594 196.671875 304.800781 200.292969 C 300.824219 209.105469 297.574219 217.761719 291.65625 225.550781 C 285.535156 233.609375 277.839844 240.457031 269.277344 245.828125 C 251.375 257.058594 230.078125 261.316406 209.128906 259.921875 C 188.554688 258.554688 166.277344 252.488281 149.765625 239.6875 C 141.796875 233.511719 135.929688 225.589844 132.226562 216.230469 C 128.890625 207.789062 126.875 198.824219 122.8125 190.671875 C 121.28125 187.605469 119.425781 184.753906 117.21875 182.152344 L 116.921875 183.640625 C 127.566406 196.867188 127.898438 215.664062 137.96875 229.402344 C 149.269531 244.820312 168.226562 252.972656 186.242188 257.484375 Z M 345.894531 177.929688 C 344.183594 176.917969 342.394531 176.015625 340.554688 175.234375 C 339.96875 175.867188 339.367188 176.484375 338.753906 177.078125 C 341.304688 178.0625 343.828125 179.332031 346.222656 180.859375 Z M 147.730469 225.363281 C 159.605469 240.4375 179.914062 248.929688 198.085938 253.210938 C 234.484375 261.785156 278.136719 249.753906 293.882812 212.851562 C 296.894531 205.785156 298.390625 197.621094 301.644531 190.5 C 300.847656 190.441406 300.058594 190.359375 299.265625 190.257812 C 298.230469 192.621094 297.351562 195.066406 296.558594 197.5 C 293.097656 208.109375 289.773438 218.089844 282.578125 226.847656 C 267.535156 245.15625 243.992188 254.140625 220.652344 253.722656 C 196.097656 253.285156 165.242188 243.804688 149.5 223.75 C 141.34375 213.363281 142.089844 201.519531 139.511719 189.585938 C 138.46875 189.109375 137.445312 188.59375 136.441406 188.046875 C 137.417969 191.957031 137.960938 195.96875 138.367188 199.445312 C 139.492188 209.046875 141.660156 217.652344 147.730469 225.363281 Z M 330.226562 230.128906 C 331.160156 228.804688 332.078125 227.484375 332.984375 226.179688 C 316.570312 232.546875 303.378906 242.945312 290.722656 255.582031 C 282.960938 263.328125 274.707031 271.261719 264.019531 274.675781 C 253.707031 277.96875 242.703125 276.746094 232.273438 274.707031 C 210.972656 270.546875 191.210938 265.144531 169.84375 272.359375 C 169.761719 272.390625 169.675781 272.425781 169.59375 272.453125 C 170.699219 272.941406 171.832031 273.417969 172.988281 273.882812 C 174.019531 273.574219 175.054688 273.269531 176.101562 273.003906 C 197.878906 267.476562 217.800781 275.296875 239.207031 278.300781 C 248.367188 279.585938 257.816406 279.5625 266.585938 276.304688 C 275.886719 272.847656 283.390625 266.171875 290.359375 259.3125 C 298.390625 251.40625 306.125 243.4375 315.71875 237.367188 C 320.425781 234.386719 325.269531 232.109375 330.226562 230.128906 Z M 215.378906 201.34375 C 227.203125 203.582031 234.871094 194.378906 238.210938 184.191406 C 239.050781 181.628906 239.707031 179.011719 240.300781 176.371094 C 238.6875 176.183594 237.085938 176.039062 235.492188 175.945312 C 235.207031 177.136719 234.914062 178.324219 234.59375 179.507812 C 232.675781 186.675781 229.3125 195.335938 221.003906 196.757812 C 213.3125 198.074219 205.824219 192.25 202.054688 186.058594 C 201.335938 184.875 200.710938 183.644531 200.160156 182.386719 C 198.699219 182.910156 197.257812 183.441406 195.835938 183.980469 C 199.542969 192.359375 205.800781 199.527344 215.378906 201.34375 Z M 222.777344 224.621094 C 235.246094 223.871094 245.878906 216.957031 249.96875 204.898438 C 252.832031 196.457031 252.425781 187.378906 253.003906 178.597656 C 251.9375 178.359375 250.875 178.132812 249.816406 177.917969 C 249.023438 192.78125 249.371094 209.269531 235.941406 217.234375 C 221.96875 225.519531 203.613281 220.046875 192.824219 209.199219 C 187.171875 203.515625 183.183594 196.933594 180.046875 189.917969 C 178.875 190.324219 177.714844 190.707031 176.570312 191.066406 C 179.476562 197.480469 183.042969 203.550781 187.683594 208.917969 C 196.507812 219.136719 209.101562 225.441406 222.777344 224.621094 Z M 181.9375 235.285156 C 196.695312 243.5625 214.167969 246.109375 230.769531 243.089844 C 247.554688 240.035156 266.804688 230.554688 274.160156 214.269531 C 278.234375 205.253906 278.003906 195.203125 279.289062 185.578125 C 277.359375 185.046875 275.4375 184.515625 273.535156 183.980469 C 272.589844 190.882812 272.484375 197.933594 270.980469 204.753906 C 268.484375 216.070312 260.734375 223.882812 250.914062 229.496094 C 234.136719 239.085938 213.214844 241.042969 194.96875 234.664062 C 176.144531 228.082031 161 212.367188 154.332031 193.652344 C 152.089844 193.40625 149.875 193.019531 147.714844 192.476562 C 148.351562 194.644531 149.089844 196.800781 149.964844 198.9375 C 156.167969 214.089844 167.640625 227.269531 181.9375 235.285156 Z M 444.160156 498.835938 L 0 498.835938 C 0 498.835938 10.5 454.59375 19.570312 435.898438 C 46.152344 381.113281 107.261719 345.699219 162.46875 330.121094 L 162.132812 332.867188 C 148.527344 340.714844 140.375 353.160156 140.179688 372.238281 C 139.714844 417.363281 174.292969 444.96875 226.214844 444.96875 C 278.136719 444.96875 312.71875 417.363281 312.253906 372.238281 C 312.054688 352.972656 303.742188 340.476562 289.898438 332.640625 L 289.78125 331.773438 C 345.84375 348.144531 406.355469 383.417969 423.898438 439.441406 C 428.589844 454.421875 444.160156 498.835938 444.160156 498.835938" fill="#e38b61"/></g><g id="change4_1"><path d="M 291.425781 152.976562 C 307.886719 152.976562 321.230469 144.484375 321.230469 134.011719 C 321.230469 123.535156 307.886719 115.046875 291.425781 115.046875 C 274.96875 115.046875 261.625 123.535156 261.625 134.011719 C 261.625 144.484375 274.96875 152.976562 291.425781 152.976562 Z M 170.644531 152.976562 C 187.101562 152.976562 200.445312 144.484375 200.445312 134.011719 C 200.445312 123.535156 187.101562 115.046875 170.644531 115.046875 C 154.183594 115.046875 140.84375 123.535156 140.84375 134.011719 C 140.84375 144.484375 154.183594 152.976562 170.644531 152.976562 Z M 426.953125 499.824219 C 426.414062 499.972656 425.859375 499.660156 425.699219 499.125 L 425.695312 499.109375 C 423.703125 492.316406 421.515625 485.546875 419.226562 478.832031 C 416.9375 472.113281 414.554688 465.429688 411.988281 458.820312 C 409.40625 452.222656 406.683594 445.679688 403.691406 439.277344 C 400.679688 432.898438 397.40625 426.597656 393.449219 420.875 C 389.390625 415.199219 384.636719 409.984375 379.539062 405.125 C 376.988281 402.691406 374.339844 400.355469 371.648438 398.070312 C 368.941406 395.800781 366.175781 393.601562 363.378906 391.433594 C 357.769531 387.117188 351.984375 383.023438 346.0625 379.128906 C 340.773438 375.621094 335.386719 372.230469 329.898438 369.0625 C 330.925781 376.234375 330.953125 383.539062 330.058594 390.730469 C 332.257812 391.921875 334.394531 393.171875 336.519531 394.464844 C 338.953125 395.941406 341.34375 397.488281 343.691406 399.097656 C 348.390625 402.3125 353.003906 405.667969 357.371094 409.34375 C 366.121094 416.636719 374.320312 424.832031 380.488281 434.617188 C 383.566406 439.527344 385.945312 444.75 388.113281 450.015625 C 390.265625 455.292969 392.183594 460.644531 393.964844 466.035156 C 395.753906 471.425781 397.378906 476.863281 398.90625 482.324219 C 400.433594 487.785156 401.875 493.261719 403.164062 498.796875 C 403.269531 499.25 402.988281 499.699219 402.535156 499.804688 C 402.09375 499.90625 401.652344 499.640625 401.535156 499.203125 L 401.535156 499.191406 C 398.644531 488.289062 395.378906 477.457031 391.714844 466.796875 C 389.875 461.46875 387.902344 456.1875 385.714844 451.015625 C 383.496094 445.863281 381.113281 440.769531 378.140625 436.105469 C 375.128906 431.449219 371.585938 427.117188 367.734375 423.074219 C 363.90625 419.007812 359.804688 415.179688 355.503906 411.578125 C 347.398438 404.792969 338.742188 398.5625 329.738281 393.003906 C 327.207031 409.054688 320.105469 424.253906 309.894531 436.8125 C 299.398438 449.679688 285.648438 459.792969 270.394531 466.195312 C 262.769531 469.40625 254.808594 471.8125 246.675781 473.230469 C 238.730469 474.632812 230.679688 475.246094 222.640625 475.25 C 222.476562 475.363281 222.292969 475.441406 222.082031 475.441406 C 213.84375 475.457031 205.59375 474.835938 197.457031 473.390625 C 189.320312 471.941406 181.347656 469.53125 173.722656 466.304688 C 158.484375 459.835938 144.71875 449.726562 134.269531 436.8125 C 124.054688 424.144531 116.925781 408.863281 114.492188 392.71875 C 105.359375 398.226562 96.617188 404.480469 88.476562 411.359375 C 79.9375 418.625 71.957031 426.703125 66.003906 436.09375 C 63.058594 440.78125 60.746094 445.902344 58.597656 451.078125 C 56.496094 456.28125 54.511719 461.546875 52.707031 466.882812 C 49.109375 477.558594 45.820312 488.371094 42.808594 499.238281 L 42.804688 499.25 C 42.652344 499.792969 42.089844 500.113281 41.542969 499.960938 C 41.015625 499.816406 40.699219 499.28125 40.816406 498.753906 C 42.046875 493.199219 43.433594 487.707031 44.964844 482.238281 C 46.484375 476.769531 48.113281 471.332031 49.9375 465.949219 C 51.753906 460.566406 53.65625 455.199219 55.898438 449.953125 C 58.136719 444.710938 60.582031 439.515625 63.6875 434.628906 C 66.808594 429.769531 70.476562 425.324219 74.414062 421.183594 C 78.359375 417.039062 82.578125 413.1875 86.972656 409.5625 C 91.355469 405.921875 95.953125 402.558594 100.640625 399.34375 C 105.058594 396.339844 109.558594 393.496094 114.238281 390.878906 C 113.34375 383.679688 113.359375 376.363281 114.398438 369.1875 C 108.882812 372.332031 103.457031 375.699219 98.140625 379.191406 C 92.230469 383.105469 86.414062 387.148438 80.792969 391.449219 C 77.988281 393.601562 75.230469 395.816406 72.523438 398.085938 C 69.839844 400.378906 67.191406 402.714844 64.628906 405.132812 C 59.527344 409.984375 54.738281 415.171875 50.703125 420.867188 C 48.726562 423.722656 46.933594 426.753906 45.257812 429.84375 C 43.578125 432.9375 41.96875 436.078125 40.472656 439.277344 C 37.449219 445.664062 34.726562 452.210938 32.160156 458.816406 C 29.585938 465.421875 27.144531 472.089844 24.859375 478.808594 C 22.5625 485.523438 20.3125 492.269531 18.285156 499.0625 L 18.28125 499.070312 C 18.148438 499.515625 17.683594 499.765625 17.238281 499.632812 C 16.804688 499.503906 16.554688 499.050781 16.667969 498.617188 C 20.328125 484.820312 24.636719 471.230469 29.605469 457.839844 C 32.136719 451.164062 34.828125 444.542969 37.835938 438.042969 C 40.84375 431.542969 44.15625 425.164062 48.296875 419.175781 C 52.503906 413.261719 57.425781 407.960938 62.640625 403.027344 C 67.863281 398.09375 73.4375 393.578125 79.148438 389.277344 C 90.464844 380.8125 102.398438 373.296875 114.820312 366.574219 C 116.28125 358.566406 119.023438 350.796875 122.988281 343.707031 C 123.214844 343.304688 123.722656 343.15625 124.128906 343.382812 C 124.527344 343.605469 124.671875 344.109375 124.457031 344.511719 C 116.867188 358.832031 114.519531 375.554688 116.921875 391.449219 C 119.382812 407.375 126.371094 422.5 136.566406 434.949219 C 141.65625 441.183594 147.496094 446.808594 153.953125 451.625 C 160.402344 456.460938 167.453125 460.46875 174.839844 463.699219 C 182.230469 466.925781 189.988281 469.367188 197.9375 470.871094 C 205.871094 472.445312 213.964844 473.238281 222.082031 473.390625 L 222.097656 473.390625 C 222.292969 473.394531 222.460938 473.46875 222.613281 473.5625 C 230.5625 473.375 238.484375 472.582031 246.253906 471.027344 C 254.207031 469.496094 261.972656 467.050781 269.367188 463.808594 C 276.757812 460.554688 283.796875 456.515625 290.242188 451.671875 C 296.691406 446.835938 302.542969 441.214844 307.597656 434.949219 C 317.734375 422.464844 324.730469 407.351562 327.125 391.433594 C 328.304688 383.484375 328.328125 375.355469 327.058594 367.417969 C 325.835938 359.480469 323.316406 351.726562 319.539062 344.601562 L 319.539062 344.597656 C 319.273438 344.097656 319.464844 343.476562 319.964844 343.210938 C 320.457031 342.949219 321.066406 343.132812 321.339844 343.617188 C 325.363281 350.835938 328.136719 358.753906 329.570312 366.90625 C 341.914062 373.492188 353.75 380.949219 365 389.292969 C 370.726562 393.578125 376.265625 398.132812 381.511719 403.039062 C 386.730469 407.960938 391.691406 413.234375 395.871094 419.171875 C 399.992188 425.171875 403.28125 431.558594 406.324219 438.042969 C 409.363281 444.53125 412.054688 451.15625 414.566406 457.835938 C 419.589844 471.207031 423.914062 484.792969 427.675781 498.566406 C 427.820312 499.113281 427.5 499.675781 426.953125 499.824219" fill="#fff"/></g><g id="change5_1"><path d="M 349.597656 460.394531 C 349.566406 459.894531 349.167969 459.480469 348.652344 459.449219 C 348.09375 459.410156 347.613281 459.835938 347.574219 460.394531 C 347.371094 463.597656 347.28125 466.800781 347.195312 470.007812 C 347.148438 473.210938 347.101562 476.414062 347.105469 479.617188 C 347.140625 482.820312 347.117188 486.023438 347.207031 489.226562 C 347.269531 492.429688 347.359375 495.636719 347.53125 498.835938 C 347.5625 499.371094 347.988281 499.808594 348.53125 499.839844 C 349.113281 499.871094 349.613281 499.421875 349.644531 498.835938 C 349.816406 495.636719 349.90625 492.429688 349.96875 489.226562 C 350.058594 486.023438 350.03125 482.820312 350.070312 479.617188 C 350.074219 476.414062 350.027344 473.210938 349.976562 470.007812 C 349.894531 466.800781 349.804688 463.597656 349.597656 460.394531 Z M 91.175781 460.394531 C 91.144531 459.894531 90.742188 459.480469 90.230469 459.449219 C 89.667969 459.410156 89.1875 459.835938 89.152344 460.394531 C 88.945312 463.597656 88.855469 466.800781 88.773438 470.007812 C 88.722656 473.210938 88.679688 476.414062 88.679688 479.617188 C 88.71875 482.820312 88.691406 486.023438 88.78125 489.226562 C 88.847656 492.429688 88.933594 495.636719 89.105469 498.835938 C 89.136719 499.371094 89.5625 499.808594 90.105469 499.839844 C 90.691406 499.871094 91.1875 499.421875 91.21875 498.835938 C 91.390625 495.636719 91.480469 492.429688 91.546875 489.226562 C 91.632812 486.023438 91.609375 482.820312 91.644531 479.617188 C 91.648438 476.414062 91.601562 473.210938 91.554688 470.007812 C 91.46875 466.800781 91.382812 463.597656 91.175781 460.394531 Z M 86.691406 157.71875 C 86.574219 156.917969 86.46875 156.113281 86.332031 155.3125 C 86.230469 154.507812 85.949219 153.734375 85.761719 152.941406 C 85.414062 151.339844 84.71875 149.839844 84.132812 148.304688 C 82.722656 145.328125 80.832031 142.550781 78.457031 140.242188 C 77.296875 139.0625 75.964844 138.0625 74.597656 137.144531 C 73.882812 136.726562 73.183594 136.296875 72.429688 135.941406 C 71.683594 135.554688 70.949219 135.257812 70.058594 134.976562 C 69.460938 134.785156 68.792969 135.027344 68.46875 135.59375 C 68.089844 136.242188 68.3125 137.078125 68.964844 137.453125 L 69.113281 137.539062 C 69.355469 137.679688 69.691406 137.863281 69.980469 138.058594 C 70.285156 138.234375 70.585938 138.429688 70.882812 138.636719 C 71.484375 139.023438 72.042969 139.492188 72.613281 139.929688 C 73.152344 140.40625 73.734375 140.828125 74.230469 141.355469 C 74.753906 141.851562 75.28125 142.335938 75.742188 142.886719 C 77.449219 144.757812 78.875 146.855469 80.070312 149.089844 C 79.234375 149.480469 78.4375 149.949219 77.734375 150.539062 C 76.546875 151.488281 75.5 152.613281 74.671875 153.863281 C 73.835938 155.109375 73.148438 156.433594 72.664062 157.820312 C 72.175781 159.222656 71.847656 160.613281 71.796875 162.167969 C 71.785156 162.582031 72.003906 162.988281 72.394531 163.199219 C 72.941406 163.496094 73.628906 163.292969 73.925781 162.742188 L 73.984375 162.632812 C 74.578125 161.535156 75.195312 160.355469 75.835938 159.273438 C 76.488281 158.183594 77.160156 157.132812 77.898438 156.148438 C 78.617188 155.148438 79.421875 154.246094 80.253906 153.371094 C 80.640625 152.953125 81.054688 152.570312 81.480469 152.191406 C 81.722656 152.792969 81.949219 153.398438 82.121094 154.027344 C 82.328125 154.726562 82.625 155.394531 82.757812 156.121094 C 82.90625 156.835938 83.082031 157.550781 83.246094 158.269531 C 83.449219 158.980469 83.507812 159.71875 83.625 160.453125 L 83.953125 162.660156 C 84.105469 164.148438 84.148438 165.652344 84.316406 167.164062 L 84.328125 167.285156 C 84.386719 167.789062 84.789062 168.210938 85.316406 168.269531 C 85.929688 168.335938 86.480469 167.894531 86.550781 167.28125 C 86.726562 165.710938 86.851562 164.125 86.945312 162.527344 L 86.875 160.125 C 86.851562 159.320312 86.835938 158.515625 86.691406 157.71875 Z M 390.367188 135.921875 C 390.175781 135.335938 389.546875 135.015625 388.960938 135.207031 C 385.714844 136.269531 382.988281 138.070312 380.585938 140.347656 C 378.1875 142.609375 376.265625 145.355469 374.800781 148.304688 C 373.445312 151.304688 372.488281 154.472656 372.09375 157.695312 C 371.824219 159.296875 371.867188 160.917969 371.773438 162.519531 C 371.859375 164.121094 371.96875 165.714844 372.136719 167.296875 C 372.199219 167.921875 372.695312 168.4375 373.34375 168.507812 C 374.09375 168.589844 374.765625 168.046875 374.847656 167.296875 L 374.863281 167.152344 C 375.027344 165.644531 375.050781 164.152344 375.191406 162.671875 L 375.492188 160.46875 C 375.589844 159.738281 375.644531 159 375.835938 158.292969 C 376 157.578125 376.144531 156.859375 376.289062 156.144531 C 376.40625 155.421875 376.703125 154.753906 376.890625 154.050781 C 377.058594 153.351562 377.300781 152.679688 377.566406 152.015625 C 377.992188 152.414062 378.402344 152.816406 378.777344 153.257812 C 379.589844 154.179688 380.367188 155.113281 381.035156 156.148438 C 381.71875 157.167969 382.355469 158.234375 382.960938 159.335938 L 384.703125 162.683594 L 384.777344 162.820312 C 385.015625 163.28125 385.511719 163.585938 386.066406 163.5625 C 386.824219 163.523438 387.414062 162.878906 387.378906 162.117188 C 387.300781 160.53125 386.941406 159.152344 386.40625 157.757812 C 385.875 156.382812 385.148438 155.070312 384.261719 153.863281 C 383.382812 152.652344 382.308594 151.558594 381.097656 150.652344 C 380.382812 150.089844 379.578125 149.640625 378.746094 149.273438 C 379.914062 146.941406 381.347656 144.746094 383.082031 142.78125 C 384.023438 141.683594 385.09375 140.703125 386.199219 139.757812 C 387.300781 138.835938 388.5625 137.976562 389.734375 137.308594 L 389.859375 137.234375 C 390.308594 136.980469 390.53125 136.433594 390.367188 135.921875 Z M 219.160156 143.417969 C 218.597656 143.351562 218.089844 143.757812 218.023438 144.320312 L 218.019531 144.363281 C 217.773438 146.492188 217.453125 148.683594 217.132812 150.828125 C 216.800781 152.984375 216.429688 155.132812 215.992188 157.269531 C 215.574219 159.40625 215.078125 161.527344 214.527344 163.636719 C 213.996094 165.753906 213.351562 167.835938 212.730469 169.949219 L 212.722656 169.976562 C 212.609375 170.355469 212.773438 170.769531 213.136719 170.960938 C 213.546875 171.175781 214.054688 171.019531 214.273438 170.609375 C 215.328125 168.613281 216.296875 166.550781 217.027344 164.40625 C 217.800781 162.277344 218.40625 160.089844 218.894531 157.878906 C 219.386719 155.667969 219.746094 153.433594 219.953125 151.179688 C 220.175781 148.917969 220.234375 146.675781 220.066406 144.363281 C 220.035156 143.878906 219.660156 143.472656 219.160156 143.417969 Z M 291.425781 115.046875 C 286.058594 115.046875 281.027344 115.953125 276.679688 117.53125 C 275.730469 118.757812 274.902344 120.121094 274.257812 121.632812 C 270.339844 130.855469 274.238281 141.691406 282.960938 145.832031 C 291.6875 149.972656 301.933594 145.851562 305.851562 136.628906 C 308.84375 129.589844 307.269531 121.621094 302.480469 116.398438 C 299.0625 115.527344 295.335938 115.046875 291.425781 115.046875 Z M 185.390625 117.53125 C 181.042969 115.953125 176.011719 115.046875 170.644531 115.046875 C 166.734375 115.046875 163.007812 115.527344 159.589844 116.398438 C 154.800781 121.621094 153.230469 129.589844 156.21875 136.628906 C 160.136719 145.851562 170.386719 149.972656 179.109375 145.832031 C 187.835938 141.691406 191.730469 130.855469 187.8125 121.632812 C 187.171875 120.121094 186.34375 118.757812 185.390625 117.53125 Z M 361.683594 129.222656 C 361.058594 130.035156 360.5 130.898438 359.933594 131.757812 C 359.375 132.621094 358.785156 133.464844 358.257812 134.351562 C 356.015625 137.8125 354.117188 141.496094 352.21875 145.179688 C 351.570312 146.433594 350.964844 147.707031 350.363281 148.988281 L 351.511719 159.171875 C 352.753906 159.242188 354.097656 159.136719 355.484375 158.851562 C 356.527344 147.269531 359.4375 135.007812 363.855469 126.296875 L 363.496094 126.738281 C 362.875 127.550781 362.292969 128.398438 361.683594 129.222656 Z M 374.652344 114.652344 C 374.691406 114.710938 374.703125 114.777344 374.726562 114.84375 C 374.746094 114.835938 374.765625 114.832031 374.78125 114.824219 C 373.582031 70.96875 348.625 28.492188 316.132812 12.796875 C 296.609375 3.363281 261.828125 0 228.882812 0 C 195.9375 0 161.152344 3.363281 141.632812 12.796875 C 109.214844 28.457031 84.292969 70.78125 82.988281 114.535156 C 83.207031 114.582031 83.421875 114.617188 83.640625 114.671875 C 83.898438 114.738281 84.15625 114.816406 84.414062 114.902344 C 84.441406 114.828125 84.46875 114.753906 84.523438 114.6875 C 84.78125 114.359375 85.234375 114.277344 85.585938 114.472656 C 89.367188 116.570312 92.632812 119.441406 95.546875 122.570312 C 96.25 123.375 96.972656 124.164062 97.660156 124.984375 C 98.324219 125.816406 98.949219 126.679688 99.597656 127.527344 C 100.261719 128.367188 100.847656 129.253906 101.441406 130.136719 C 102.03125 131.019531 102.65625 131.886719 103.195312 132.800781 C 105.46875 136.394531 107.410156 140.171875 109.171875 144.019531 C 109.601562 144.984375 110.027344 145.957031 110.4375 146.929688 C 111.265625 148.40625 112.367188 150.355469 113.527344 152.355469 C 119.050781 85.21875 149.453125 59.085938 149.453125 59.085938 L 308.308594 59.085938 C 308.308594 59.085938 339.214844 85.640625 344.371094 153.996094 C 346.433594 150.484375 348.515625 146.761719 349.398438 145.164062 C 349.558594 144.800781 349.710938 144.433594 349.871094 144.066406 C 350.699219 142.121094 351.660156 140.234375 352.628906 138.351562 L 354.132812 135.550781 L 355.738281 132.800781 C 357.976562 129.191406 360.390625 125.65625 363.296875 122.492188 C 363.976562 121.664062 364.800781 120.957031 365.546875 120.1875 L 366.691406 119.054688 L 367.933594 118.011719 L 369.195312 117 C 369.609375 116.652344 370.03125 116.324219 370.503906 116.046875 C 371.414062 115.453125 372.332031 114.875 373.25 114.3125 C 373.730469 114.019531 374.359375 114.171875 374.652344 114.652344 Z M 106.605469 145.230469 C 104.753906 141.53125 102.839844 137.859375 100.675781 134.351562 C 98.894531 131.417969 96.972656 128.570312 94.867188 125.882812 C 99.429688 134.664062 102.425781 147.230469 103.464844 159.054688 C 104.84375 159.234375 106.160156 159.234375 107.355469 159.0625 L 108.472656 149.128906 C 108.304688 148.761719 108.144531 148.390625 107.96875 148.023438 C 107.53125 147.085938 107.082031 146.152344 106.605469 145.230469 Z M 300.320312 93.007812 C 292.9375 89.910156 273.949219 87.101562 266.796875 93.039062 C 259.644531 98.980469 263.765625 102.125 272.640625 102.792969 C 277.894531 103.191406 298.972656 103.460938 305.703125 102.65625 C 309.011719 102.261719 309.375 96.804688 300.320312 93.007812 Z M 186.296875 102.792969 C 181.039062 103.191406 159.960938 103.460938 153.226562 102.65625 C 149.921875 102.261719 149.558594 96.804688 158.613281 93.007812 C 165.996094 89.910156 184.984375 87.101562 192.136719 93.039062 C 199.289062 98.980469 195.171875 102.125 186.296875 102.792969" fill="#1c212e"/></g></g></svg>