<?xml version="1.0" encoding="UTF-8"?><svg xmlns="http://www.w3.org/2000/svg" xmlns:xlink="http://www.w3.org/1999/xlink" height="499.4" preserveAspectRatio="xMidYMid meet" version="1.0" viewBox="0.0 0.0 428.9 499.4" width="428.9" zoomAndPan="magnify"><defs><clipPath id="a"><path d="M 21 0 L 417 0 L 417 499.351562 L 21 499.351562 Z M 21 0"/></clipPath><clipPath id="b"><path d="M 0 405 L 428.859375 405 L 428.859375 499.351562 L 0 499.351562 Z M 0 405"/></clipPath></defs><g><g clip-path="url(#a)" id="change1_1"><path d="M 318.585938 360.089844 L 319.070312 356.882812 L 302.425781 353.945312 L 301.703125 357.039062 L 280.460938 425.535156 L 312.566406 426.535156 Z M 279.632812 428.101562 L 279.453125 428.105469 L 267.59375 428.773438 C 266.804688 428.820312 266.078125 429.171875 265.554688 429.761719 C 265.027344 430.351562 264.765625 431.109375 264.808594 431.902344 C 264.902344 433.464844 266.199219 434.6875 267.761719 434.6875 L 267.9375 434.683594 L 279.800781 433.992188 C 281.421875 433.902344 282.667969 432.507812 282.574219 430.882812 C 282.488281 429.324219 281.195312 428.101562 279.632812 428.101562 Z M 303.332031 426.59375 C 303.265625 426.59375 303.203125 426.59375 303.128906 426.597656 L 291.257812 427.375 C 290.476562 427.429688 289.761719 427.789062 289.246094 428.382812 C 288.734375 428.976562 288.480469 429.734375 288.535156 430.515625 C 288.648438 432.046875 289.933594 433.246094 291.464844 433.246094 C 291.535156 433.246094 291.605469 433.242188 291.679688 433.238281 L 303.535156 432.386719 C 305.121094 432.273438 306.324219 430.886719 306.222656 429.304688 C 306.121094 427.78125 304.851562 426.59375 303.332031 426.59375 Z M 255.917969 429.371094 L 255.773438 429.375 L 243.90625 429.914062 C 242.261719 429.992188 240.992188 431.390625 241.070312 433.03125 C 241.144531 434.621094 242.449219 435.871094 244.042969 435.871094 L 244.160156 435.867188 L 256.054688 435.308594 C 257.6875 435.234375 258.957031 433.84375 258.882812 432.207031 C 258.8125 430.617188 257.507812 429.371094 255.917969 429.371094 Z M 407.152344 260.585938 C 396.757812 241.84375 401.144531 241.558594 408.15625 220.527344 C 415.164062 199.496094 392.132812 184.476562 387.125 169.457031 C 382.117188 154.433594 390.128906 132.402344 383.121094 116.382812 C 376.109375 100.359375 348.070312 93.347656 344.066406 61.304688 C 340.058594 29.257812 319.117188 23.109375 297 22.25 C 252.324219 20.511719 248.230469 -5.902344 196.859375 1.21875 C 165.3125 5.59375 166.816406 24.253906 136.773438 33.265625 C 106.730469 42.277344 108.734375 60.304688 102.726562 83.335938 C 96.71875 106.367188 51.652344 115.378906 54.65625 155.4375 C 57.660156 195.492188 66.808594 215.148438 34.628906 255.578125 C 0.460938 298.503906 45.644531 339.695312 45.644531 339.695312 L 394.378906 339.410156 C 394.378906 339.410156 433.945312 308.882812 407.152344 260.585938 Z M 392.117188 418.707031 C 392.03125 418.707031 391.941406 418.710938 391.855469 418.722656 L 385.957031 419.371094 L 385.914062 419.371094 L 385.851562 419.382812 C 384.527344 419.546875 383.585938 420.761719 383.75 422.085938 C 383.902344 423.292969 384.933594 424.207031 386.152344 424.207031 C 386.253906 424.207031 386.355469 424.199219 386.457031 424.1875 L 392.417969 423.4375 C 393.699219 423.273438 394.625 422.09375 394.476562 420.816406 C 394.34375 419.613281 393.328125 418.707031 392.117188 418.707031 Z M 232.195312 430.382812 L 220.207031 430.800781 C 219.40625 430.828125 218.667969 431.167969 218.121094 431.753906 C 217.574219 432.339844 217.292969 433.101562 217.320312 433.902344 C 217.378906 435.523438 218.695312 436.792969 220.316406 436.792969 L 232.300781 436.363281 C 233.101562 436.335938 233.839844 435.996094 234.382812 435.414062 C 234.925781 434.828125 235.210938 434.066406 235.183594 433.269531 C 235.128906 431.652344 233.816406 430.382812 232.195312 430.382812 Z M 350.65625 422.839844 C 350.578125 422.839844 350.5 422.84375 350.40625 422.851562 L 338.550781 423.894531 C 337.039062 424.042969 335.929688 425.390625 336.078125 426.90625 C 336.214844 428.324219 337.394531 429.394531 338.816406 429.394531 C 338.90625 429.394531 338.996094 429.386719 339.089844 429.378906 L 350.917969 428.226562 C 352.386719 428.082031 353.472656 426.769531 353.34375 425.300781 C 353.222656 423.898438 352.066406 422.839844 350.65625 422.839844 Z M 332.066406 471.128906 C 331.8125 470.023438 330.84375 469.25 329.621094 469.25 C 329.617188 469.25 329.617188 469.25 329.617188 469.25 C 328.28125 469.300781 327.234375 470.425781 327.28125 471.761719 C 327.46875 476.847656 328.03125 481.730469 328.558594 485.835938 C 329.089844 489.835938 330.949219 499.347656 330.949219 499.347656 L 335.683594 499.351562 C 335.683594 499.351562 335.71875 499.21875 335.714844 499.152344 C 335.613281 494.058594 335.042969 489.164062 334.496094 485.046875 C 333.9375 480.949219 333.210938 476.089844 332.066406 471.128906 Z M 329.800781 427.445312 C 329.6875 425.992188 328.460938 424.855469 327.003906 424.855469 C 326.933594 424.855469 326.863281 424.855469 326.777344 424.863281 L 314.917969 425.769531 C 314.15625 425.832031 313.46875 426.1875 312.976562 426.769531 C 312.484375 427.355469 312.25 428.09375 312.316406 428.851562 C 312.4375 430.316406 313.6875 431.464844 315.15625 431.464844 C 315.234375 431.464844 315.316406 431.460938 315.398438 431.453125 L 327.238281 430.453125 C 328.769531 430.324219 329.914062 428.972656 329.800781 427.445312 Z M 374.28125 420.605469 C 374.199219 420.605469 374.117188 420.609375 374.023438 420.617188 L 362.277344 421.769531 L 362.21875 421.769531 L 362.164062 421.777344 C 360.734375 421.941406 359.707031 423.234375 359.867188 424.660156 C 360.019531 425.980469 361.132812 426.976562 362.457031 426.976562 C 362.554688 426.976562 362.652344 426.972656 362.753906 426.960938 L 374.566406 425.617188 C 375.921875 425.460938 376.914062 424.230469 376.78125 422.875 C 376.65625 421.582031 375.582031 420.605469 374.28125 420.605469 Z M 95.550781 469.804688 C 95.398438 469.773438 95.246094 469.761719 95.09375 469.761719 C 93.96875 469.761719 92.992188 470.5625 92.773438 471.671875 C 91.8125 476.558594 91.351562 481.367188 91.027344 485.425781 C 90.722656 489.464844 90.421875 494.265625 90.507812 499.253906 C 90.507812 499.285156 90.507812 499.347656 90.507812 499.347656 L 95.367188 499.347656 C 95.367188 499.347656 96.664062 489.863281 97 485.898438 C 97.324219 481.84375 97.632812 477.027344 97.460938 472.042969 C 97.421875 470.9375 96.636719 470.015625 95.550781 469.804688 Z M 92.304688 434.394531 C 92.335938 432.980469 91.210938 431.808594 89.789062 431.777344 L 77.867188 431.519531 C 76.523438 431.519531 75.4375 432.570312 75.386719 433.914062 C 75.363281 434.578125 75.601562 435.207031 76.050781 435.691406 C 76.503906 436.179688 77.117188 436.457031 77.78125 436.480469 L 89.746094 436.898438 C 91.128906 436.898438 92.277344 435.773438 92.304688 434.394531 Z M 42.398438 430.324219 L 36.402344 430.015625 L 36.292969 430.015625 C 35.179688 430.015625 34.25 430.886719 34.175781 431.996094 C 34.136719 432.5625 34.320312 433.109375 34.691406 433.535156 C 35.066406 433.964844 35.582031 434.222656 36.148438 434.261719 L 42.183594 434.671875 L 42.296875 434.675781 C 43.453125 434.675781 44.410156 433.769531 44.46875 432.609375 C 44.496094 432.03125 44.300781 431.472656 43.910156 431.039062 C 43.519531 430.609375 42.988281 430.355469 42.398438 430.324219 Z M 66.082031 431.210938 L 54.140625 430.816406 C 52.925781 430.816406 51.929688 431.765625 51.867188 432.980469 C 51.804688 434.234375 52.773438 435.304688 54.027344 435.367188 L 66.015625 435.96875 C 67.304688 435.96875 68.347656 434.960938 68.394531 433.667969 C 68.414062 433.03125 68.183594 432.429688 67.75 431.964844 C 67.316406 431.5 66.726562 431.230469 66.082031 431.210938 Z M 160.945312 432.101562 L 149.085938 432.179688 C 148.324219 432.179688 147.613281 432.480469 147.074219 433.015625 C 146.539062 433.554688 146.246094 434.269531 146.246094 435.03125 C 146.25 436.59375 147.527344 437.867188 149.089844 437.867188 L 160.992188 437.84375 C 162.574219 437.832031 163.855469 436.535156 163.84375 434.953125 C 163.832031 433.382812 162.546875 432.101562 160.945312 432.101562 Z M 208.375 431.183594 C 208.375 431.183594 196.511719 431.507812 196.511719 431.507812 C 195.726562 431.523438 194.992188 431.847656 194.449219 432.414062 C 193.90625 432.984375 193.617188 433.730469 193.636719 434.515625 C 193.671875 436.105469 194.992188 437.398438 196.578125 437.398438 L 208.542969 437.125 C 210.179688 437.078125 211.476562 435.710938 211.433594 434.074219 C 211.390625 432.453125 210.085938 431.183594 208.375 431.183594 Z M 113.507812 432.121094 L 101.601562 431.984375 C 100.1875 431.984375 99.011719 433.132812 98.980469 434.546875 C 98.964844 435.246094 99.222656 435.910156 99.707031 436.417969 C 100.191406 436.921875 100.84375 437.210938 101.546875 437.226562 L 113.484375 437.488281 C 114.945312 437.488281 116.152344 436.296875 116.167969 434.835938 C 116.175781 434.121094 115.90625 433.445312 115.402344 432.929688 C 114.902344 432.417969 114.234375 432.132812 113.507812 432.121094 Z M 184.664062 431.765625 C 184.660156 431.765625 172.804688 431.964844 172.804688 431.964844 C 172.03125 431.976562 171.308594 432.285156 170.765625 432.839844 C 170.226562 433.390625 169.933594 434.121094 169.945312 434.894531 C 169.964844 436.472656 171.261719 437.753906 172.839844 437.753906 L 184.769531 437.605469 C 186.378906 437.578125 187.664062 436.246094 187.640625 434.636719 C 187.613281 433.054688 186.304688 431.765625 184.664062 431.765625 Z M 137.226562 432.210938 L 125.347656 432.199219 C 123.851562 432.199219 122.621094 433.414062 122.605469 434.910156 C 122.589844 436.421875 123.804688 437.667969 125.316406 437.683594 L 137.234375 437.816406 C 138.777344 437.816406 140.035156 436.5625 140.035156 435.015625 C 140.039062 434.265625 139.746094 433.5625 139.21875 433.03125 C 138.6875 432.503906 137.984375 432.210938 137.226562 432.210938 Z M 121.679688 358.257812 L 145.945312 427.378906 L 109.460938 428.589844 L 104.753906 361.390625 L 104.144531 357.371094 L 120.792969 354.433594 L 121.679688 358.257812" fill="#1c212e"/></g><g id="change2_1"><path d="M 386.003906 420.371094 L 391.964844 419.714844 C 392.71875 419.632812 393.398438 420.171875 393.484375 420.929688 C 393.570312 421.675781 393.03125 422.351562 392.289062 422.445312 L 386.332031 423.195312 C 385.550781 423.292969 384.839844 422.738281 384.742188 421.960938 C 384.644531 421.179688 385.199219 420.472656 385.976562 420.371094 C 385.980469 420.371094 386 420.371094 386.003906 420.371094 Z M 362.3125 422.769531 L 374.121094 421.613281 L 374.132812 421.613281 C 374.964844 421.53125 375.707031 422.140625 375.785156 422.972656 C 375.867188 423.796875 375.269531 424.53125 374.449219 424.625 L 362.640625 425.964844 C 361.757812 426.066406 360.960938 425.429688 360.863281 424.550781 C 360.761719 423.667969 361.394531 422.871094 362.277344 422.769531 C 362.28125 422.769531 362.289062 422.769531 362.292969 422.769531 Z M 338.675781 424.886719 L 350.496094 423.847656 L 350.507812 423.847656 C 351.441406 423.761719 352.265625 424.457031 352.347656 425.390625 C 352.429688 426.320312 351.746094 427.140625 350.820312 427.230469 L 338.992188 428.386719 C 338.023438 428.480469 337.164062 427.773438 337.070312 426.808594 C 336.976562 425.84375 337.683594 424.984375 338.648438 424.886719 Z M 315.027344 426.761719 L 326.855469 425.859375 L 326.863281 425.859375 C 327.859375 425.785156 328.726562 426.527344 328.800781 427.523438 C 328.878906 428.511719 328.140625 429.375 327.152344 429.457031 L 315.3125 430.457031 C 314.296875 430.542969 313.398438 429.789062 313.3125 428.769531 C 313.226562 427.746094 313.980469 426.851562 315.003906 426.765625 L 315.015625 426.761719 Z M 291.351562 428.371094 L 303.191406 427.597656 L 303.203125 427.597656 C 304.25 427.527344 305.15625 428.320312 305.226562 429.367188 C 305.292969 430.410156 304.507812 431.3125 303.464844 431.390625 L 291.605469 432.238281 C 290.539062 432.316406 289.613281 431.511719 289.535156 430.445312 C 289.457031 429.378906 290.261719 428.449219 291.328125 428.371094 Z M 267.664062 429.773438 L 279.511719 429.105469 L 279.523438 429.105469 C 280.597656 429.042969 281.515625 429.867188 281.578125 430.941406 C 281.636719 432.015625 280.820312 432.933594 279.742188 432.996094 L 267.878906 433.683594 C 266.796875 433.746094 265.871094 432.921875 265.808594 431.84375 C 265.746094 430.761719 266.570312 429.835938 267.652344 429.773438 Z M 243.964844 430.910156 L 255.816406 430.375 L 255.828125 430.375 C 256.914062 430.324219 257.835938 431.164062 257.882812 432.253906 C 257.933594 433.339844 257.097656 434.261719 256.007812 434.308594 L 244.136719 434.867188 C 243.046875 434.917969 242.117188 434.078125 242.066406 432.984375 C 242.015625 431.890625 242.859375 430.964844 243.953125 430.910156 Z M 220.257812 431.800781 L 232.113281 431.386719 L 232.125 431.386719 C 233.222656 431.347656 234.144531 432.207031 234.183594 433.304688 C 234.222656 434.402344 233.363281 435.324219 232.265625 435.363281 L 220.386719 435.792969 C 219.285156 435.832031 218.359375 434.96875 218.320312 433.867188 C 218.28125 432.765625 219.140625 431.839844 220.242188 431.800781 Z M 196.539062 432.507812 L 208.398438 432.183594 L 208.40625 432.183594 C 209.496094 432.152344 210.402344 433.011719 210.433594 434.101562 C 210.464844 435.1875 209.605469 436.09375 208.515625 436.125 L 208.507812 436.125 L 196.625 436.394531 C 195.550781 436.421875 194.660156 435.570312 194.636719 434.496094 C 194.609375 433.421875 195.460938 432.53125 196.535156 432.507812 Z M 172.816406 432.964844 L 184.675781 432.765625 L 184.6875 432.765625 C 185.746094 432.746094 186.621094 433.59375 186.640625 434.652344 C 186.65625 435.714844 185.8125 436.589844 184.753906 436.605469 L 184.742188 436.605469 L 172.863281 436.753906 C 171.816406 436.765625 170.957031 435.929688 170.945312 434.882812 C 170.933594 433.835938 171.769531 432.976562 172.816406 432.964844 Z M 149.089844 433.179688 L 160.953125 433.101562 L 160.960938 433.101562 C 161.992188 433.097656 162.835938 433.929688 162.84375 434.960938 C 162.851562 435.992188 162.019531 436.835938 160.988281 436.84375 L 160.980469 436.84375 L 149.09375 436.867188 C 148.078125 436.871094 147.25 436.046875 147.246094 435.027344 C 147.246094 434.011719 148.070312 433.183594 149.085938 433.179688 Z M 125.359375 433.199219 L 137.226562 433.210938 L 137.234375 433.210938 C 138.230469 433.210938 139.039062 434.019531 139.035156 435.015625 C 139.035156 436.011719 138.226562 436.820312 137.230469 436.816406 L 137.214844 436.816406 L 125.328125 436.683594 C 124.367188 436.671875 123.59375 435.886719 123.605469 434.921875 C 123.617188 433.964844 124.394531 433.195312 125.347656 433.199219 Z M 101.632812 432.984375 L 113.496094 433.121094 L 113.503906 433.121094 C 114.433594 433.132812 115.179688 433.894531 115.167969 434.824219 C 115.15625 435.753906 114.394531 436.5 113.464844 436.488281 L 113.449219 436.488281 L 101.566406 436.226562 C 100.671875 436.207031 99.960938 435.464844 99.980469 434.570312 C 100 433.679688 100.734375 432.972656 101.621094 432.984375 Z M 77.910156 432.519531 L 89.769531 432.777344 L 89.777344 432.777344 C 90.640625 432.796875 91.324219 433.511719 91.304688 434.371094 C 91.289062 435.234375 90.574219 435.917969 89.710938 435.898438 C 89.707031 435.898438 89.695312 435.898438 89.691406 435.898438 L 77.816406 435.480469 C 76.996094 435.453125 76.359375 434.765625 76.386719 433.949219 C 76.417969 433.136719 77.089844 432.503906 77.898438 432.519531 Z M 54.195312 431.816406 L 66.050781 432.210938 L 66.058594 432.210938 C 66.820312 432.234375 67.417969 432.875 67.394531 433.636719 C 67.367188 434.394531 66.730469 434.992188 65.96875 434.96875 C 65.964844 434.96875 65.949219 434.96875 65.945312 434.96875 L 54.078125 434.371094 C 53.375 434.335938 52.832031 433.734375 52.867188 433.03125 C 52.902344 432.332031 53.488281 431.792969 54.183594 431.816406 Z M 36.371094 431.015625 L 42.34375 431.324219 L 42.355469 431.324219 C 43.003906 431.355469 43.503906 431.910156 43.46875 432.558594 C 43.4375 433.207031 42.882812 433.707031 42.234375 433.671875 C 42.230469 433.671875 42.21875 433.671875 42.214844 433.671875 L 36.21875 433.261719 C 35.597656 433.222656 35.128906 432.683594 35.171875 432.0625 C 35.214844 431.449219 35.738281 430.984375 36.351562 431.015625 Z M 252.253906 207.496094 C 246.554688 204.808594 243.175781 199.46875 242.886719 193.785156 C 239.496094 195.414062 237.707031 196.726562 237.707031 196.726562 C 246.925781 172.457031 291.023438 175.601562 297.761719 181.59375 C 302.398438 185.714844 298.621094 191.820312 295.464844 190.925781 C 288.5 188.949219 282.070312 187.96875 276.226562 187.652344 C 277.554688 191.578125 277.335938 195.996094 275.226562 200.011719 C 270.972656 208.117188 260.683594 211.46875 252.253906 207.496094 Z M 213.746094 224.355469 C 213.125 224.34375 212.605469 223.917969 212.453125 223.347656 L 212.441406 223.304688 C 211.9375 221.433594 211.535156 219.570312 211.050781 217.730469 C 210.59375 215.882812 210.066406 214.0625 209.535156 212.242188 C 209.003906 210.421875 208.382812 208.628906 207.753906 206.835938 C 207.117188 205.066406 206.410156 203.246094 205.71875 201.570312 L 205.683594 201.484375 C 205.382812 200.757812 205.726562 199.929688 206.453125 199.628906 C 207.070312 199.375 207.761719 199.585938 208.140625 200.101562 C 209.402344 201.820312 210.339844 203.570312 211.199219 205.417969 C 212.050781 207.253906 212.769531 209.148438 213.351562 211.082031 C 214.523438 214.945312 215.222656 218.976562 215.140625 223.015625 C 215.128906 223.773438 214.503906 224.371094 213.746094 224.355469 Z M 184.9375 207.496094 C 176.503906 211.46875 166.21875 208.117188 161.960938 200.011719 C 159.855469 195.996094 159.636719 191.578125 160.964844 187.652344 C 155.117188 187.96875 148.691406 188.949219 141.722656 190.925781 C 138.570312 191.820312 134.792969 185.714844 139.425781 181.59375 C 146.164062 175.601562 190.261719 172.457031 199.480469 196.726562 C 199.480469 196.726562 197.691406 195.414062 194.300781 193.785156 C 194.011719 199.46875 190.636719 204.808594 184.9375 207.496094 Z M 139.378906 168.378906 C 148.945312 161.988281 170.316406 158.605469 189.429688 163.25 C 193.621094 164.265625 193.296875 171.320312 183.550781 169.925781 C 172.800781 168.378906 155.59375 168.546875 139.53125 169.519531 C 138.351562 169.589844 138.398438 169.03125 139.378906 168.378906 Z M 124.886719 193.433594 C 124.796875 194.449219 124.703125 195.460938 124.566406 196.460938 C 124.457031 197.238281 123.738281 197.78125 122.960938 197.675781 C 122.304688 197.582031 121.816406 197.058594 121.742188 196.429688 L 121.734375 196.335938 C 121.621094 195.382812 121.558594 194.433594 121.496094 193.488281 L 121.1875 190.679688 C 121.019531 189.601562 120.855469 188.523438 120.652344 187.460938 C 120.488281 187.570312 120.332031 187.6875 120.179688 187.816406 C 119.535156 188.40625 118.953125 189.105469 118.433594 189.917969 C 117.910156 190.726562 117.464844 191.648438 117.03125 192.601562 L 115.773438 195.542969 L 115.71875 195.671875 C 115.421875 196.371094 114.609375 196.695312 113.910156 196.394531 C 113.417969 196.183594 113.109375 195.714844 113.078125 195.214844 C 112.996094 193.851562 113.167969 192.640625 113.496094 191.382812 C 113.835938 190.140625 114.320312 188.910156 115.070312 187.765625 C 115.816406 186.628906 116.789062 185.550781 118.035156 184.765625 C 118.585938 184.429688 119.183594 184.183594 119.796875 184.003906 C 119.398438 182.671875 118.929688 181.375 118.34375 180.144531 C 117.949219 179.351562 117.546875 178.550781 117.070312 177.820312 C 116.84375 177.4375 116.589844 177.085938 116.335938 176.734375 C 116.097656 176.410156 115.773438 176.023438 115.597656 175.808594 L 115.40625 175.566406 C 114.9375 174.992188 115.027344 174.144531 115.601562 173.679688 C 116.050781 173.316406 116.660156 173.289062 117.132812 173.566406 C 117.75 173.929688 118.121094 174.234375 118.566406 174.609375 C 118.976562 174.976562 119.375 175.359375 119.730469 175.765625 C 120.46875 176.574219 121.074219 177.460938 121.636719 178.375 C 122.734375 180.214844 123.484375 182.210938 124.007812 184.234375 C 124.558594 186.257812 124.785156 188.324219 124.902344 190.371094 C 124.9375 191.394531 124.90625 192.417969 124.886719 193.433594 Z M 311.34375 189.535156 C 311.460938 187.488281 311.679688 185.421875 312.242188 183.402344 C 312.777344 181.382812 313.519531 179.386719 314.617188 177.542969 C 315.175781 176.625 315.78125 175.738281 316.507812 174.925781 C 316.863281 174.515625 317.25 174.121094 317.660156 173.753906 C 318.101562 173.371094 318.46875 173.0625 319.085938 172.683594 C 319.746094 172.277344 320.613281 172.484375 321.015625 173.144531 C 321.347656 173.679688 321.273438 174.347656 320.882812 174.800781 L 320.6875 175.023438 C 320.511719 175.222656 320.183594 175.609375 319.9375 175.925781 C 319.6875 176.277344 319.421875 176.613281 319.195312 176.992188 C 318.703125 177.71875 318.304688 178.519531 317.902344 179.308594 C 317.316406 180.542969 316.84375 181.84375 316.445312 183.175781 C 317.0625 183.351562 317.664062 183.59375 318.21875 183.925781 C 319.464844 184.714844 320.445312 185.785156 321.179688 186.933594 C 321.921875 188.085938 322.410156 189.308594 322.75 190.550781 C 323.082031 191.804688 323.273438 193.011719 323.230469 194.371094 C 323.207031 195.160156 322.546875 195.78125 321.757812 195.757812 C 321.171875 195.738281 320.675781 195.367188 320.472656 194.855469 L 320.417969 194.714844 C 320.042969 193.769531 319.644531 192.710938 319.226562 191.765625 C 318.792969 190.816406 318.355469 189.886719 317.816406 189.085938 C 317.285156 188.28125 316.710938 187.578125 316.070312 186.988281 C 315.917969 186.859375 315.765625 186.742188 315.605469 186.632812 C 315.402344 187.691406 315.238281 188.769531 315.070312 189.847656 C 314.957031 190.777344 314.863281 191.714844 314.738281 192.652344 C 314.664062 193.597656 314.59375 194.546875 314.457031 195.507812 L 314.445312 195.59375 C 314.339844 196.34375 313.652344 196.863281 312.902344 196.757812 C 312.296875 196.671875 311.839844 196.199219 311.746094 195.625 C 311.582031 194.625 311.480469 193.613281 311.378906 192.601562 C 311.347656 191.585938 311.316406 190.5625 311.34375 189.535156 Z M 346.144531 365.4375 C 338.507812 363.894531 329.027344 362.035156 318.585938 360.089844 L 308.789062 424.933594 L 286.269531 423.464844 L 301.703125 357.039062 C 292.347656 355.402344 282.621094 353.792969 273.019531 352.347656 L 267.136719 284.152344 C 286.054688 266.09375 302.378906 239.46875 307.445312 208.800781 C 309.953125 209.582031 312.566406 210.011719 315.15625 210.011719 C 328.417969 210.011719 339.167969 199.261719 339.167969 185.996094 C 339.167969 172.738281 328.417969 161.988281 315.15625 161.988281 C 314.796875 161.988281 314.449219 162 314.097656 162.011719 C 312.15625 162.621094 310.0625 163.015625 307.808594 163.164062 C 298.753906 163.761719 290.191406 163.46875 282.117188 162.460938 C 288.863281 163.730469 294.613281 165.808594 298.460938 168.378906 C 299.4375 169.03125 299.484375 169.589844 298.308594 169.519531 C 282.246094 168.546875 265.039062 168.378906 254.285156 169.925781 C 244.539062 171.320312 244.214844 164.265625 248.40625 163.25 C 257.746094 160.980469 267.617188 160.632812 276.390625 161.609375 C 235.027344 154.476562 207.324219 128.074219 193.125 104.332031 C 188.308594 134.085938 167.136719 167.625 128.039062 163.996094 C 126.039062 163.8125 124.132812 163.113281 122.332031 161.992188 C 122.230469 161.992188 122.132812 161.988281 122.03125 161.988281 C 108.773438 161.988281 98.019531 172.738281 98.019531 185.996094 C 98.019531 199.261719 108.773438 210.011719 122.03125 210.011719 C 124.695312 210.011719 127.382812 209.554688 129.949219 208.734375 C 134.855469 238.664062 150.417969 264.953125 168.667969 283.078125 L 161.414062 351.71875 C 148.101562 353.660156 134.433594 355.964844 121.679688 358.257812 L 136.949219 423.957031 L 114.425781 425.421875 L 104.753906 361.390625 C 96.546875 362.949219 89.085938 364.421875 82.824219 365.675781 C 45.683594 373.113281 23.015625 410.964844 33.5 447.363281 C 37.207031 460.238281 48.335938 498.859375 48.335938 498.859375 L 91.507812 498.859375 C 91.445312 494.386719 91.6875 489.941406 92.023438 485.5 C 92.390625 480.9375 92.867188 476.382812 93.753906 471.863281 C 93.898438 471.121094 94.617188 470.640625 95.359375 470.785156 C 95.996094 470.910156 96.441406 471.457031 96.460938 472.078125 C 96.617188 476.683594 96.367188 481.257812 96.003906 485.820312 C 95.636719 490.179688 95.171875 494.53125 94.429688 498.859375 L 331.871094 498.859375 C 330.832031 494.511719 330.136719 490.113281 329.550781 485.707031 C 328.957031 481.066406 328.453125 476.417969 328.28125 471.722656 C 328.253906 470.9375 328.867188 470.277344 329.652344 470.25 C 330.347656 470.222656 330.941406 470.699219 331.09375 471.351562 C 332.148438 475.929688 332.875 480.546875 333.507812 485.179688 C 334.105469 489.714844 334.59375 494.261719 334.703125 498.859375 L 380.265625 498.859375 C 380.265625 498.859375 391.457031 460.011719 395.1875 447.066406 C 405.640625 410.777344 383.160156 372.910156 346.144531 365.4375" fill="#e28b64"/></g><g id="change3_1"><path d="M 191.023438 213.574219 C 197.789062 210.40625 201.6875 204.09375 199.480469 196.730469 L 199.453125 196.710938 C 199.3125 196.605469 197.550781 195.347656 194.300781 193.785156 C 194.28125 194.136719 194.253906 194.492188 194.210938 194.84375 C 194.210938 194.84375 194.210938 194.847656 194.210938 194.851562 C 194.085938 195.902344 193.855469 196.933594 193.523438 197.933594 C 193.519531 197.9375 193.519531 197.945312 193.515625 197.949219 C 193.417969 198.246094 193.308594 198.539062 193.191406 198.828125 C 193.160156 198.90625 193.128906 198.988281 193.09375 199.066406 C 192.980469 199.339844 192.859375 199.605469 192.730469 199.871094 C 192.695312 199.945312 192.65625 200.015625 192.617188 200.089844 C 192.382812 200.558594 192.121094 201.015625 191.835938 201.460938 C 191.761719 201.574219 191.695312 201.691406 191.621094 201.800781 C 191.496094 201.988281 191.359375 202.167969 191.226562 202.351562 C 191.109375 202.511719 190.988281 202.671875 190.863281 202.828125 C 190.734375 202.988281 190.605469 203.148438 190.46875 203.304688 C 190.308594 203.488281 190.144531 203.667969 189.976562 203.847656 C 189.859375 203.972656 189.746094 204.097656 189.621094 204.222656 C 189.335938 204.507812 189.035156 204.785156 188.722656 205.054688 C 188.625 205.132812 188.523438 205.210938 188.429688 205.289062 C 188.183594 205.488281 187.933594 205.683594 187.675781 205.871094 C 187.550781 205.960938 187.425781 206.050781 187.296875 206.136719 C 187.039062 206.3125 186.777344 206.480469 186.507812 206.640625 C 186.386719 206.714844 186.269531 206.789062 186.144531 206.859375 C 185.753906 207.085938 185.351562 207.300781 184.9375 207.496094 C 176.503906 211.46875 166.21875 208.117188 161.960938 200.011719 C 161.722656 199.554688 161.511719 199.09375 161.320312 198.625 C 161.265625 198.492188 161.21875 198.355469 161.164062 198.21875 C 161.035156 197.871094 160.914062 197.523438 160.808594 197.171875 C 160.765625 197.035156 160.726562 196.898438 160.6875 196.761719 C 160.570312 196.335938 160.472656 195.902344 160.390625 195.472656 C 160.382812 195.429688 160.371094 195.390625 160.367188 195.347656 C 160.277344 194.839844 160.214844 194.335938 160.175781 193.828125 C 160.175781 193.789062 160.175781 193.753906 160.171875 193.71875 C 160.140625 193.253906 160.132812 192.785156 160.140625 192.320312 C 160.144531 192.257812 160.144531 192.195312 160.148438 192.132812 C 160.199219 190.601562 160.476562 189.09375 160.964844 187.652344 C 156.433594 187.894531 151.550781 188.550781 146.34375 189.746094 C 158.378906 214.984375 179.128906 219.148438 191.023438 213.574219 Z M 310.605469 161.65625 C 310.203125 161.421875 309.6875 161.558594 309.453125 161.957031 C 308.8125 163.058594 308.359375 164.066406 307.914062 165.144531 C 307.472656 166.207031 307.054688 167.273438 306.675781 168.351562 C 305.90625 170.507812 305.261719 172.691406 304.625 174.878906 C 303.371094 179.253906 302.414062 183.695312 301.464844 188.128906 C 301.015625 190.351562 300.613281 192.582031 300.210938 194.8125 C 299.859375 197.050781 299.453125 199.28125 299.152344 201.523438 L 298.257812 208.253906 C 298.160156 209.1875 298.058594 210.117188 297.957031 211.050781 C 224.765625 235.964844 154.082031 215.710938 140.871094 211.480469 C 140.679688 210.410156 140.484375 209.34375 140.292969 208.273438 L 138.949219 201.648438 C 138.003906 197.238281 136.96875 192.847656 135.808594 188.484375 C 135.210938 186.308594 134.617188 184.128906 133.972656 181.960938 L 133.003906 178.710938 C 132.664062 177.628906 132.285156 176.5625 131.929688 175.484375 C 131.167969 173.347656 130.429688 171.203125 129.507812 169.101562 C 129.277344 168.578125 129.070312 168.050781 128.816406 167.53125 L 128.03125 165.984375 C 127.570312 164.941406 126.820312 163.957031 126.175781 162.976562 C 125.933594 162.613281 125.453125 162.488281 125.066406 162.703125 C 124.660156 162.929688 124.515625 163.441406 124.742188 163.84375 L 124.8125 163.972656 C 125.835938 165.8125 126.71875 167.816406 127.402344 169.929688 C 128.164062 172.003906 128.804688 174.144531 129.4375 176.277344 C 130.683594 180.558594 131.847656 184.886719 132.925781 189.230469 L 136.167969 202.285156 L 137.773438 208.824219 L 138.929688 213.40625 C 139.886719 221.632812 143.835938 247.410156 157.300781 268.898438 C 156.964844 268.484375 156.628906 268.074219 156.300781 267.652344 C 151.941406 262.128906 148.308594 256.019531 145.09375 249.707031 C 141.832031 243.410156 139.101562 236.832031 136.597656 230.167969 C 135.34375 226.835938 134.191406 223.464844 133.105469 220.070312 C 132 216.6875 130.988281 213.25 130.078125 209.832031 L 130.070312 209.804688 C 129.957031 209.382812 129.53125 209.109375 129.09375 209.199219 C 128.636719 209.289062 128.339844 209.734375 128.429688 210.191406 C 129.839844 217.289062 131.820312 224.210938 134.132812 231.046875 C 136.445312 237.882812 139.222656 244.5625 142.4375 251.050781 C 144.035156 254.300781 145.851562 257.445312 147.761719 260.53125 C 149.679688 263.617188 151.757812 266.613281 154.074219 269.433594 C 158.179688 274.523438 163.074219 279.117188 168.785156 282.449219 C 189.066406 296.40625 249.277344 304.742188 277.558594 272.375 C 281.015625 268.878906 284.089844 265.023438 286.921875 261.019531 L 289.550781 257.078125 C 290.410156 255.753906 291.171875 254.371094 291.988281 253.019531 L 293.191406 250.980469 L 294.316406 248.902344 C 295.050781 247.507812 295.839844 246.140625 296.53125 244.726562 L 298.605469 240.480469 L 300.550781 236.179688 C 301.210938 234.753906 301.796875 233.289062 302.410156 231.84375 C 303.027344 230.398438 303.621094 228.941406 304.164062 227.464844 C 306.40625 221.585938 308.460938 215.660156 310.070312 209.546875 C 310.203125 209.027344 309.921875 208.484375 309.40625 208.308594 C 308.867188 208.121094 308.28125 208.410156 308.097656 208.949219 L 308.089844 208.972656 C 307.085938 211.890625 306.046875 214.835938 304.925781 217.734375 C 304.394531 219.191406 303.835938 220.644531 303.261719 222.089844 C 302.703125 223.539062 302.113281 224.976562 301.515625 226.410156 C 299.15625 232.160156 296.664062 237.851562 293.871094 243.390625 C 291.933594 247.289062 289.867188 251.117188 287.652344 254.851562 C 294.179688 237.71875 300.953125 210.011719 300.953125 210.011719 C 300.8125 210.0625 300.671875 210.109375 300.53125 210.15625 C 301.011719 207.429688 301.480469 204.699219 301.96875 201.976562 C 302.757812 197.546875 303.554688 193.121094 304.386719 188.703125 C 305.199219 184.285156 306.15625 179.898438 307.15625 175.535156 C 307.667969 173.355469 308.210938 171.179688 308.828125 169.039062 C 309.414062 166.914062 310.101562 164.703125 310.910156 162.808594 L 310.953125 162.714844 C 311.117188 162.328125 310.976562 161.871094 310.605469 161.65625 Z M 237.707031 196.730469 C 237.71875 196.691406 237.726562 196.6875 237.734375 196.710938 C 237.875 196.605469 239.636719 195.347656 242.886719 193.785156 C 242.90625 194.136719 242.9375 194.492188 242.976562 194.84375 C 242.976562 194.84375 242.976562 194.847656 242.980469 194.851562 C 243.105469 195.898438 243.335938 196.929688 243.667969 197.933594 C 243.667969 197.9375 243.671875 197.945312 243.671875 197.949219 C 243.773438 198.246094 243.882812 198.539062 243.996094 198.828125 C 244.03125 198.910156 244.0625 198.988281 244.09375 199.066406 C 244.210938 199.335938 244.328125 199.605469 244.457031 199.871094 C 244.492188 199.945312 244.53125 200.015625 244.570312 200.089844 C 244.804688 200.558594 245.066406 201.015625 245.351562 201.460938 C 245.425781 201.574219 245.492188 201.691406 245.570312 201.804688 C 245.695312 201.988281 245.828125 202.167969 245.964844 202.351562 C 246.082031 202.511719 246.199219 202.671875 246.328125 202.828125 C 246.453125 202.988281 246.585938 203.148438 246.71875 203.304688 C 246.878906 203.488281 247.046875 203.671875 247.214844 203.847656 C 247.332031 203.972656 247.445312 204.097656 247.566406 204.21875 C 247.855469 204.507812 248.15625 204.785156 248.46875 205.054688 C 248.5625 205.136719 248.664062 205.210938 248.761719 205.289062 C 249.007812 205.488281 249.257812 205.683594 249.515625 205.871094 C 249.636719 205.960938 249.765625 206.050781 249.894531 206.136719 C 250.148438 206.3125 250.410156 206.480469 250.679688 206.640625 C 250.800781 206.714844 250.921875 206.789062 251.042969 206.859375 C 251.433594 207.085938 251.835938 207.300781 252.253906 207.496094 C 260.683594 211.46875 270.972656 208.117188 275.226562 200.011719 C 275.46875 199.554688 275.675781 199.09375 275.867188 198.625 C 275.921875 198.492188 275.972656 198.355469 276.023438 198.21875 C 276.15625 197.871094 276.273438 197.523438 276.382812 197.171875 C 276.421875 197.035156 276.464844 196.898438 276.5 196.761719 C 276.617188 196.335938 276.71875 195.902344 276.796875 195.472656 C 276.804688 195.429688 276.816406 195.390625 276.824219 195.347656 C 276.910156 194.839844 276.972656 194.335938 277.011719 193.828125 C 277.015625 193.789062 277.015625 193.753906 277.015625 193.71875 C 277.050781 193.253906 277.058594 192.785156 277.046875 192.320312 C 277.046875 192.257812 277.042969 192.195312 277.042969 192.132812 C 276.988281 190.601562 276.714844 189.09375 276.226562 187.652344 C 280.757812 187.894531 285.636719 188.550781 290.847656 189.746094 C 278.808594 214.988281 258.058594 219.148438 246.167969 213.574219 C 239.402344 210.40625 235.503906 204.09375 237.707031 196.730469" fill="#fefae5"/></g><g clip-path="url(#b)" id="change4_1"><path d="M 386.003906 420.371094 L 391.964844 419.714844 C 392.71875 419.632812 393.398438 420.171875 393.484375 420.929688 C 393.570312 421.675781 393.03125 422.351562 392.289062 422.445312 L 386.332031 423.195312 C 385.550781 423.292969 384.839844 422.738281 384.742188 421.960938 C 384.644531 421.179688 385.199219 420.472656 385.976562 420.371094 C 385.980469 420.371094 386 420.371094 386.003906 420.371094 Z M 362.3125 422.769531 L 374.121094 421.613281 L 374.132812 421.613281 C 374.964844 421.53125 375.707031 422.140625 375.785156 422.972656 C 375.867188 423.796875 375.269531 424.53125 374.449219 424.625 L 362.640625 425.964844 C 361.757812 426.066406 360.960938 425.429688 360.863281 424.550781 C 360.761719 423.667969 361.394531 422.871094 362.277344 422.769531 C 362.28125 422.769531 362.289062 422.769531 362.292969 422.769531 Z M 338.675781 424.886719 L 350.496094 423.847656 L 350.507812 423.847656 C 351.441406 423.761719 352.265625 424.457031 352.347656 425.390625 C 352.429688 426.320312 351.746094 427.140625 350.820312 427.230469 L 338.992188 428.386719 C 338.023438 428.480469 337.164062 427.773438 337.070312 426.808594 C 336.976562 425.84375 337.683594 424.984375 338.648438 424.886719 Z M 315.027344 426.761719 L 326.855469 425.859375 L 326.863281 425.859375 C 327.859375 425.785156 328.726562 426.527344 328.800781 427.523438 C 328.878906 428.511719 328.140625 429.375 327.152344 429.457031 L 315.3125 430.457031 C 314.296875 430.542969 313.398438 429.789062 313.3125 428.769531 C 313.226562 427.746094 313.980469 426.851562 315.003906 426.765625 L 315.015625 426.761719 Z M 291.351562 428.371094 L 303.191406 427.597656 L 303.203125 427.597656 C 304.25 427.527344 305.15625 428.320312 305.226562 429.367188 C 305.292969 430.410156 304.507812 431.3125 303.464844 431.390625 L 291.605469 432.238281 C 290.539062 432.316406 289.613281 431.511719 289.535156 430.445312 C 289.457031 429.378906 290.261719 428.449219 291.328125 428.371094 Z M 267.664062 429.773438 L 279.511719 429.105469 L 279.523438 429.105469 C 280.597656 429.042969 281.515625 429.867188 281.578125 430.941406 C 281.636719 432.015625 280.820312 432.933594 279.742188 432.996094 L 267.878906 433.683594 C 266.796875 433.746094 265.871094 432.921875 265.808594 431.84375 C 265.746094 430.761719 266.570312 429.835938 267.652344 429.773438 Z M 243.964844 430.910156 L 255.816406 430.375 L 255.828125 430.375 C 256.914062 430.324219 257.835938 431.164062 257.882812 432.253906 C 257.933594 433.339844 257.097656 434.261719 256.007812 434.308594 L 244.136719 434.867188 C 243.046875 434.917969 242.117188 434.078125 242.066406 432.984375 C 242.015625 431.890625 242.859375 430.964844 243.953125 430.910156 Z M 220.257812 431.800781 L 232.113281 431.386719 L 232.125 431.386719 C 233.222656 431.347656 234.144531 432.207031 234.183594 433.304688 C 234.222656 434.402344 233.363281 435.324219 232.265625 435.363281 L 220.386719 435.792969 C 219.285156 435.832031 218.359375 434.96875 218.320312 433.867188 C 218.28125 432.765625 219.140625 431.839844 220.242188 431.800781 Z M 196.539062 432.507812 L 208.398438 432.183594 L 208.40625 432.183594 C 209.496094 432.152344 210.402344 433.011719 210.433594 434.101562 C 210.464844 435.1875 209.605469 436.09375 208.515625 436.125 L 208.507812 436.125 L 196.625 436.394531 C 195.550781 436.421875 194.660156 435.570312 194.636719 434.496094 C 194.609375 433.421875 195.460938 432.53125 196.535156 432.507812 Z M 172.816406 432.964844 L 184.675781 432.765625 L 184.6875 432.765625 C 185.746094 432.746094 186.621094 433.59375 186.640625 434.652344 C 186.65625 435.714844 185.8125 436.589844 184.753906 436.605469 L 184.742188 436.605469 L 172.863281 436.753906 C 171.816406 436.765625 170.957031 435.929688 170.945312 434.882812 C 170.933594 433.835938 171.769531 432.976562 172.816406 432.964844 Z M 149.089844 433.179688 L 160.953125 433.101562 L 160.960938 433.101562 C 161.992188 433.097656 162.835938 433.929688 162.84375 434.960938 C 162.851562 435.992188 162.019531 436.835938 160.988281 436.84375 L 160.980469 436.84375 L 149.09375 436.867188 C 148.078125 436.871094 147.25 436.046875 147.246094 435.027344 C 147.246094 434.011719 148.070312 433.183594 149.085938 433.179688 Z M 125.359375 433.199219 L 137.226562 433.210938 L 137.234375 433.210938 C 138.230469 433.210938 139.039062 434.019531 139.035156 435.015625 C 139.035156 436.011719 138.226562 436.820312 137.230469 436.816406 L 137.214844 436.816406 L 125.328125 436.683594 C 124.367188 436.671875 123.59375 435.886719 123.605469 434.921875 C 123.617188 433.964844 124.394531 433.195312 125.347656 433.199219 Z M 101.632812 432.984375 L 113.496094 433.121094 L 113.503906 433.121094 C 114.433594 433.132812 115.179688 433.894531 115.167969 434.824219 C 115.15625 435.753906 114.394531 436.5 113.464844 436.488281 L 113.449219 436.488281 L 101.566406 436.226562 C 100.671875 436.207031 99.960938 435.464844 99.980469 434.570312 C 100 433.679688 100.734375 432.972656 101.621094 432.984375 Z M 77.910156 432.519531 L 89.769531 432.777344 L 89.777344 432.777344 C 90.640625 432.796875 91.324219 433.511719 91.304688 434.371094 C 91.289062 435.234375 90.574219 435.917969 89.710938 435.898438 C 89.707031 435.898438 89.695312 435.898438 89.691406 435.898438 L 77.816406 435.480469 C 76.996094 435.453125 76.359375 434.765625 76.386719 433.949219 C 76.417969 433.136719 77.089844 432.503906 77.898438 432.519531 Z M 54.195312 431.816406 L 66.050781 432.210938 L 66.058594 432.210938 C 66.820312 432.234375 67.417969 432.875 67.394531 433.636719 C 67.367188 434.394531 66.730469 434.992188 65.96875 434.96875 C 65.964844 434.96875 65.949219 434.96875 65.945312 434.96875 L 54.078125 434.371094 C 53.375 434.335938 52.832031 433.734375 52.867188 433.03125 C 52.902344 432.332031 53.488281 431.792969 54.183594 431.816406 Z M 36.371094 431.015625 L 42.34375 431.324219 L 42.355469 431.324219 C 43.003906 431.355469 43.503906 431.910156 43.46875 432.558594 C 43.4375 433.207031 42.882812 433.707031 42.234375 433.671875 C 42.230469 433.671875 42.21875 433.671875 42.214844 433.671875 L 36.21875 433.261719 C 35.597656 433.222656 35.128906 432.683594 35.171875 432.0625 C 35.214844 431.449219 35.738281 430.984375 36.351562 431.015625 Z M 328.28125 471.722656 C 328.253906 470.9375 328.867188 470.277344 329.652344 470.25 C 330.347656 470.222656 330.941406 470.699219 331.09375 471.351562 C 332.148438 475.929688 332.875 480.546875 333.507812 485.179688 C 334.121094 489.816406 334.621094 494.46875 334.714844 499.171875 C 334.71875 499.230469 334.707031 499.289062 334.699219 499.347656 L 428.855469 499.347656 C 399.226562 469.71875 403.277344 405.839844 403.277344 405.839844 C 225.070312 425.84375 25.8125 415.84375 25.8125 415.84375 C 22.875 468.347656 0 499.347656 0 499.347656 L 91.527344 499.347656 C 91.523438 499.308594 91.507812 499.273438 91.507812 499.234375 C 91.425781 494.636719 91.679688 490.066406 92.023438 485.5 C 92.390625 480.9375 92.867188 476.382812 93.753906 471.863281 C 93.898438 471.121094 94.617188 470.640625 95.359375 470.785156 C 95.996094 470.910156 96.441406 471.457031 96.460938 472.078125 C 96.617188 476.683594 96.367188 481.257812 96.003906 485.820312 C 95.621094 490.34375 95.144531 494.859375 94.347656 499.347656 L 331.984375 499.347656 C 330.875 494.839844 330.15625 490.28125 329.550781 485.707031 C 328.957031 481.066406 328.453125 476.417969 328.28125 471.722656" fill="#f8b1dc"/></g><g id="change5_1"><path d="M 351.355469 171.257812 C 351.875 171.503906 352.402344 171.722656 352.910156 171.988281 L 354.414062 172.816406 C 355.410156 173.375 356.4375 173.890625 357.417969 174.484375 L 360.300781 176.359375 C 360.777344 176.679688 361.289062 176.953125 361.742188 177.304688 L 363.109375 178.351562 C 364.019531 179.058594 364.9375 179.753906 365.875 180.4375 L 365.980469 180.515625 C 366.523438 180.914062 367.292969 180.859375 367.773438 180.363281 C 368.300781 179.820312 368.289062 178.949219 367.746094 178.421875 C 364.285156 175.0625 360.5625 171.835938 356.285156 169.488281 L 354.714844 168.550781 C 354.179688 168.257812 353.625 168.011719 353.078125 167.738281 C 351.984375 167.214844 350.894531 166.660156 349.785156 166.160156 C 347.511719 165.300781 345.265625 164.34375 342.917969 163.714844 C 338.261719 162.339844 333.476562 161.410156 328.652344 161.070312 C 323.820312 160.71875 319.019531 160.773438 314.175781 161.582031 C 313.628906 161.675781 313.21875 162.15625 313.238281 162.726562 C 313.257812 163.347656 313.773438 163.835938 314.394531 163.816406 L 314.472656 163.8125 C 316.726562 163.742188 319.082031 163.746094 321.382812 163.90625 C 322.539062 163.960938 323.691406 164.066406 324.84375 164.144531 L 328.289062 164.535156 C 332.867188 165.175781 337.382812 166.148438 341.757812 167.523438 C 343.96875 168.152344 346.089844 169.023438 348.230469 169.835938 Z M 179.839844 83.613281 C 181.050781 86.835938 182.378906 90.019531 184.003906 93.054688 C 184.765625 94.597656 185.671875 96.0625 186.539062 97.542969 C 187.457031 98.996094 188.414062 100.421875 189.410156 101.816406 C 189.792969 102.355469 190.519531 102.554688 191.136719 102.257812 C 191.820312 101.921875 192.105469 101.097656 191.769531 100.414062 L 191.753906 100.378906 C 190.285156 97.371094 188.800781 94.402344 187.429688 91.378906 L 186.398438 89.117188 L 185.433594 86.828125 C 184.753906 85.316406 184.1875 83.757812 183.566406 82.222656 C 182.371094 79.136719 181.324219 75.992188 180.351562 72.824219 C 179.410156 69.664062 178.515625 66.414062 177.878906 63.234375 L 177.863281 63.167969 C 177.761719 62.644531 177.292969 62.25 176.738281 62.261719 C 176.117188 62.273438 175.621094 62.789062 175.636719 63.410156 C 175.707031 66.949219 176.214844 70.328125 176.953125 73.703125 C 177.691406 77.070312 178.664062 80.378906 179.839844 83.613281 Z M 298.929688 306.257812 C 297.96875 303.777344 296.617188 301.46875 295.160156 299.335938 C 292.460938 295.476562 290.476562 291.121094 289.183594 286.53125 C 288.535156 284.234375 288.054688 281.878906 287.777344 279.492188 C 287.441406 277.128906 287.324219 274.65625 287.382812 272.335938 L 287.386719 272.261719 C 287.398438 271.714844 287.011719 271.222656 286.457031 271.125 C 285.84375 271.015625 285.261719 271.425781 285.152344 272.039062 C 284.691406 274.652344 284.65625 277.171875 284.722656 279.75 C 284.855469 282.3125 285.199219 284.867188 285.738281 287.390625 C 286.832031 292.4375 288.921875 297.308594 291.878906 301.617188 C 294.578125 305.5 296.453125 309.773438 296.96875 314.382812 C 297.523438 318.984375 296.820312 323.800781 296.175781 328.730469 C 296.089844 329.421875 296.535156 330.085938 297.226562 330.25 C 297.964844 330.425781 298.707031 329.964844 298.882812 329.222656 C 300.023438 324.425781 301.167969 319.339844 300.722656 314.011719 C 300.523438 311.367188 299.898438 308.730469 298.929688 306.257812 Z M 141.398438 270.507812 C 140.972656 267.703125 140.496094 264.9375 139.746094 262.15625 C 139.601562 261.621094 139.078125 261.261719 138.511719 261.335938 C 137.898438 261.414062 137.460938 261.980469 137.539062 262.597656 L 137.546875 262.632812 C 137.894531 265.316406 138.164062 268.089844 138.324219 270.824219 C 138.515625 273.566406 138.609375 276.316406 138.585938 279.054688 C 138.582031 284.53125 138.203125 289.992188 137.277344 295.332031 C 136.800781 297.996094 136.199219 300.628906 135.410156 303.199219 L 134.800781 305.191406 C 134.597656 305.882812 134.371094 306.558594 134.195312 307.257812 L 133.65625 309.351562 L 133.214844 311.484375 C 132.691406 314.339844 132.429688 317.34375 132.867188 320.351562 C 133.09375 321.847656 133.492188 323.332031 134.019531 324.714844 C 134.53125 326.101562 135.179688 327.367188 135.644531 328.558594 L 135.65625 328.589844 C 135.914062 329.253906 136.640625 329.613281 137.335938 329.402344 C 138.0625 329.183594 138.472656 328.417969 138.253906 327.6875 C 137.8125 326.242188 137.292969 324.96875 136.902344 323.71875 C 136.511719 322.46875 136.257812 321.226562 136.140625 319.957031 C 135.953125 317.417969 136.191406 314.796875 136.777344 312.195312 L 137.25 310.246094 L 137.816406 308.304688 C 138 307.660156 138.242188 307.019531 138.453125 306.378906 L 139.121094 304.386719 C 140.035156 301.648438 140.726562 298.847656 141.214844 296.019531 C 142.203125 290.363281 142.449219 284.636719 142.191406 278.972656 C 142.039062 276.136719 141.769531 273.3125 141.398438 270.507812 Z M 107.46875 214.304688 C 106.851562 214.363281 106.398438 214.914062 106.457031 215.53125 L 106.460938 215.5625 L 106.816406 219.21875 C 106.933594 220.4375 107.09375 221.648438 107.144531 222.871094 C 107.289062 225.308594 107.46875 227.742188 107.457031 230.183594 C 107.59375 235.054688 107.367188 239.921875 106.828125 244.738281 C 105.800781 254.390625 103.277344 263.804688 99.578125 272.792969 C 97.746094 277.300781 95.71875 281.746094 93.636719 286.230469 C 91.582031 290.722656 89.46875 295.296875 88.042969 300.226562 C 86.667969 305.144531 86.019531 310.527344 87.078125 315.679688 C 88.09375 320.824219 90.351562 325.566406 93.21875 329.71875 L 93.226562 329.726562 C 93.636719 330.316406 94.4375 330.496094 95.058594 330.121094 C 95.714844 329.730469 95.925781 328.886719 95.535156 328.234375 C 93.070312 324.109375 91.152344 319.6875 90.464844 315.089844 C 89.640625 310.511719 90.320312 305.820312 91.691406 301.304688 C 93.128906 296.78125 95.109375 292.339844 97.207031 287.886719 C 99.28125 283.425781 101.4375 278.929688 103.261719 274.265625 C 105.09375 269.609375 106.667969 264.824219 107.867188 259.941406 C 108.488281 257.503906 108.953125 255.03125 109.40625 252.558594 L 109.929688 248.824219 C 110.105469 247.582031 110.171875 246.324219 110.296875 245.078125 C 111.171875 235.066406 110.421875 225.011719 108.6875 215.226562 C 108.582031 214.65625 108.054688 214.246094 107.46875 214.304688 Z M 80.03125 194.453125 C 77.941406 185.140625 76.050781 175.878906 75.621094 166.488281 C 75.515625 164.144531 75.460938 161.769531 75.613281 159.542969 C 75.769531 157.28125 76.234375 155.035156 76.847656 152.835938 C 78.078125 148.417969 80.1875 144.238281 82.671875 140.304688 C 87.71875 132.472656 94.449219 125.574219 101.851562 119.871094 L 101.898438 119.835938 C 102.371094 119.46875 102.480469 118.792969 102.132812 118.300781 C 101.777344 117.792969 101.074219 117.667969 100.566406 118.027344 C 96.546875 120.847656 92.90625 123.996094 89.46875 127.429688 C 86.042969 130.867188 82.878906 134.589844 80.136719 138.644531 C 77.441406 142.722656 75.132812 147.136719 73.707031 151.910156 C 73.003906 154.292969 72.453125 156.746094 72.238281 159.25 C 72.023438 161.785156 72.054688 164.199219 72.125 166.628906 C 72.390625 176.367188 74.320312 185.933594 76.34375 195.257812 C 78.339844 204.570312 80.375 213.875 79.628906 223.054688 C 79.078125 232.175781 74.496094 240.554688 69.753906 248.722656 C 64.960938 256.910156 59.714844 265.035156 55.734375 273.9375 C 53.75 278.382812 52.070312 283 50.921875 287.777344 C 49.769531 292.554688 49.164062 297.484375 49.222656 302.410156 C 49.347656 312.292969 52.199219 321.957031 56.660156 330.566406 L 56.664062 330.570312 C 57.003906 331.226562 57.800781 331.496094 58.472656 331.179688 C 59.160156 330.855469 59.449219 330.035156 59.125 329.347656 C 55.101562 320.871094 52.578125 311.675781 52.671875 302.394531 C 52.652344 293.113281 55.261719 283.996094 59.214844 275.519531 C 63.132812 266.988281 68.253906 258.984375 73.152344 250.71875 C 75.589844 246.574219 77.964844 242.335938 79.921875 237.8125 C 80.886719 235.546875 81.742188 233.207031 82.390625 230.78125 C 83.027344 228.339844 83.390625 225.816406 83.566406 223.359375 C 83.9375 218.398438 83.558594 213.449219 82.832031 208.640625 C 82.109375 203.824219 81.058594 199.117188 80.03125 194.453125 Z M 121.621094 110.765625 C 122.746094 105.851562 124.28125 101.03125 126.242188 96.382812 C 128.222656 91.738281 130.605469 87.265625 133.355469 83.015625 C 136.101562 78.765625 139.222656 74.753906 142.582031 70.945312 C 145.953125 67.144531 149.636719 63.609375 153.523438 60.316406 C 157.378906 57.007812 161.550781 53.953125 165.839844 51.34375 L 165.90625 51.304688 C 166.410156 50.996094 166.59375 50.34375 166.3125 49.816406 C 166.019531 49.269531 165.339844 49.0625 164.789062 49.355469 C 155.460938 54.332031 147.257812 60.960938 140.011719 68.589844 C 132.78125 76.226562 126.871094 85.144531 122.59375 94.820312 C 120.480469 99.675781 118.949219 104.765625 117.78125 109.921875 L 117.011719 113.8125 C 116.804688 115.117188 116.652344 116.433594 116.472656 117.742188 C 116.390625 118.398438 116.285156 119.054688 116.226562 119.710938 L 116.089844 121.6875 C 116.007812 123.007812 115.902344 124.324219 115.882812 125.644531 C 115.925781 128.28125 115.832031 130.925781 116.097656 133.550781 C 116.199219 134.863281 116.269531 136.179688 116.402344 137.488281 L 116.933594 141.394531 L 117.21875 143.347656 C 117.335938 143.992188 117.480469 144.632812 117.613281 145.277344 L 118.421875 149.128906 C 119.003906 151.679688 119.785156 154.1875 120.480469 156.703125 C 120.675781 157.402344 121.386719 157.839844 122.101562 157.679688 C 122.84375 157.515625 123.308594 156.78125 123.144531 156.039062 L 123.125 155.949219 L 122.289062 152.214844 C 122.027344 150.964844 121.664062 149.738281 121.480469 148.476562 L 120.847656 144.710938 C 120.746094 144.085938 120.628906 143.460938 120.542969 142.828125 L 120.34375 140.933594 L 119.914062 137.152344 C 119.816406 135.886719 119.78125 134.617188 119.714844 133.355469 C 119.515625 130.824219 119.671875 128.292969 119.683594 125.765625 C 120.007812 120.726562 120.453125 115.679688 121.621094 110.765625 Z M 380.363281 299.902344 C 379.789062 296.628906 378.714844 293.484375 377.523438 290.507812 C 376.347656 287.515625 375.0625 284.660156 374.035156 281.761719 C 373.003906 278.867188 372.21875 275.921875 371.722656 272.914062 C 370.71875 266.898438 370.925781 260.695312 371.585938 254.539062 C 371.796875 253.003906 371.972656 251.460938 372.214844 249.925781 C 372.488281 248.390625 372.714844 246.851562 373.027344 245.320312 L 373.980469 240.699219 C 374.324219 239.074219 374.570312 237.425781 374.699219 235.769531 C 374.976562 232.453125 374.84375 229.097656 374.285156 225.824219 C 373.726562 222.550781 372.753906 219.367188 371.484375 216.332031 C 368.933594 210.253906 365.21875 204.789062 360.90625 199.96875 C 358.738281 197.558594 356.425781 195.300781 353.992188 193.183594 C 351.546875 191.0625 349.035156 189.105469 346.253906 187.3125 C 345.640625 186.921875 344.820312 187.070312 344.394531 187.664062 C 343.949219 188.28125 344.089844 189.140625 344.703125 189.585938 L 344.761719 189.625 C 349.71875 193.199219 354.378906 197.492188 358.363281 202.1875 C 362.363281 206.890625 365.789062 212.089844 368.039062 217.742188 C 370.285156 223.382812 371.34375 229.449219 370.804688 235.4375 C 370.683594 236.933594 370.457031 238.421875 370.136719 239.890625 L 369.152344 244.5625 C 368.828125 246.132812 368.585938 247.722656 368.296875 249.304688 C 368.039062 250.890625 367.847656 252.492188 367.621094 254.089844 C 366.925781 260.5 366.824219 267.078125 367.957031 273.558594 C 368.527344 276.792969 369.414062 279.972656 370.542969 283.027344 C 371.660156 286.089844 373.003906 288.996094 374.234375 291.855469 C 375.46875 294.71875 376.515625 297.574219 377.109375 300.53125 C 377.726562 303.480469 377.90625 306.515625 377.742188 309.5625 C 377.605469 312.613281 377.148438 315.679688 376.464844 318.714844 C 375.820312 321.753906 374.925781 324.753906 374.019531 327.753906 L 374.003906 327.800781 C 373.832031 328.371094 374.140625 328.984375 374.710938 329.183594 C 375.296875 329.390625 375.9375 329.082031 376.144531 328.496094 C 376.671875 326.984375 377.242188 325.492188 377.734375 323.964844 C 378.199219 322.429688 378.703125 320.90625 379.078125 319.339844 C 379.910156 316.226562 380.527344 313.03125 380.800781 309.765625 C 381.0625 306.503906 380.953125 303.167969 380.363281 299.902344 Z M 334.882812 287.929688 C 333.894531 285.6875 332.746094 283.535156 331.546875 281.421875 C 330.957031 280.359375 330.320312 279.324219 329.695312 278.285156 C 329.125 277.296875 328.554688 276.328125 328.074219 275.3125 C 326.09375 271.277344 325.171875 266.855469 325.316406 262.332031 C 325.425781 257.800781 326.390625 253.1875 327.332031 248.515625 C 328.273438 243.835938 329.203125 239.054688 329.476562 234.183594 C 329.628906 231.753906 329.652344 229.316406 329.542969 226.882812 C 329.417969 224.449219 329.121094 222.03125 328.722656 219.636719 C 328.628906 219.050781 328.085938 218.636719 327.488281 218.703125 C 326.871094 218.773438 326.425781 219.328125 326.496094 219.945312 L 326.5 219.964844 C 326.761719 222.292969 326.90625 224.628906 326.945312 226.960938 C 326.957031 229.292969 326.839844 231.625 326.601562 233.945312 C 326.121094 238.589844 325.15625 243.179688 324.085938 247.816406 C 323.042969 252.453125 321.859375 257.191406 321.644531 262.214844 C 321.554688 264.714844 321.71875 267.261719 322.222656 269.757812 C 322.71875 272.253906 323.546875 274.679688 324.621094 276.960938 C 325.144531 278.105469 325.769531 279.203125 326.386719 280.28125 C 326.96875 281.296875 327.566406 282.304688 328.117188 283.335938 C 329.238281 285.386719 330.285156 287.464844 331.253906 289.574219 C 333.175781 293.792969 334.691406 298.179688 335.503906 302.675781 C 336.328125 307.171875 336.492188 311.761719 335.921875 316.339844 C 335.625 318.621094 335.234375 320.910156 334.714844 323.191406 C 334.191406 325.46875 333.570312 327.742188 332.9375 330.023438 L 332.933594 330.035156 C 332.746094 330.722656 333.113281 331.445312 333.792969 331.691406 C 334.507812 331.953125 335.296875 331.582031 335.554688 330.867188 C 337.1875 326.359375 338.648438 321.695312 339.402344 316.816406 C 340.136719 311.949219 340.214844 306.890625 339.332031 301.996094 C 338.480469 297.101562 336.878906 292.394531 334.882812 287.929688 Z M 330.496094 124.402344 C 331.046875 127.90625 331.488281 131.433594 331.730469 134.976562 C 331.964844 138.523438 332.042969 142.078125 331.996094 145.648438 C 331.988281 146.378906 332.554688 146.996094 333.289062 147.039062 C 334.046875 147.085938 334.699219 146.511719 334.742188 145.753906 C 335.199219 138.484375 334.9375 131.132812 333.933594 123.886719 C 332.925781 116.632812 331.15625 109.484375 328.714844 102.5625 C 326.1875 95.675781 323.003906 89.011719 319.097656 82.792969 C 317.191406 79.652344 315.039062 76.671875 312.824219 73.746094 C 311.667969 72.324219 310.515625 70.894531 309.320312 69.507812 C 308.078125 68.15625 306.910156 66.738281 305.609375 65.449219 C 300.539062 60.15625 294.976562 55.351562 289.074219 51.046875 L 286.859375 49.4375 C 286.082031 48.925781 285.308594 48.402344 284.519531 47.90625 C 282.929688 46.9375 281.3125 46.027344 279.660156 45.203125 C 276.355469 43.546875 272.945312 42.15625 269.480469 40.960938 C 262.550781 38.578125 255.433594 36.902344 248.261719 35.734375 C 241.074219 34.589844 233.875 33.808594 226.574219 33.617188 C 225.972656 33.601562 225.460938 34.066406 225.421875 34.671875 C 225.382812 35.289062 225.851562 35.824219 226.472656 35.863281 L 226.507812 35.867188 C 233.601562 36.324219 240.746094 37.253906 247.757812 38.570312 C 254.769531 39.933594 261.710938 41.652344 268.371094 44.082031 C 275.039062 46.527344 281.367188 49.609375 286.894531 54.003906 C 292.59375 58.246094 297.9375 62.957031 302.785156 68.121094 C 312.472656 78.445312 320.210938 90.59375 325.078125 103.890625 C 327.539062 110.519531 329.390625 117.394531 330.496094 124.402344 Z M 258.855469 246.972656 C 258.484375 246.949219 258.144531 247.121094 258.101562 247.355469 C 258.0625 247.59375 258.328125 247.800781 258.699219 247.824219 C 259.074219 247.847656 259.410156 247.675781 259.453125 247.441406 C 259.496094 247.207031 259.226562 246.996094 258.855469 246.972656 Z M 263.902344 235.335938 C 263.527344 235.3125 263.195312 235.484375 263.152344 235.71875 C 263.109375 235.953125 263.378906 236.164062 263.75 236.1875 C 264.121094 236.210938 264.460938 236.039062 264.503906 235.804688 C 264.546875 235.570312 264.277344 235.359375 263.902344 235.335938 Z M 258.191406 256.589844 C 257.820312 256.566406 257.480469 256.734375 257.4375 256.972656 C 257.394531 257.207031 257.660156 257.417969 258.035156 257.441406 C 258.410156 257.464844 258.746094 257.292969 258.789062 257.058594 C 258.835938 256.820312 258.566406 256.613281 258.191406 256.589844 Z M 261.320312 235.171875 C 260.945312 235.148438 260.609375 235.316406 260.566406 235.554688 C 260.523438 235.789062 260.796875 235.996094 261.167969 236.023438 C 261.542969 236.046875 261.878906 235.875 261.921875 235.640625 C 261.964844 235.402344 261.695312 235.195312 261.320312 235.171875 Z M 253.472656 245.769531 C 253.101562 245.746094 252.761719 245.917969 252.71875 246.152344 C 252.675781 246.386719 252.945312 246.597656 253.316406 246.621094 C 253.691406 246.644531 254.03125 246.472656 254.074219 246.238281 C 254.113281 246.003906 253.847656 245.792969 253.472656 245.769531 Z M 262.359375 257.558594 C 262.316406 257.792969 262.585938 258.003906 262.957031 258.023438 C 263.332031 258.050781 263.667969 257.878906 263.710938 257.644531 C 263.753906 257.40625 263.484375 257.199219 263.113281 257.175781 C 262.738281 257.148438 262.402344 257.324219 262.359375 257.558594 Z M 256.375 246.386719 C 256 246.359375 255.664062 246.53125 255.621094 246.765625 C 255.578125 247 255.847656 247.210938 256.21875 247.234375 C 256.59375 247.261719 256.929688 247.089844 256.972656 246.855469 C 257.015625 246.617188 256.746094 246.410156 256.375 246.386719 Z M 260.53125 257.011719 C 260.15625 256.988281 259.820312 257.160156 259.777344 257.390625 C 259.734375 257.628906 260 257.839844 260.375 257.859375 C 260.75 257.886719 261.085938 257.714844 261.128906 257.480469 C 261.171875 257.246094 260.902344 257.035156 260.53125 257.011719 Z M 258.234375 224.6875 C 257.859375 224.664062 257.523438 224.835938 257.480469 225.070312 C 257.4375 225.304688 257.703125 225.515625 258.078125 225.535156 C 258.453125 225.558594 258.789062 225.390625 258.832031 225.15625 C 258.875 224.921875 258.605469 224.710938 258.234375 224.6875 Z M 258.984375 234.753906 C 258.609375 234.726562 258.273438 234.898438 258.230469 235.132812 C 258.1875 235.367188 258.457031 235.578125 258.828125 235.601562 C 259.203125 235.628906 259.539062 235.453125 259.585938 235.222656 C 259.625 234.984375 259.355469 234.777344 258.984375 234.753906 Z M 260.570312 225.105469 C 260.195312 225.082031 259.859375 225.253906 259.816406 225.488281 C 259.773438 225.722656 260.042969 225.933594 260.417969 225.957031 C 260.789062 225.980469 261.128906 225.808594 261.167969 225.574219 C 261.210938 225.34375 260.945312 225.128906 260.570312 225.105469 Z M 246.40625 269.113281 C 242.679688 273.226562 233.28125 278 232.714844 278.285156 C 232.777344 279.085938 232.84375 279.886719 232.914062 280.6875 C 235.464844 278.171875 243.832031 273.707031 246.347656 272.394531 C 246.414062 271.304688 246.433594 270.210938 246.40625 269.113281 Z M 246.328125 272.664062 C 243.84375 274.808594 235.777344 281.625 233.050781 282.234375 C 233.164062 283.480469 233.285156 284.722656 233.410156 285.957031 C 236.605469 282.890625 243.425781 276.683594 245.628906 277.480469 C 245.988281 275.894531 246.214844 274.285156 246.328125 272.664062 Z M 232.714844 278.261719 C 233.289062 277.542969 242.164062 266.554688 246.097656 265.109375 C 245.902344 263.535156 245.617188 261.960938 245.257812 260.390625 C 245.183594 260.464844 234.128906 270.679688 232.207031 270.792969 C 232.347656 273.257812 232.515625 275.757812 232.714844 278.261719 Z M 231.863281 262.582031 C 233.007812 261.972656 240.398438 257.054688 243.671875 254.871094 C 243.378906 254.03125 243.066406 253.195312 242.730469 252.367188 L 231.808594 260.0625 C 231.820312 260.894531 231.839844 261.734375 231.863281 262.582031 Z M 231.78125 257.527344 L 242.09375 250.847656 C 240.480469 247.109375 238.597656 243.425781 237.152344 239.65625 C 237.097656 239.511719 237.050781 239.367188 236.996094 239.226562 C 236.605469 239.785156 236.054688 240.515625 235.410156 241.1875 C 236.554688 242.519531 237.148438 244.480469 236.882812 246.609375 C 236.484375 249.746094 234.351562 252.230469 231.824219 252.761719 C 231.789062 254.289062 231.777344 255.882812 231.78125 257.527344 Z M 232.121094 239.460938 C 232.863281 239.519531 233.550781 239.753906 234.160156 240.117188 C 234.933594 239.269531 235.757812 238.21875 236.339844 237.449219 C 235.972656 236.414062 235.628906 235.378906 235.300781 234.34375 C 234.414062 235.292969 232.816406 236.917969 231.609375 237.660156 C 230.53125 238.324219 228.753906 236.644531 227.53125 235.242188 C 227.160156 235.964844 226.796875 236.6875 226.429688 237.410156 C 227.246094 238.039062 228.542969 239.023438 229.71875 239.882812 C 230.476562 239.550781 231.289062 239.390625 232.121094 239.460938 Z M 231.359375 284.683594 C 231.242188 283.5 231.128906 282.3125 231.023438 281.125 C 227.632812 280.5625 215.617188 272.421875 215.601562 272.414062 C 216.019531 274.304688 216.75 276.175781 217.683594 277.996094 C 218.640625 275.699219 227.304688 281.707031 231.359375 284.683594 Z M 215.601562 272.414062 C 215.613281 272.417969 227.347656 276.949219 230.894531 279.585938 C 230.625 276.390625 230.402344 273.191406 230.234375 270.054688 C 226.574219 268.207031 219.3125 263.386719 216.453125 261.46875 C 216.046875 262.867188 215.703125 264.277344 215.484375 265.699219 C 219.90625 267.183594 230.710938 277.285156 230.710938 277.285156 C 230.710938 277.285156 219.445312 273.035156 215.214844 269.128906 C 215.226562 270.222656 215.363281 271.320312 215.601562 272.414062 Z M 218.40625 255.71875 C 221.261719 257.484375 226.871094 260.878906 229.914062 262.140625 C 229.886719 261.09375 229.867188 260.0625 229.855469 259.046875 L 219.234375 253.484375 C 218.945312 254.226562 218.683594 254.972656 218.40625 255.71875 Z M 220.230469 251.007812 L 229.839844 257.066406 C 229.835938 255.59375 229.847656 254.160156 229.878906 252.78125 C 227.089844 252.21875 225.238281 249.183594 225.675781 245.710938 C 225.917969 243.777344 226.824219 242.097656 228.074219 240.960938 C 227.082031 240.265625 226.1875 239.550781 225.605469 239.058594 C 223.65625 243.007812 221.855469 246.992188 220.230469 251.007812 Z M 246.445312 257.308594 C 250.195312 269.640625 249.308594 282.886719 238.855469 292.972656 C 237.890625 293.15625 236.921875 293.324219 235.945312 293.480469 C 240.363281 289.582031 243.195312 285.171875 244.78125 280.492188 C 242.097656 282.808594 236.402344 285.527344 233.503906 286.832031 C 233.75 289.175781 234.023438 291.472656 234.308594 293.726562 C 233.683594 293.816406 233.054688 293.902344 232.425781 293.980469 C 232.070312 291.253906 231.742188 288.449219 231.449219 285.597656 C 228.101562 284.472656 221.441406 282.074219 218.769531 279.949219 C 219.398438 280.996094 220.078125 282.027344 220.796875 283.027344 C 223.59375 286.929688 227.296875 290.757812 231.5625 294.082031 C 230.945312 294.152344 230.324219 294.21875 229.703125 294.277344 C 225.753906 291.144531 222.367188 287.621094 219.539062 284.011719 C 214.984375 278.183594 213.230469 272.460938 213.644531 266.445312 C 213.648438 266.390625 213.640625 266.335938 213.648438 266.28125 C 213.652344 266.277344 213.652344 266.273438 213.65625 266.265625 C 213.820312 264.132812 214.246094 261.960938 214.929688 259.734375 C 215.453125 258.03125 216.027344 256.332031 216.640625 254.636719 L 216.644531 254.613281 L 216.648438 254.617188 C 216.898438 253.921875 217.152344 253.226562 217.417969 252.535156 L 217.480469 252.378906 L 218.40625 250.03125 L 218.464844 249.890625 L 218.464844 249.894531 C 220.710938 244.386719 223.351562 238.945312 226.21875 233.578125 L 226.214844 233.578125 C 226.214844 233.578125 226.238281 233.542969 226.269531 233.484375 C 228.152344 229.960938 230.132812 226.472656 232.15625 223.023438 C 232.871094 222.992188 233.585938 222.964844 234.300781 222.929688 C 235.527344 228.851562 237.257812 234.757812 239.476562 240.558594 C 240.683594 243.710938 242.175781 246.789062 243.5625 249.894531 L 243.5625 249.890625 L 243.5625 249.898438 C 244.148438 251.203125 244.703125 252.515625 245.222656 253.835938 C 245.222656 253.835938 245.230469 253.828125 245.230469 253.828125 L 245.230469 253.859375 C 245.675781 255 246.09375 256.148438 246.445312 257.308594 Z M 256.503906 234.160156 C 256.132812 234.136719 255.792969 234.3125 255.75 234.546875 C 255.707031 234.78125 255.976562 234.988281 256.347656 235.015625 C 256.722656 235.039062 257.058594 234.867188 257.101562 234.632812 C 257.144531 234.398438 256.875 234.1875 256.503906 234.160156 Z M 253.601562 233.546875 C 253.226562 233.523438 252.890625 233.695312 252.847656 233.929688 C 252.804688 234.164062 253.074219 234.375 253.449219 234.398438 C 253.820312 234.421875 254.160156 234.25 254.199219 234.015625 C 254.242188 233.78125 253.976562 233.570312 253.601562 233.546875 Z M 263.152344 225.273438 C 262.78125 225.246094 262.441406 225.421875 262.398438 225.652344 C 262.355469 225.890625 262.628906 226.097656 263 226.121094 C 263.375 226.148438 263.710938 225.976562 263.753906 225.742188 C 263.796875 225.507812 263.527344 225.296875 263.152344 225.273438 Z M 273.445312 251.726562 C 273.074219 251.703125 272.734375 251.875 272.691406 252.105469 C 272.652344 252.34375 272.917969 252.554688 273.292969 252.578125 C 273.667969 252.597656 274.003906 252.429688 274.046875 252.195312 C 274.089844 251.960938 273.820312 251.75 273.445312 251.726562 Z M 267.210938 228.382812 C 267.585938 228.375 267.882812 228.179688 267.871094 227.941406 C 267.867188 227.707031 267.554688 227.519531 267.179688 227.527344 C 266.804688 227.535156 266.507812 227.734375 266.511719 227.96875 C 266.523438 228.203125 266.832031 228.390625 267.210938 228.382812 Z M 280.035156 245.332031 C 274.128906 248.476562 269.128906 249.015625 266.90625 249.078125 C 266.917969 251.238281 266.914062 253.441406 266.898438 255.660156 C 270.039062 255.472656 273.511719 254.394531 275.824219 253.539062 C 277.761719 250.957031 279.355469 248.171875 280.035156 245.332031 Z M 274.425781 255.367188 L 274.289062 255.464844 C 271.96875 256.894531 268.839844 258.3125 266.863281 259.160156 C 266.84375 260.613281 266.820312 262.066406 266.789062 263.519531 C 270.113281 261.050781 272.191406 258.28125 274.425781 255.367188 Z M 266.882812 245.917969 C 272.132812 245.40625 277.734375 243.058594 280.359375 241.835938 C 280.21875 239.042969 279.308594 236.28125 278.25 233.574219 C 272.554688 236.226562 267.695312 237.085938 266.695312 237.238281 C 266.785156 239.972656 266.847656 242.886719 266.882812 245.917969 Z M 265.117188 251.632812 C 265.117188 248.804688 265.09375 246.03125 265.046875 243.367188 C 262.886719 243.285156 257.65625 242.863281 251.746094 240.703125 C 251.710938 243.925781 252.234375 247.128906 253.417969 250.222656 C 256.136719 251.046875 260.914062 252.1875 265.117188 251.632812 Z M 265.105469 255.460938 C 264.175781 255.53125 259.375 255.800781 255.304688 254.144531 C 257.449219 257.777344 260.625 261.183594 264.984375 264.191406 C 265.015625 262.765625 265.039062 261.335938 265.058594 259.90625 C 265.003906 259.929688 264.964844 259.945312 264.964844 259.945312 L 265.070312 259.203125 C 265.085938 257.949219 265.097656 256.703125 265.105469 255.460938 Z M 251.863281 238.457031 C 254.410156 239.046875 260.519531 240.375 264.992188 240.605469 C 264.898438 236.769531 264.757812 233.21875 264.5625 230.109375 C 263.480469 230.070312 258.972656 229.800781 254.632812 228.109375 C 254.175781 229.15625 253.753906 230.210938 253.394531 231.273438 C 252.601562 233.640625 252.085938 236.046875 251.863281 238.457031 Z M 255.691406 225.804688 C 257.136719 226.402344 260.988281 227.859375 264.425781 228.132812 C 264.285156 226.269531 264.121094 224.605469 263.9375 223.1875 L 257.675781 221.769531 L 257.792969 221.527344 C 257.09375 222.953125 256.375 224.378906 255.691406 225.804688 Z M 278.445312 252.480469 C 278.445312 252.480469 278.453125 252.476562 278.453125 252.476562 L 278.441406 252.484375 C 277.878906 253.316406 277.253906 254.148438 276.542969 254.980469 C 275.410156 256.3125 274.382812 257.613281 273.3125 258.875 C 271.644531 260.847656 269.867188 262.722656 267.445312 264.453125 C 267.222656 264.613281 266.992188 264.769531 266.761719 264.925781 C 266.621094 270.996094 266.390625 276.953125 266.078125 282.351562 C 265.46875 282.753906 264.851562 283.144531 264.226562 283.527344 C 264.558594 278.007812 264.808594 271.855469 264.953125 265.574219 C 264.800781 265.558594 264.65625 265.53125 264.5625 265.46875 C 263.867188 265.023438 263.210938 264.566406 262.570312 264.101562 C 255.390625 258.90625 251.464844 252.578125 250.21875 245.964844 C 249.371094 241.46875 249.757812 236.839844 251.199219 232.34375 C 252.460938 228.421875 254.546875 224.675781 256.324219 220.859375 C 257.730469 220.660156 259.144531 220.449219 260.558594 220.226562 L 263.703125 221.597656 C 263.234375 221.09375 262.921875 220.507812 262.71875 219.882812 C 264.292969 219.621094 265.875 219.335938 267.460938 219.035156 C 266.632812 220.230469 265.417969 221.351562 265.417969 221.351562 L 265.414062 221.351562 C 265.464844 221.367188 265.496094 221.386719 265.5 221.410156 C 265.957031 224.148438 266.300781 228.210938 266.53125 233.09375 C 269.625 232.480469 274.164062 230.640625 276.601562 229.597656 C 275.28125 226.554688 273.808594 223.53125 272.230469 220.53125 C 268.617188 222.605469 265.820312 223.417969 265.820312 223.417969 L 265.535156 221.613281 C 268.019531 220.824219 270.253906 219.003906 271.015625 218.339844 C 271.640625 218.210938 272.265625 218.078125 272.890625 217.945312 C 274.882812 221.546875 276.71875 225.183594 278.296875 228.851562 L 278.300781 228.847656 L 278.355469 228.992188 L 279.847656 232.679688 L 279.886719 232.777344 C 279.886719 232.777344 279.886719 232.777344 279.882812 232.777344 C 280.105469 233.363281 280.320312 233.949219 280.527344 234.539062 C 281.0625 236.050781 281.433594 237.527344 281.65625 238.988281 C 281.765625 239.695312 281.84375 240.398438 281.875 241.097656 L 281.875 241.113281 C 281.882812 241.289062 281.878906 241.460938 281.878906 241.636719 C 281.890625 242.527344 281.839844 243.414062 281.714844 244.292969 L 281.714844 244.382812 C 281.710938 244.382812 281.707031 244.386719 281.703125 244.386719 C 281.3125 247.117188 280.257812 249.796875 278.445312 252.480469 Z M 275.679688 251.441406 C 275.304688 251.414062 274.96875 251.585938 274.925781 251.820312 C 274.882812 252.054688 275.152344 252.265625 275.523438 252.289062 C 275.898438 252.3125 276.234375 252.140625 276.277344 251.90625 C 276.320312 251.671875 276.050781 251.464844 275.679688 251.441406 Z M 270.179688 227.46875 C 270.171875 227.234375 269.859375 227.046875 269.484375 227.054688 C 269.109375 227.0625 268.8125 227.257812 268.816406 227.492188 C 268.824219 227.730469 269.136719 227.914062 269.511719 227.910156 C 269.890625 227.898438 270.1875 227.703125 270.179688 227.46875 Z M 283.808594 263.578125 C 284.199219 262.859375 284.59375 262.066406 284.992188 261.210938 C 283.382812 260.398438 282.023438 259.691406 281.316406 259.316406 C 281.386719 258.851562 281.460938 258.386719 281.539062 257.921875 C 281.609375 257.523438 281.699219 257.125 281.777344 256.726562 C 282.730469 257.253906 284.273438 258.105469 285.976562 259.011719 C 286.402344 258.015625 286.835938 256.957031 287.265625 255.851562 C 285.386719 254.742188 283.636719 253.671875 282.648438 253.0625 C 282.914062 252.09375 283.195312 251.121094 283.484375 250.152344 C 284.398438 250.699219 286.347656 251.855469 288.355469 252.96875 C 289.296875 250.402344 290.234375 247.648438 291.152344 244.816406 C 289.488281 244.125 287.195312 242.835938 285.851562 242.050781 C 285.964844 241.621094 286.078125 241.191406 286.179688 240.761719 C 286.3125 240.1875 286.4375 239.609375 286.5625 239.035156 C 289.039062 240 291.246094 239.671875 292.992188 238.960938 C 293.730469 236.550781 294.441406 234.144531 295.113281 231.800781 C 293.003906 228.925781 290.832031 226.085938 288.625 223.28125 C 288.316406 222.890625 286.773438 223.308594 286.742188 223.769531 C 286.328125 229.816406 285.421875 235.910156 283.996094 241.972656 C 282.621094 247.847656 280.304688 253.613281 279.359375 259.511719 C 278.753906 263.28125 278.578125 267.070312 278.914062 270.765625 C 280.070312 269.335938 281.160156 267.820312 282.195312 266.234375 C 281.613281 266 281.125 265.800781 280.769531 265.652344 C 280.796875 264.472656 280.867188 263.285156 280.980469 262.101562 C 281.386719 262.320312 282.4375 262.882812 283.808594 263.578125 Z M 274.828125 226.214844 C 274.820312 225.976562 274.507812 225.792969 274.132812 225.800781 C 273.757812 225.808594 273.460938 226.007812 273.46875 226.242188 C 273.476562 226.476562 273.785156 226.660156 274.160156 226.65625 C 274.539062 226.644531 274.835938 226.445312 274.828125 226.214844 Z M 272.675781 226.6875 C 272.667969 226.449219 272.355469 226.265625 271.980469 226.273438 C 271.605469 226.28125 271.304688 226.476562 271.3125 226.714844 C 271.320312 226.949219 271.632812 227.132812 272.011719 227.125 C 272.382812 227.121094 272.683594 226.921875 272.675781 226.6875 Z M 274.996094 240.394531 C 275.371094 240.417969 275.707031 240.246094 275.75 240.011719 C 275.792969 239.777344 275.523438 239.566406 275.152344 239.542969 C 274.777344 239.519531 274.441406 239.691406 274.398438 239.925781 C 274.355469 240.160156 274.621094 240.367188 274.996094 240.394531 Z M 261.191406 247.394531 C 260.820312 247.371094 260.480469 247.542969 260.4375 247.773438 C 260.394531 248.011719 260.664062 248.21875 261.039062 248.246094 C 261.414062 248.269531 261.75 248.097656 261.792969 247.859375 C 261.835938 247.628906 261.566406 247.417969 261.191406 247.394531 Z M 277.230469 240.105469 C 277.601562 240.128906 277.9375 239.957031 277.980469 239.722656 C 278.023438 239.488281 277.757812 239.277344 277.382812 239.253906 C 277.007812 239.230469 276.671875 239.402344 276.628906 239.636719 C 276.585938 239.871094 276.855469 240.082031 277.230469 240.105469 Z M 198.566406 225.742188 C 198.566406 225.742188 209.472656 229.855469 213.566406 233.640625 C 213.554688 232.574219 213.425781 231.515625 213.191406 230.457031 C 213.179688 230.453125 201.824219 226.066406 198.390625 223.515625 C 198.648438 226.609375 198.863281 229.703125 199.027344 232.738281 C 202.570312 234.527344 209.597656 239.191406 212.367188 241.054688 C 212.761719 239.699219 213.09375 238.332031 213.308594 236.957031 C 209.023438 235.519531 198.566406 225.742188 198.566406 225.742188 Z M 210.476562 246.617188 C 207.714844 244.90625 202.28125 241.625 199.339844 240.398438 C 199.363281 241.414062 199.382812 242.414062 199.394531 243.398438 L 209.675781 248.78125 C 209.953125 248.0625 210.210938 247.339844 210.476562 246.617188 Z M 208.714844 251.179688 L 199.410156 245.3125 C 199.414062 246.738281 199.402344 248.125 199.371094 249.460938 C 202.070312 250.007812 203.863281 252.945312 203.441406 256.304688 C 203.203125 258.179688 202.328125 259.804688 201.117188 260.902344 C 202.078125 261.574219 202.941406 262.269531 203.507812 262.742188 C 205.394531 258.921875 207.136719 255.066406 208.714844 251.179688 Z M 202.710938 264.339844 C 201.921875 263.730469 200.664062 262.777344 199.523438 261.949219 C 198.792969 262.269531 198.003906 262.421875 197.199219 262.359375 C 196.480469 262.300781 195.816406 262.074219 195.226562 261.71875 C 194.476562 262.542969 193.683594 263.558594 193.117188 264.304688 C 193.472656 265.304688 193.804688 266.304688 194.125 267.3125 C 194.984375 266.390625 196.527344 264.816406 197.695312 264.097656 C 198.738281 263.453125 200.460938 265.082031 201.640625 266.441406 C 202.003906 265.742188 202.355469 265.039062 202.710938 264.339844 Z M 192.484375 262.582031 C 192.859375 262.042969 193.394531 261.335938 194.015625 260.683594 C 192.910156 259.394531 192.335938 257.496094 192.59375 255.433594 C 192.976562 252.398438 195.042969 249.996094 197.488281 249.480469 C 197.523438 248 197.535156 246.457031 197.527344 244.867188 L 187.550781 251.335938 C 189.109375 254.953125 190.929688 258.515625 192.328125 262.167969 C 192.382812 262.304688 192.429688 262.445312 192.484375 262.582031 Z M 186.933594 249.863281 L 197.503906 242.410156 C 197.488281 241.609375 197.472656 240.796875 197.453125 239.972656 C 196.34375 240.566406 189.1875 245.324219 186.019531 247.4375 C 186.304688 248.25 186.605469 249.058594 186.933594 249.863281 Z M 197.117188 232.023438 C 196.984375 229.640625 196.820312 227.222656 196.628906 224.796875 C 196.070312 225.492188 187.480469 236.128906 183.671875 237.527344 C 183.863281 239.054688 184.136719 240.578125 184.484375 242.09375 C 184.558594 242.023438 195.257812 232.132812 197.117188 232.023438 Z M 183.371094 233.652344 C 186.980469 229.671875 196.078125 225.050781 196.625 224.773438 C 196.5625 223.996094 196.5 223.222656 196.433594 222.445312 C 193.964844 224.882812 185.863281 229.203125 183.429688 230.476562 C 183.363281 231.53125 183.34375 232.589844 183.371094 233.652344 Z M 213.839844 242.730469 C 213.335938 244.378906 212.78125 246.023438 212.1875 247.664062 L 212.183594 247.6875 L 212.179688 247.683594 C 211.9375 248.359375 211.6875 249.03125 211.433594 249.699219 L 211.375 249.851562 L 210.476562 252.125 L 210.421875 252.257812 C 208.246094 257.585938 205.6875 262.855469 202.914062 268.046875 L 202.917969 268.050781 C 202.917969 268.050781 202.898438 268.085938 202.863281 268.140625 C 200.980469 271.667969 198.996094 275.160156 196.964844 278.613281 C 196.722656 279.027344 195.1875 278.832031 195.097656 278.390625 C 193.910156 272.648438 192.234375 266.921875 190.078125 261.292969 C 188.910156 258.242188 187.46875 255.261719 186.128906 252.257812 L 186.125 252.257812 L 186.125 252.253906 C 185.558594 250.988281 185.019531 249.71875 184.519531 248.441406 C 184.519531 248.441406 184.511719 248.445312 184.511719 248.445312 L 184.511719 248.417969 C 184.082031 247.3125 183.675781 246.203125 183.332031 245.078125 C 180.863281 236.957031 180.480469 228.429688 183.667969 220.730469 C 184.300781 220.816406 184.9375 220.898438 185.578125 220.980469 C 185.351562 221.527344 185.136719 222.078125 184.945312 222.636719 C 185.507812 222.152344 186.199219 221.652344 186.972656 221.152344 C 188.355469 221.324219 189.761719 221.484375 191.1875 221.636719 C 188.378906 223.976562 185.425781 226.019531 184.125 225.550781 C 183.777344 227.085938 183.558594 228.644531 183.449219 230.214844 C 185.375 228.554688 190.757812 224 194.183594 221.945312 C 195.925781 222.113281 197.703125 222.265625 199.507812 222.40625 C 203.792969 224.09375 213.179688 230.449219 213.191406 230.457031 C 212.785156 228.628906 212.078125 226.816406 211.175781 225.050781 L 211.175781 225.054688 C 210.617188 226.390625 207.363281 224.816406 204 222.726562 C 205.949219 222.847656 207.929688 222.945312 209.9375 223.027344 C 210 223.074219 210.066406 223.117188 210.125 223.164062 C 210.097656 223.117188 210.070312 223.078125 210.042969 223.035156 C 210.679688 223.058594 211.324219 223.078125 211.964844 223.101562 C 214.4375 227.429688 215.394531 231.75 215.085938 236.234375 C 215.082031 236.285156 215.089844 236.339844 215.082031 236.390625 C 215.078125 236.398438 215.078125 236.402344 215.074219 236.410156 C 214.917969 238.476562 214.503906 240.574219 213.839844 242.730469 Z M 263.777344 247.558594 C 263.402344 247.535156 263.066406 247.703125 263.019531 247.941406 C 262.980469 248.175781 263.25 248.386719 263.621094 248.410156 C 263.992188 248.433594 264.335938 248.261719 264.375 248.027344 C 264.417969 247.789062 264.148438 247.585938 263.777344 247.558594 Z M 270.8125 252.292969 C 270.4375 252.269531 270.101562 252.441406 270.058594 252.675781 C 270.015625 252.910156 270.28125 253.121094 270.65625 253.144531 C 271.027344 253.164062 271.367188 252.996094 271.410156 252.761719 C 271.453125 252.527344 271.183594 252.316406 270.8125 252.292969 Z M 272.363281 240.957031 C 272.734375 240.984375 273.070312 240.8125 273.113281 240.578125 C 273.15625 240.34375 272.890625 240.132812 272.515625 240.109375 C 272.140625 240.085938 271.804688 240.253906 271.761719 240.492188 C 271.71875 240.726562 271.988281 240.933594 272.363281 240.957031 Z M 269.976562 241.238281 C 270.351562 241.261719 270.6875 241.089844 270.730469 240.855469 C 270.773438 240.617188 270.507812 240.410156 270.132812 240.386719 C 269.757812 240.363281 269.421875 240.535156 269.378906 240.769531 C 269.335938 241 269.605469 241.210938 269.976562 241.238281 Z M 268.429688 252.570312 C 268.058594 252.546875 267.71875 252.71875 267.675781 252.953125 C 267.632812 253.1875 267.902344 253.394531 268.273438 253.421875 C 268.648438 253.445312 268.984375 253.273438 269.027344 253.039062 C 269.070312 252.804688 268.800781 252.597656 268.429688 252.570312 Z M 169.660156 276.253906 C 170.023438 276.273438 170.347656 276.105469 170.390625 275.878906 C 170.433594 275.65625 170.171875 275.449219 169.808594 275.429688 C 169.449219 275.402344 169.121094 275.570312 169.082031 275.796875 C 169.039062 276.023438 169.300781 276.226562 169.660156 276.253906 Z M 173.871094 254.828125 C 173.511719 254.804688 173.183594 254.972656 173.144531 255.199219 C 173.101562 255.429688 173.363281 255.628906 173.722656 255.652344 C 174.085938 255.679688 174.410156 255.511719 174.453125 255.285156 C 174.496094 255.054688 174.234375 254.851562 173.871094 254.828125 Z M 175.949219 255.796875 C 175.910156 256.019531 176.171875 256.226562 176.53125 256.246094 C 176.894531 256.269531 177.222656 256.105469 177.261719 255.878906 C 177.300781 255.648438 177.042969 255.449219 176.683594 255.425781 C 176.320312 255.402344 175.992188 255.566406 175.949219 255.796875 Z M 171.472656 254.261719 C 171.109375 254.238281 170.78125 254.402344 170.742188 254.628906 C 170.699219 254.855469 170.960938 255.058594 171.320312 255.082031 C 171.683594 255.105469 172.007812 254.941406 172.054688 254.714844 C 172.089844 254.484375 171.832031 254.28125 171.472656 254.261719 Z M 158.828125 261.359375 C 158.871094 261.132812 158.609375 260.929688 158.246094 260.90625 C 157.886719 260.882812 157.5625 261.050781 157.519531 261.273438 C 157.476562 261.503906 157.738281 261.707031 158.097656 261.726562 C 158.460938 261.753906 158.789062 261.589844 158.828125 261.359375 Z M 161.136719 261.089844 C 161.175781 260.863281 160.914062 260.660156 160.554688 260.636719 C 160.195312 260.613281 159.867188 260.78125 159.824219 261.007812 C 159.78125 261.234375 160.042969 261.4375 160.40625 261.460938 C 160.765625 261.484375 161.09375 261.316406 161.136719 261.089844 Z M 169.210938 253.851562 C 168.847656 253.828125 168.519531 253.996094 168.480469 254.222656 C 168.4375 254.449219 168.695312 254.652344 169.058594 254.675781 C 169.421875 254.699219 169.746094 254.53125 169.789062 254.308594 C 169.828125 254.078125 169.570312 253.878906 169.210938 253.851562 Z M 178.203125 261.152344 C 178.238281 258.03125 177.730469 254.933594 176.585938 251.9375 C 173.953125 251.140625 169.328125 250.039062 165.261719 250.574219 C 165.261719 253.3125 165.28125 255.996094 165.328125 258.574219 C 167.417969 258.652344 172.484375 259.0625 178.203125 261.152344 Z M 178.089844 263.328125 C 175.621094 262.757812 169.710938 261.472656 165.382812 261.246094 C 165.46875 264.960938 165.609375 268.398438 165.796875 271.40625 C 166.84375 271.445312 171.207031 271.707031 175.40625 273.347656 C 175.851562 272.332031 176.261719 271.3125 176.609375 270.277344 C 177.375 267.992188 177.878906 265.660156 178.089844 263.328125 Z M 174.386719 275.574219 C 172.984375 274.996094 169.257812 273.585938 165.929688 273.320312 C 166.066406 275.125 166.222656 276.734375 166.402344 278.109375 L 172.464844 279.480469 L 172.351562 279.71875 C 173.027344 278.335938 173.722656 276.957031 174.386719 275.574219 Z M 165.273438 246.867188 C 166.171875 246.800781 170.820312 246.539062 174.757812 248.140625 C 172.683594 244.625 169.609375 241.328125 165.386719 238.414062 C 165.359375 239.796875 165.335938 241.179688 165.316406 242.5625 C 165.371094 242.539062 165.410156 242.527344 165.410156 242.527344 L 165.308594 243.246094 C 165.289062 244.457031 165.277344 245.664062 165.273438 246.867188 Z M 163.640625 239.066406 C 160.425781 241.457031 158.410156 244.136719 156.253906 246.960938 L 156.382812 246.867188 C 158.628906 245.480469 161.65625 244.105469 163.570312 243.285156 C 163.589844 241.882812 163.613281 240.472656 163.640625 239.066406 Z M 163.535156 246.671875 C 160.496094 246.855469 157.132812 247.898438 154.894531 248.726562 C 153.019531 251.226562 151.476562 253.921875 150.820312 256.671875 C 156.535156 253.628906 161.378906 253.109375 163.527344 253.046875 C 163.519531 250.957031 163.519531 248.824219 163.535156 246.671875 Z M 179.679688 256.058594 C 180.5 260.410156 180.128906 264.890625 178.730469 269.246094 C 177.234375 273.902344 174.53125 278.296875 172.652344 282.886719 C 172.441406 283.40625 172.253906 283.933594 172.050781 284.457031 C 171.546875 284.175781 171.054688 283.890625 170.582031 283.601562 C 170.898438 282.824219 171.246094 282.058594 171.601562 281.289062 L 171.394531 281.722656 L 166.628906 279.648438 C 167.171875 280.230469 167.503906 280.921875 167.691406 281.664062 C 166.558594 280.808594 165.589844 279.9375 164.773438 279.054688 C 164.386719 276.441406 164.09375 272.8125 163.890625 268.519531 C 162.21875 268.851562 160.125 269.550781 158.183594 270.277344 C 157.402344 269.082031 156.648438 267.867188 155.929688 266.644531 C 159.890625 265.167969 162.972656 264.625 163.730469 264.507812 C 163.644531 261.859375 163.585938 259.039062 163.550781 256.105469 C 159.328125 256.515625 154.878906 258.152344 152.035156 259.375 C 151.277344 257.820312 150.5625 256.261719 149.886719 254.699219 C 150.433594 253.046875 151.246094 251.398438 152.359375 249.753906 C 152.359375 249.753906 152.351562 249.757812 152.351562 249.757812 L 152.363281 249.746094 C 152.90625 248.945312 153.515625 248.140625 154.199219 247.332031 C 155.300781 246.042969 156.292969 244.785156 157.324219 243.5625 C 158.945312 241.652344 160.660156 239.835938 163.007812 238.164062 C 163.222656 238.007812 163.441406 237.855469 163.671875 237.703125 C 163.832031 230.554688 164.125 223.554688 164.535156 217.511719 C 165.097656 217.625 165.664062 217.738281 166.238281 217.855469 C 165.855469 223.648438 165.578125 230.289062 165.417969 237.078125 C 165.570312 237.09375 165.707031 237.121094 165.800781 237.179688 C 166.46875 237.609375 167.105469 238.054688 167.726562 238.5 C 174.675781 243.535156 178.472656 249.65625 179.679688 256.058594 Z M 171.199219 266.914062 C 171.558594 266.9375 171.886719 266.769531 171.925781 266.546875 C 171.96875 266.316406 171.710938 266.113281 171.347656 266.09375 C 170.984375 266.066406 170.660156 266.234375 170.617188 266.460938 C 170.578125 266.6875 170.835938 266.890625 171.199219 266.914062 Z M 169.699219 245.367188 C 170.0625 245.390625 170.390625 245.222656 170.429688 245 C 170.472656 244.769531 170.214844 244.566406 169.851562 244.542969 C 169.488281 244.519531 169.160156 244.6875 169.121094 244.914062 C 169.082031 245.140625 169.339844 245.34375 169.699219 245.367188 Z M 173.601562 267.484375 C 173.960938 267.507812 174.285156 267.339844 174.328125 267.113281 C 174.371094 266.886719 174.109375 266.683594 173.746094 266.660156 C 173.386719 266.636719 173.058594 266.804688 173.019531 267.03125 C 172.980469 267.257812 173.238281 267.460938 173.601562 267.484375 Z M 176.40625 268.078125 C 176.769531 268.101562 177.09375 267.9375 177.136719 267.710938 C 177.179688 267.484375 176.917969 267.277344 176.554688 267.257812 C 176.195312 267.234375 175.867188 267.398438 175.828125 267.628906 C 175.785156 267.855469 176.046875 268.058594 176.40625 268.078125 Z M 171.921875 276.65625 C 172.285156 276.679688 172.613281 276.515625 172.652344 276.285156 C 172.695312 276.058594 172.433594 275.855469 172.074219 275.835938 C 171.710938 275.8125 171.382812 275.976562 171.34375 276.203125 C 171.304688 276.429688 171.5625 276.632812 171.921875 276.65625 Z M 167.929688 244.835938 C 167.972656 244.609375 167.710938 244.40625 167.351562 244.386719 C 166.988281 244.363281 166.660156 244.527344 166.621094 244.753906 C 166.582031 244.984375 166.839844 245.183594 167.199219 245.207031 C 167.5625 245.230469 167.890625 245.0625 167.929688 244.835938 Z M 166.433594 266.351562 C 166.800781 266.371094 167.121094 266.207031 167.164062 265.976562 C 167.207031 265.753906 166.945312 265.546875 166.585938 265.523438 C 166.222656 265.503906 165.894531 265.667969 165.855469 265.894531 C 165.8125 266.121094 166.074219 266.324219 166.433594 266.351562 Z M 166.710938 253.691406 C 166.347656 253.671875 166.019531 253.835938 165.980469 254.0625 C 165.9375 254.292969 166.199219 254.492188 166.558594 254.515625 C 166.921875 254.539062 167.246094 254.375 167.289062 254.144531 C 167.328125 253.921875 167.070312 253.71875 166.710938 253.691406 Z M 168.933594 266.507812 C 169.296875 266.53125 169.621094 266.367188 169.664062 266.136719 C 169.707031 265.910156 169.445312 265.707031 169.085938 265.683594 C 168.722656 265.660156 168.394531 265.828125 168.355469 266.054688 C 168.3125 266.28125 168.574219 266.484375 168.933594 266.507812 Z M 157.347656 249.660156 C 156.984375 249.636719 156.65625 249.800781 156.617188 250.027344 C 156.574219 250.257812 156.835938 250.460938 157.195312 250.484375 C 157.558594 250.503906 157.886719 250.339844 157.929688 250.113281 C 157.96875 249.886719 157.710938 249.683594 157.347656 249.660156 Z M 163.234375 273.078125 C 162.871094 273.085938 162.585938 273.277344 162.59375 273.507812 C 162.597656 273.734375 162.898438 273.914062 163.265625 273.90625 C 163.628906 273.898438 163.914062 273.707031 163.910156 273.480469 C 163.902344 273.253906 163.601562 273.070312 163.234375 273.078125 Z M 163.9375 278.097656 C 164.054688 278.238281 164.171875 278.382812 164.289062 278.523438 C 164.4375 278.699219 164.601562 278.871094 164.765625 279.046875 L 164.582031 277.886719 C 164.582031 277.886719 164.347656 277.953125 163.9375 278.097656 Z M 155.1875 249.9375 C 154.824219 249.914062 154.5 250.078125 154.457031 250.308594 C 154.414062 250.535156 154.675781 250.734375 155.039062 250.761719 C 155.398438 250.78125 155.726562 250.617188 155.765625 250.390625 C 155.808594 250.164062 155.546875 249.960938 155.1875 249.9375 Z M 161.003906 273.539062 C 160.808594 273.542969 160.640625 273.601562 160.523438 273.691406 C 160.683594 273.914062 160.847656 274.140625 161.011719 274.363281 C 161.019531 274.363281 161.027344 274.367188 161.03125 274.367188 C 161.398438 274.359375 161.683594 274.167969 161.679688 273.941406 C 161.671875 273.714844 161.367188 273.53125 161.003906 273.539062 Z M 145.859375 219.121094 C 145.242188 218.074219 144.542969 217.0625 143.769531 216.082031 C 143.472656 215.707031 143.164062 215.335938 142.84375 214.96875 L 142.859375 215.039062 L 144.84375 223.796875 Z M 151.476562 242.945312 C 150.949219 246.210938 149.996094 249.433594 149.023438 252.660156 C 148.675781 251.816406 148.339844 250.980469 148.015625 250.140625 C 148.105469 249.824219 148.203125 249.507812 148.289062 249.1875 C 148.054688 249.046875 147.769531 248.871094 147.457031 248.679688 C 146.839844 247.03125 146.261719 245.394531 145.726562 243.78125 C 147.109375 244.523438 148.335938 245.199219 149.132812 245.644531 C 149.210938 245.257812 149.296875 244.871094 149.363281 244.484375 C 149.441406 244.035156 149.511719 243.585938 149.578125 243.136719 C 148.714844 242.679688 146.839844 241.699219 144.726562 240.65625 C 144.382812 239.53125 144.050781 238.417969 143.742188 237.324219 C 146.597656 238.675781 149.214844 240.066406 149.90625 240.441406 C 150.015625 239.292969 150.082031 238.144531 150.109375 237.003906 C 148.855469 236.480469 145.914062 235.285156 142.910156 234.261719 C 142.691406 233.425781 142.484375 232.601562 142.289062 231.796875 C 145.332031 232.628906 148.433594 233.617188 150.082031 234.160156 C 150.023438 232.863281 149.90625 231.574219 149.71875 230.300781 L 141.648438 229.070312 C 141.148438 226.855469 140.726562 224.769531 140.375 222.863281 L 143.828125 223.585938 L 140.371094 222.859375 C 140.300781 222.46875 140.230469 222.082031 140.164062 221.703125 L 141.738281 213.84375 L 141.75 213.785156 C 140.964844 212.984375 140.109375 212.214844 139.195312 211.472656 C 139.03125 211.339844 138.855469 211.214844 138.691406 211.085938 C 138.671875 210.863281 138.660156 210.746094 138.660156 210.746094 C 138.660156 210.746094 139.886719 211.183594 142.1875 211.894531 C 151.277344 220.132812 153.289062 231.652344 151.476562 242.945312 Z M 153.535156 261.730469 C 153.429688 261.726562 153.328125 261.738281 153.234375 261.761719 C 153.371094 262.019531 153.503906 262.28125 153.640625 262.539062 C 153.890625 262.492188 154.085938 262.355469 154.117188 262.183594 C 154.15625 261.957031 153.898438 261.757812 153.535156 261.730469 Z M 171.964844 245.773438 C 172.324219 245.796875 172.652344 245.632812 172.695312 245.402344 C 172.734375 245.179688 172.476562 244.972656 172.113281 244.949219 C 171.753906 244.929688 171.425781 245.09375 171.382812 245.320312 C 171.34375 245.550781 171.601562 245.75 171.964844 245.773438 Z M 156.277344 261.90625 C 156.316406 261.679688 156.058594 261.476562 155.695312 261.453125 C 155.335938 261.429688 155.007812 261.59375 154.96875 261.824219 C 154.925781 262.050781 155.1875 262.253906 155.546875 262.277344 C 155.90625 262.300781 156.234375 262.136719 156.277344 261.90625 Z M 167.160156 276.089844 C 167.523438 276.113281 167.851562 275.945312 167.890625 275.722656 C 167.933594 275.492188 167.671875 275.292969 167.308594 275.269531 C 166.949219 275.242188 166.621094 275.410156 166.582031 275.636719 C 166.539062 275.863281 166.800781 276.066406 167.160156 276.089844 Z M 162.203125 248.84375 C 161.839844 248.820312 161.515625 248.984375 161.472656 249.210938 C 161.433594 249.4375 161.695312 249.640625 162.054688 249.664062 C 162.414062 249.6875 162.742188 249.523438 162.785156 249.296875 C 162.824219 249.070312 162.566406 248.867188 162.203125 248.84375 Z M 160.476562 249.566406 C 160.4375 249.792969 160.109375 249.957031 159.75 249.933594 C 159.386719 249.910156 159.128906 249.710938 159.167969 249.480469 C 159.210938 249.253906 159.535156 249.089844 159.898438 249.109375 C 160.261719 249.132812 160.519531 249.335938 160.476562 249.566406" fill="#59726d"/></g></g></svg>