<svg width="90" height="90" viewBox="0 0 90 90" fill="none" xmlns="http://www.w3.org/2000/svg">
<path d="M82.6631 27.1366C82.3465 33.5345 75.6611 36.0413 73.153 34.3232C73.1372 34.3127 73.1221 34.2993 73.1063 34.2874C70.7312 41.4662 64.9259 47.6321 57.3541 50.681L58.713 59.7073C58.713 59.7073 64.4827 61.2532 64.5072 67.1048C64.5412 75.2264 56.3157 81.8105 45.7957 81.8105C35.2758 81.8105 25.7174 75.2264 25.8116 67.1048C25.8512 63.6721 32.918 59.4099 32.918 59.4099L34.2231 50.0328C27.3312 46.9073 22.0182 41.2778 19.8156 34.3331C17.2956 36.0301 10.6379 33.5211 10.3221 27.1366C10.1306 23.2857 13.2465 19.815 16.9465 20.6368C17.8322 20.8337 18.5983 21.5894 19.2204 22.6537C22.0419 10.4267 35.9073 1.36099 46.493 1.00176C56.6647 0.655892 70.88 10.2945 73.7577 22.6642C74.3813 21.5943 75.1498 20.8344 76.0386 20.6368C79.7387 19.815 82.8538 23.2857 82.6631 27.1366Z" fill="#8D4A37"/>
<path d="M75.8606 20.8737L75.84 20.8878C75.6778 21.001 75.5147 21.1121 75.3509 21.2203C75.267 21.2716 75.191 21.3328 75.1166 21.3968L74.8911 21.5838L74.6639 21.7679L74.4534 21.9704C74.3165 22.1082 74.1653 22.2319 74.0402 22.3795L73.6485 22.8084C73.5226 22.9546 73.4047 23.1071 73.2812 23.2555C73.1546 23.4017 73.0414 23.557 72.9267 23.7117C72.8135 23.8671 72.694 24.0189 72.5871 24.1785C72.1328 24.8013 71.7482 25.4642 71.3636 26.1272C71.2322 26.3528 71.1095 26.582 70.9876 26.8126L72.1178 35.732C72.3924 35.2371 72.675 34.7429 72.9955 34.2663L72.9979 34.2642C73.0462 34.1918 73.1514 34.1686 73.233 34.2115C73.2994 34.2473 73.3295 34.3169 73.3105 34.3802C73.1499 34.9362 72.9132 35.46 72.6528 35.9753C72.5183 36.2354 72.3766 36.492 72.2215 36.7429C71.9698 37.4642 68.9306 45.6793 59.8005 50.2775C56.3418 52.0195 51.457 52.65 46.4843 52.65C41.5124 52.65 36.6268 52.0195 33.1689 50.2775C23.6137 45.4655 20.7297 36.6909 20.7297 36.6909L20.7344 36.6529C20.5928 36.4308 20.4598 36.2044 20.3324 35.9753C20.1931 35.7215 20.0625 35.4642 19.9454 35.2013C19.8274 34.9377 19.7198 34.6726 19.6391 34.3928C19.6106 34.293 19.6779 34.1918 19.7902 34.1665C19.8828 34.1447 19.977 34.1826 20.0229 34.2522L20.0245 34.2544C20.334 34.7232 20.5999 35.2132 20.854 35.706L21.9778 26.8379C21.9438 26.7718 21.9113 26.705 21.8757 26.6389C21.7871 26.4702 21.6961 26.3022 21.5995 26.1363C21.2244 25.4706 20.8365 24.8098 20.3981 24.1785C19.9652 23.5451 19.4942 22.9314 18.9632 22.3662C18.8381 22.2172 18.6878 22.092 18.5516 21.9528L18.3419 21.7497L18.1147 21.5627L17.89 21.3736C17.8156 21.3089 17.7396 21.247 17.6549 21.195C17.4911 21.0853 17.328 20.9736 17.165 20.859L17.1539 20.8513C17.0803 20.7999 17.0669 20.705 17.1254 20.6397C17.1777 20.5806 17.2695 20.5658 17.3407 20.601C18.1068 20.9785 18.7685 21.4952 19.3589 22.0583C19.5014 22.2031 19.6478 22.3451 19.7871 22.4927C19.9216 22.6425 20.0483 22.7978 20.1796 22.9504C20.3142 23.1015 20.4329 23.2611 20.5532 23.42C20.6727 23.5788 20.7993 23.7349 20.9086 23.8994C21.3692 24.5461 21.7625 25.2259 22.1195 25.9184C22.2065 26.092 22.2928 26.267 22.3759 26.4421C22.8144 27.1366 23.6383 28.421 24.0388 28.906C26.2129 31.5359 28.8911 33.37 32.9719 32.7619C37.5457 32.08 42.1353 30.2537 46.4843 30.2537C50.8341 30.2537 55.4237 32.08 59.9967 32.7619C64.0775 33.37 66.7565 31.5359 68.9306 28.906C69.4055 28.331 70.4763 26.6312 70.7921 26.1243C70.8246 26.059 70.8554 25.9929 70.8879 25.9268C71.0557 25.5767 71.2504 25.2372 71.4467 24.8983L71.7514 24.3943L72.0767 23.8994C72.5302 23.2498 73.0193 22.6136 73.6081 22.0442C73.7458 21.8952 73.9128 21.7679 74.064 21.6295L74.2959 21.4256L74.5476 21.2379L74.8032 21.0558C74.8871 20.9933 74.9726 20.9342 75.0683 20.8843C75.2527 20.7774 75.4387 20.6734 75.6247 20.5722C75.7221 20.5194 75.8495 20.5469 75.9089 20.6333C75.9643 20.7135 75.9421 20.8168 75.8606 20.8737Z" fill="#F4DBB5"/>
<path d="M29.8804 46.3724C29.9161 46.2142 29.9279 46.0518 29.9058 45.888C29.8084 45.1611 29.0882 44.8722 28.459 44.532C28.3529 44.4743 28.254 44.4096 28.1519 44.3485C28.2548 44.4849 28.3585 44.6177 28.4606 44.7485C28.6553 44.8588 28.8492 44.9706 29.0415 45.0901C29.5306 45.3952 29.696 45.7692 29.6596 46.146C29.7332 46.224 29.8068 46.2993 29.8804 46.3724ZM45.8859 32.1383C46.0664 31.9865 46.2255 31.822 46.3743 31.6512C46.307 31.6533 46.2374 31.6526 46.1717 31.6554C46.1345 31.6575 46.0973 31.661 46.0609 31.6631C45.3699 32.3893 44.3474 32.9334 43.2575 32.8547C42.7241 32.816 42.3767 32.6248 42.1535 32.3485C42.0735 32.3696 41.9944 32.3914 41.916 32.4139C42.7439 33.4817 44.7914 33.0564 45.8859 32.1383ZM56.6987 50.1144C56.9212 50.042 57.1388 49.9667 57.3517 49.8887C57.4206 49.8374 57.4894 49.7868 57.5622 49.7397C57.6999 49.6483 57.8456 49.5674 57.9991 49.4985C58.0901 49.5056 58.1645 49.5182 58.231 49.5337C58.3845 49.4662 58.5357 49.3973 58.6829 49.3263C58.3576 48.8877 57.4752 49.4746 56.6987 50.1144ZM47.9991 51.0029C48.4265 51.1168 48.8578 51.223 49.2908 51.3129C49.5955 51.301 49.8978 51.2862 50.197 51.2673C49.6295 51.1801 49.0668 51.0528 48.5136 50.9122C48.5057 50.8919 48.4914 50.8729 48.4629 50.8588C47.9643 50.6149 47.4301 50.4532 46.8578 50.4209C46.47 50.3984 45.787 50.3695 45.5045 50.6732C45.2615 50.9347 45.3778 51.1323 45.62 51.2848C45.8353 51.2961 46.0498 51.3052 46.2651 51.3137C45.935 51.2265 45.2631 51.0451 46.0696 50.669C46.3078 50.5579 46.7842 50.6233 47.0525 50.6535C47.358 50.6873 47.6461 50.7639 47.9247 50.8673C47.9049 50.9193 47.9224 50.9825 47.9991 51.0029ZM59.1784 48.2051C59.472 48.2887 59.6414 48.4996 59.7221 48.7442C59.7941 48.6978 59.8653 48.6507 59.9382 48.6008C59.8432 48.3597 59.6556 48.1544 59.3295 48.0314C58.3814 47.6722 57.506 48.7942 56.9077 49.2623C56.2453 49.7811 55.5266 50.2662 54.747 50.643C55.0327 50.5797 55.3153 50.5137 55.5891 50.4412C55.7379 50.3541 55.8851 50.2648 56.0284 50.1713C56.8127 49.6602 57.4601 49.0282 58.2088 48.4848C58.4669 48.2971 58.8238 48.1045 59.1784 48.2051ZM62.8523 38.4807C62.7945 38.5257 62.7359 38.57 62.6782 38.6149L62.3275 38.8849C62.542 39.0606 62.7597 39.0754 62.9789 38.9299C63.4316 38.7134 63.7387 38.2958 64.1471 38.0223C64.7818 37.5984 65.5076 37.3721 66.2919 37.294C66.5357 37.2694 66.7921 37.2645 67.0303 37.2048C67.7822 37.0149 67.988 36.248 67.1657 35.9548C66.6267 35.7636 65.7039 35.7383 65.1871 35.9865C64.7106 36.2157 64.4091 36.6578 64.1067 37.0396C63.8693 37.339 63.6319 37.6385 63.3952 37.938C63.4277 37.9773 63.4332 38.0322 63.3802 38.0736C63.301 38.1348 63.2219 38.1953 63.1427 38.2564C63.0937 38.319 63.0438 38.3816 62.9947 38.4441C62.9568 38.4912 62.8998 38.4968 62.8523 38.4807ZM62.9536 38.1179C63.4459 37.4754 63.9176 36.7837 64.504 36.2142C64.9686 35.7636 65.5187 35.5858 66.2017 35.6132C66.7818 35.6364 67.5519 35.687 67.8883 36.1784C68.1423 36.551 67.9556 36.9693 67.5836 37.2125C66.99 37.6005 66.1202 37.4677 65.4435 37.6617C64.9528 37.8016 64.4906 38.0308 64.1012 38.3302C63.8107 38.5538 63.5733 38.8336 63.2551 39.0276C63.009 39.1773 62.2429 39.4754 62.0268 39.1084C61.9722 39.0163 62.0118 38.9221 62.0545 38.8385C62.1344 38.6845 62.3719 38.5664 62.5151 38.4554C62.6608 38.3429 62.8072 38.2304 62.9536 38.1179ZM63.0668 37.358C62.7716 37.7313 62.4756 38.1046 62.1803 38.4779C62.2144 38.5257 62.2152 38.5974 62.1455 38.6374C62.0814 38.6754 62.0189 38.7148 61.9595 38.7562C61.8155 38.9383 61.6706 39.1204 61.5266 39.3032C61.5037 39.3313 61.4736 39.3453 61.4435 39.3482C61.3612 39.6856 61.7435 39.9387 62.1598 39.8684C62.6109 39.7924 62.9789 39.5204 63.3042 39.2511C63.7387 38.8919 64.1297 38.5221 64.6964 38.3288C65.8859 37.9239 68.1257 38.371 68.656 37.0142C69.0145 36.0983 68.1281 35.2884 67.2195 35.029C66.2349 34.7471 65.2211 34.8554 64.5215 35.5675C63.9801 36.1179 63.5401 36.7612 63.0668 37.358ZM63.4657 36.4807C63.9477 35.874 64.4281 35.0965 65.2448 34.8034C66.4977 34.3549 68.4004 34.8919 68.8618 36.0765C69.3754 37.3939 67.9967 38.1137 66.7296 38.2564C65.7514 38.3661 64.8167 38.3513 64.0213 38.946C63.4712 39.3566 63.0272 39.8944 62.2967 40.0589C61.9081 40.1467 61.1918 40.1158 61.0913 39.6638C61.0058 39.2821 61.4126 38.8765 61.7751 38.6156C62.3386 37.9042 62.9021 37.1928 63.4657 36.4807ZM70.5998 36.4202C70.6085 36.4069 70.6188 36.3921 70.6283 36.3795L70.5824 36.0174C70.318 35.6722 69.9943 35.3566 69.6746 35.0944C68.7478 34.3338 67.5519 33.5928 66.2674 33.37C66.1392 33.4283 66.011 33.486 65.8796 33.5394C66.9053 33.647 67.8495 34.0948 68.6702 34.6325C69.396 35.1085 70.1574 35.7025 70.5998 36.4202ZM68.4637 39.3967C68.03 39.5169 67.5986 39.609 67.2274 39.6849C63.4 40.4701 60.1329 42.4771 57.1293 44.6465C55.5519 45.7861 54.0624 47.1625 52.3078 48.0855C50.2674 49.1583 48.0925 48.7674 45.9326 48.2423C41.973 47.2806 37.9089 46.9643 33.9058 47.9492C33.4942 48.0504 33.0882 48.1671 32.6861 48.2943C32.7787 48.3407 32.8745 48.3857 32.9695 48.4307C36.9418 47.2272 41.2552 47.3334 45.2829 48.3077C47.1301 48.7541 49.1206 49.3158 51.0312 48.823C52.8919 48.3435 54.3458 46.9952 55.7878 45.9154C58.9251 43.5661 62.2579 41.1872 66.2571 40.1327C66.8531 39.9752 67.5416 39.8705 68.2167 39.7243C68.2998 39.6146 68.3829 39.5049 68.4637 39.3967ZM37.7348 46.3379C45.3335 48.0293 53.9952 46.6226 59.0699 40.9664C60.2199 39.6856 60.9797 38.2712 61.673 36.7661C62.1028 35.8325 62.6631 34.8266 63.5029 34.1847C63.3533 34.2072 63.2037 34.2297 63.0533 34.2459C62.5017 34.7478 62.0869 35.3939 61.7561 36.0455C60.9504 37.6315 60.2919 39.1893 59.0929 40.591C57.8527 42.0413 56.2935 43.2736 54.5587 44.2402C50.9314 46.2613 46.6165 47.0276 42.3719 46.7766C38.2033 46.5305 33.6897 45.4388 30.3442 43.1351C28.7297 42.0237 27.5409 40.5981 26.7906 38.9137C26.1147 37.3946 25.7063 35.7812 24.8832 34.3141C24.573 33.7622 24.197 33.2491 23.7499 32.7809L23.6897 33.0487C25.8464 35.429 25.9137 38.8118 27.954 41.2842C30.2437 44.0589 34.0846 45.526 37.7348 46.3379ZM70.0822 32.0209C69.7355 31.8389 69.373 31.6765 69.0003 31.5359C68.8816 31.6498 68.7597 31.7608 68.6354 31.8677C69.1522 32.0448 69.6635 32.2733 70.1487 32.5482L70.0822 32.0209ZM29.9319 40.5573C32.3379 43.2701 36.4526 44.7984 40.1345 45.5689C47.5092 47.1119 56.3537 44.9467 59.544 38.3056C60.1542 37.0339 60.4574 35.5647 61.1166 34.2832C60.9552 34.2726 60.7953 34.2578 60.6346 34.2396C60.4249 34.6649 60.2468 35.1049 60.0862 35.5429C59.3849 37.4522 58.7114 39.2483 57.2536 40.8244C54.2057 44.1193 49.4356 45.7362 44.7067 45.661C39.7316 45.5822 33.48 43.8761 30.2904 40.267C28.6379 38.3977 28.789 36.2663 28.2667 34.1187C28.0554 34.0329 27.848 33.9401 27.6446 33.8417C27.8425 34.5454 27.9525 35.2673 28.0348 35.893C28.2627 37.6209 28.702 39.1696 29.9319 40.5573ZM66.9077 41.4149C67.0968 41.1766 67.2828 40.939 67.4664 40.7042C64.1408 41.8501 61.468 43.7214 58.9037 45.9956C57.3311 47.3896 55.6588 48.8174 53.4934 49.4318C51.4039 50.0244 49.1744 49.8043 47.0613 49.4374C42.7455 48.6887 38.7415 47.7165 34.4123 49.0149C34.3957 49.0205 34.3783 49.0268 34.3616 49.0318C34.5856 49.1196 34.8151 49.2054 35.0494 49.2891C35.2583 49.2335 35.4681 49.1787 35.6802 49.1309C40.0925 48.1362 44.1289 49.5435 48.4661 50.0841C50.322 50.3154 52.2365 50.3112 54.0134 49.7249C55.8978 49.1028 57.4182 47.9014 58.8301 46.6669C60.4574 45.2441 62.0244 43.81 63.9682 42.7176C64.9219 42.1812 65.9033 41.7713 66.9077 41.4149ZM43.6382 36.2346C46.034 36.6374 47.5876 34.9812 48.2643 33.1478C48.4344 32.6867 48.5674 32.2157 48.6877 31.7405C48.3608 31.7067 48.0363 31.6807 47.7134 31.6638C47.6556 31.8782 47.5963 32.0919 47.5314 32.305C47.1428 33.5949 46.4613 35.1534 44.7779 35.4093C43.2196 35.6462 41.7023 34.5981 40.9386 33.4839C40.793 33.2709 40.6663 33.0494 40.5547 32.8231C40.2587 32.9173 39.9667 33.0129 39.6786 33.1099C40.4297 34.6178 41.6976 35.9077 43.6382 36.2346ZM45.1372 40.4237C47.6635 40.2887 49.8179 39.0445 50.6465 36.8744C51.2267 35.3552 51.1443 33.7215 51.2615 32.1412C51.0454 32.0983 50.8301 32.0575 50.6157 32.0188C50.455 34.6937 50.5254 37.661 47.8044 39.0944C44.9734 40.5854 41.2544 39.6005 39.0684 37.6483C37.9232 36.6255 37.1151 35.441 36.4796 34.1784C36.2421 34.2515 36.0071 34.3204 35.7752 34.3851C36.364 35.5394 37.0866 36.6318 38.0268 37.5977C39.8147 39.4367 42.3664 40.5713 45.1372 40.4237ZM36.8626 42.3429C39.8527 43.8325 43.3929 44.2908 46.7565 43.7474C50.1574 43.1977 54.0577 41.4916 55.548 38.5608C56.3735 36.9383 56.3268 35.1295 56.5872 33.3974C56.1962 33.3018 55.8068 33.2062 55.4213 33.1099C55.2298 34.352 55.2085 35.6209 54.9037 36.8483C54.398 38.8849 52.8278 40.2909 50.8381 41.301C47.4388 43.0269 43.1998 43.3791 39.5029 42.2311C35.6889 41.0466 32.6204 38.2185 31.2694 34.8505C30.8151 34.8062 30.3664 34.7366 29.9287 34.6389C30.0577 35.029 30.2073 35.4171 30.3846 35.8016C31.6414 38.5285 33.9659 40.9003 36.8626 42.3429ZM89.9919 89.7725H0C0 89.7725 2.12742 81.8105 3.96517 78.446C9.35099 68.5867 21.7325 62.2134 32.918 59.4099L32.85 59.9041C30.0933 61.3164 28.4416 63.5561 28.402 66.9895C28.3078 75.1104 35.3137 80.0784 45.8337 80.0784C56.3537 80.0784 63.3604 75.1104 63.2662 66.9895C63.2258 63.5224 61.5416 61.2735 58.7367 59.8633L58.713 59.7073C70.0719 62.6535 82.3323 69.0014 85.8867 79.0836C86.8372 81.7796 89.9919 89.7725 89.9919 89.7725Z" fill="#0D3B40" fill-opacity="0.59"/>
<path d="M59.0462 27.5303C62.3814 27.5303 65.085 26.002 65.085 24.1173C65.085 22.2319 62.3814 20.7043 59.0462 20.7043C55.7118 20.7043 53.0082 22.2319 53.0082 24.1173C53.0082 26.002 55.7118 27.5303 59.0462 27.5303ZM34.5745 27.5303C37.9089 27.5303 40.6125 26.002 40.6125 24.1173C40.6125 22.2319 37.9089 20.7043 34.5745 20.7043C31.2394 20.7043 28.5366 22.2319 28.5366 24.1173C28.5366 26.002 31.2394 27.5303 34.5745 27.5303ZM86.5056 89.9503C86.3964 89.9771 86.284 89.9208 86.2515 89.8245L86.2507 89.8217C85.8471 88.5992 85.4039 87.3809 84.9401 86.1725C84.4763 84.9634 83.9935 83.7606 83.4735 82.5711C82.9504 81.3838 82.3988 80.2063 81.7925 79.0541C81.1823 77.9061 80.5191 76.7722 79.7173 75.7423C78.895 74.7209 77.9318 73.7824 76.899 72.9079C76.3821 72.4699 75.8455 72.0496 75.3002 71.6383C74.7518 71.2299 74.1914 70.8341 73.6247 70.4439C72.4882 69.6671 71.3161 68.9304 70.1162 68.2295C69.0446 67.5983 67.9532 66.9881 66.8412 66.4179C67.0494 67.7086 67.0549 69.0232 66.8737 70.3174C67.3192 70.5318 67.7522 70.7568 68.1827 70.9895C68.6758 71.2552 69.1602 71.5336 69.6358 71.8232C70.5879 72.4018 71.5226 73.0056 72.4075 73.6671C74.1803 74.9796 75.8416 76.4545 77.0913 78.2154C77.715 79.0991 78.1969 80.039 78.6362 80.9866C79.0723 81.9363 79.4609 82.8994 79.8218 83.8695C80.1843 84.8397 80.5135 85.8182 80.823 86.801C81.1324 87.7838 81.4245 88.7693 81.6857 89.7655C81.707 89.847 81.65 89.9279 81.5582 89.9468C81.4688 89.9651 81.3794 89.9173 81.3556 89.8386V89.8365C80.77 87.8744 80.1083 85.9251 79.3659 84.0066C78.9931 83.0477 78.5935 82.0973 78.1502 81.1666C77.7007 80.2393 77.2179 79.3226 76.6156 78.4833C76.0054 77.6453 75.2876 76.8657 74.5072 76.1381C73.7316 75.4063 72.9006 74.7174 72.0292 74.0692C70.3869 72.8481 68.633 71.7269 66.8088 70.7265C66.2959 73.6151 64.857 76.3504 62.7882 78.6105C60.6616 80.9261 57.8756 82.7462 54.785 83.8984C53.2401 84.4762 51.6271 84.9092 49.9793 85.1644C48.3695 85.4168 46.7384 85.5272 45.1095 85.5279C45.0763 85.5483 45.0391 85.5623 44.9964 85.5623C43.3272 85.5651 41.6557 85.4534 40.0071 85.1933C38.3585 84.9324 36.7431 84.4987 35.1982 83.918C32.1108 82.7539 29.3217 80.9346 27.2045 78.6105C25.1349 76.3307 23.6905 73.5807 23.1974 70.6752C21.347 71.6664 19.5758 72.7919 17.9264 74.0299C16.1963 75.3374 14.5793 76.7912 13.3732 78.4812C12.7764 79.3247 12.3079 80.2464 11.8726 81.1778C11.4468 82.1142 11.0447 83.0618 10.6791 84.0221C9.95013 85.9433 9.28373 87.8892 8.67352 89.8449L8.67273 89.847C8.64186 89.9447 8.52789 90.0024 8.41709 89.975C8.31024 89.9489 8.24613 89.8526 8.26988 89.7577C8.51918 88.7581 8.80015 87.7697 9.1104 86.7855C9.41827 85.8013 9.74831 84.8228 10.1179 83.8541C10.4859 82.8854 10.8714 81.9195 11.3257 80.9753C11.7792 80.0319 12.2746 79.097 12.9038 78.2175C13.5362 77.343 14.2794 76.543 15.0771 75.7979C15.8765 75.052 16.7313 74.3589 17.6217 73.7065C18.5097 73.0513 19.4412 72.446 20.3909 71.8675C21.2861 71.3269 22.1978 70.8151 23.146 70.3441C22.9647 69.0485 22.9679 67.7318 23.1784 66.4404C22.0609 67.0063 20.9616 67.6123 19.8844 68.2408C18.687 68.9452 17.5085 69.6728 16.3696 70.4468C15.8013 70.8341 15.2426 71.2327 14.6941 71.6411C14.1504 72.0538 13.6138 72.4742 13.0946 72.9093C12.0609 73.7824 11.0906 74.716 10.273 75.7409C9.87257 76.2548 9.50929 76.8003 9.16976 77.3564C8.82943 77.9132 8.50335 78.4783 8.20023 79.0541C7.58765 80.2035 7.036 81.3817 6.51602 82.5704C5.99446 83.7592 5.4998 84.9592 5.0368 86.1683C4.57143 87.3767 4.11555 88.5908 3.70479 89.8133L3.704 89.8147C3.67709 89.8948 3.5829 89.9398 3.49268 89.9159C3.40483 89.8927 3.35417 89.8112 3.37713 89.7331C4.11872 87.2502 4.99169 84.8045 5.99841 82.3947C6.51127 81.1933 7.05658 80.0017 7.666 78.832C8.27542 77.6622 8.94657 76.5142 9.78551 75.4365C10.6379 74.3722 11.6351 73.4183 12.6917 72.5304C13.7499 71.6425 14.8793 70.8299 16.0364 70.0559C18.3292 68.5325 20.7471 67.18 23.2639 65.9701C23.5599 64.529 24.1155 63.1308 24.9188 61.8549C24.9647 61.7825 25.0676 61.7558 25.1499 61.7965C25.2307 61.8366 25.26 61.9273 25.2164 61.9997C23.6786 64.5768 23.203 67.5863 23.6897 70.4468C24.1883 73.3128 25.6042 76.0348 27.6699 78.2752C28.7012 79.3972 29.8844 80.4094 31.1927 81.2762C32.4994 82.1465 33.9279 82.8678 35.4246 83.4492C36.922 84.0298 38.4938 84.4692 40.1044 84.7398C41.7118 85.0231 43.3517 85.1658 44.9964 85.1933H44.9995C45.0391 85.194 45.0731 85.2073 45.104 85.2242C46.7146 85.1904 48.3197 85.0477 49.8939 84.768C51.5053 84.4924 53.0787 84.0523 54.5769 83.4688C56.0743 82.8833 57.5005 82.1564 58.8064 81.2847C60.1131 80.4144 61.2987 79.4028 62.3228 78.2752C64.3766 76.0285 65.7941 73.3086 66.2793 70.4439C66.5183 69.0134 66.523 67.5505 66.2658 66.122C66.0181 64.6935 65.5076 63.2981 64.7423 62.0159V62.0152C64.6885 61.9252 64.7272 61.8134 64.8285 61.7656C64.9283 61.7185 65.0517 61.7515 65.1071 61.8387C65.9223 63.1378 66.4843 64.5628 66.7747 66.0299C69.2757 67.2151 71.6738 68.5571 73.9532 70.0587C75.1134 70.8299 76.2357 71.6496 77.2986 72.5325C78.356 73.4183 79.3612 74.3673 80.208 75.4358C81.043 76.5156 81.7094 77.665 82.3259 78.832C82.9417 79.9996 83.487 81.1919 83.9959 82.394C85.0137 84.8003 85.8898 87.2453 86.652 89.724C86.6813 89.8224 86.6164 89.9236 86.5056 89.9503Z" fill="white"/>
<path d="M70.8325 82.8544C70.8261 82.7645 70.7454 82.6899 70.6409 82.6843C70.5278 82.6773 70.4304 82.7539 70.4225 82.8544C70.3813 83.4309 70.3631 84.0073 70.3457 84.5845C70.3362 85.1609 70.3267 85.7374 70.3275 86.3138C70.3346 86.8903 70.3299 87.4667 70.3481 88.0432C70.3608 88.6196 70.379 89.1968 70.4138 89.7725C70.4201 89.8688 70.5064 89.9476 70.6164 89.9532C70.7343 89.9588 70.8356 89.878 70.842 89.7725C70.8768 89.1968 70.895 88.6196 70.9077 88.0432C70.9259 87.4667 70.9203 86.8903 70.9282 86.3138C70.929 85.7374 70.9195 85.1609 70.9092 84.5845C70.8926 84.0073 70.8744 83.4309 70.8325 82.8544ZM18.4733 82.8544C18.4669 82.7645 18.3854 82.6899 18.2817 82.6843C18.1678 82.6773 18.0704 82.7539 18.0633 82.8544C18.0213 83.4309 18.0031 84.0073 17.9865 84.5845C17.9762 85.1609 17.9675 85.7374 17.9675 86.3138C17.9754 86.8903 17.9699 87.4667 17.9881 88.0432C18.0015 88.6196 18.019 89.1968 18.0538 89.7725C18.0601 89.8688 18.1464 89.9476 18.2564 89.9532C18.3751 89.9588 18.4756 89.878 18.482 89.7725C18.5168 89.1968 18.535 88.6196 18.5484 88.0432C18.5659 87.4667 18.5611 86.8903 18.5682 86.3138C18.569 85.7374 18.5595 85.1609 18.55 84.5845C18.5326 84.0073 18.5152 83.4309 18.4733 82.8544ZM17.5647 28.3837C17.5409 28.2396 17.5196 28.0948 17.4919 27.9507C17.4713 27.8058 17.4143 27.6667 17.3763 27.5239C17.3059 27.2357 17.165 26.9658 17.0463 26.6895C16.7606 26.1538 16.3775 25.654 15.8963 25.2385C15.6612 25.0262 15.3913 24.8463 15.1143 24.6811C14.9695 24.6059 14.8278 24.5285 14.6751 24.4646C14.5239 24.395 14.3751 24.3415 14.1947 24.2909C14.0736 24.2565 13.9382 24.3001 13.8725 24.402C13.7958 24.5187 13.8409 24.6691 13.9731 24.7366L14.0031 24.7521C14.0522 24.7774 14.1203 24.8104 14.1788 24.8456C14.2406 24.8772 14.3015 24.9124 14.3617 24.9496C14.4835 25.0192 14.5967 25.1036 14.7123 25.1823C14.8215 25.2681 14.9394 25.344 15.0399 25.4389C15.146 25.5282 15.2528 25.6153 15.3462 25.7145C15.6921 26.0512 15.981 26.4287 16.2232 26.8308C16.0538 26.9011 15.8923 26.9855 15.7499 27.0916C15.5093 27.2624 15.2972 27.4649 15.1294 27.6899C14.96 27.9141 14.8207 28.1524 14.7226 28.402C14.6236 28.6543 14.5572 28.9046 14.5469 29.1844C14.5445 29.2589 14.5888 29.332 14.668 29.37C14.7788 29.4234 14.9181 29.3869 14.9782 29.2877L14.9901 29.2681C15.1104 29.0705 15.2354 28.8582 15.3652 28.6635C15.4974 28.4674 15.6335 28.2782 15.7831 28.1011C15.9287 27.9211 16.0918 27.7587 16.2604 27.6013C16.3387 27.5261 16.4226 27.4572 16.5089 27.389C16.5579 27.4972 16.6038 27.6062 16.6387 27.7194C16.6806 27.8452 16.7408 27.9654 16.7677 28.0962C16.7978 28.2248 16.8334 28.3535 16.8666 28.4828C16.9078 28.6108 16.9196 28.7436 16.9434 28.8758L17.0099 29.273C17.0407 29.5408 17.0494 29.8115 17.0835 30.0835L17.0858 30.1053C17.0977 30.196 17.1792 30.2719 17.2861 30.2825C17.4103 30.2944 17.5219 30.215 17.5362 30.1046C17.5718 29.822 17.5971 29.5366 17.6161 29.2491L17.6019 28.8167C17.5971 28.6719 17.594 28.5271 17.5647 28.3837ZM79.0928 24.461C79.0541 24.3556 78.9266 24.298 78.8079 24.3324C78.1502 24.5236 77.5978 24.8477 77.1111 25.2575C76.6251 25.6646 76.2357 26.1588 75.9389 26.6895C75.6643 27.2294 75.4704 27.7995 75.3904 28.3795C75.3358 28.6677 75.3445 28.9594 75.3255 29.2477C75.343 29.5359 75.3651 29.8227 75.3991 30.1074C75.4118 30.2199 75.5123 30.3127 75.6437 30.3253C75.7957 30.3401 75.9318 30.2424 75.9484 30.1074L75.9516 30.0814C75.9848 29.8101 75.9896 29.5415 76.0181 29.2751L76.079 28.8786C76.0988 28.7471 76.1099 28.6143 76.1486 28.487C76.1819 28.3584 76.2112 28.229 76.2405 28.1004C76.2642 27.9703 76.3243 27.8501 76.3623 27.7236C76.3964 27.5978 76.4454 27.4768 76.4993 27.3573C76.5855 27.429 76.6686 27.5015 76.7446 27.5809C76.9092 27.7468 77.0667 27.9148 77.2021 28.1011C77.3406 28.2846 77.4696 28.4765 77.5923 28.6747L77.9452 29.2772L77.9603 29.3018C78.0086 29.3847 78.1091 29.4396 78.2215 29.4354C78.375 29.4283 78.4945 29.3123 78.4874 29.1753C78.4716 28.8898 78.3987 28.6417 78.2903 28.3907C78.1827 28.1433 78.0355 27.9071 77.8558 27.6899C77.6777 27.4719 77.4601 27.2751 77.2147 27.112C77.0699 27.0108 76.9069 26.9299 76.7383 26.8638C76.9749 26.4442 77.2654 26.0491 77.6168 25.6955C77.8075 25.4979 78.0244 25.3215 78.2484 25.1514C78.4716 24.9855 78.7272 24.8308 78.9646 24.7106L78.99 24.6972C79.081 24.6516 79.1261 24.5531 79.0928 24.461ZM44.4043 25.8101C44.2904 25.7981 44.1875 25.8712 44.174 25.9725L44.1732 25.9802C44.1234 26.3633 44.0585 26.7577 43.9936 27.1436C43.9263 27.5317 43.8511 27.9183 43.7625 28.3029C43.6778 28.6874 43.5773 29.0691 43.4657 29.4487C43.3581 29.8297 43.2275 30.2044 43.1016 30.5847L43.1 30.5897C43.0771 30.6579 43.1103 30.7324 43.1839 30.7668C43.267 30.8055 43.3699 30.7774 43.4142 30.7035C43.6279 30.3443 43.8242 29.9731 43.9722 29.5872C44.1289 29.2041 44.2516 28.8104 44.3505 28.4125C44.4503 28.0146 44.5231 27.6125 44.565 27.2069C44.6101 26.7999 44.622 26.3964 44.588 25.9802C44.5816 25.893 44.5057 25.8199 44.4043 25.8101ZM59.0462 20.7043C57.9587 20.7043 56.9393 20.8674 56.0585 21.1514C55.8661 21.3721 55.6984 21.6175 55.5678 21.8895C54.7739 23.5493 55.5638 25.4994 57.3311 26.2445C59.0992 26.9897 61.1752 26.248 61.969 24.5883C62.5753 23.3215 62.2563 21.8874 61.286 20.9475C60.5935 20.7908 59.8384 20.7043 59.0462 20.7043ZM37.5623 21.1514C36.6814 20.8674 35.662 20.7043 34.5745 20.7043C33.7823 20.7043 33.0272 20.7908 32.3347 20.9475C31.3644 21.8874 31.0462 23.3215 31.6517 24.5883C32.4455 26.248 34.5223 26.9897 36.2896 26.2445C38.0577 25.4994 38.8468 23.5493 38.053 21.8895C37.9232 21.6175 37.7554 21.3721 37.5623 21.1514ZM73.2812 23.2554C73.1546 23.4016 73.0414 23.557 72.9267 23.7117C72.8135 23.867 72.694 24.0189 72.5871 24.1784C72.1328 24.8013 71.7482 25.4642 71.3635 26.1271C71.2322 26.3528 71.1095 26.5819 70.9876 26.8125L71.2203 28.6452C71.472 28.6579 71.7442 28.6389 72.0252 28.5876C72.2365 26.5032 72.8261 24.2965 73.7213 22.7289L73.6485 22.8083C73.5226 22.9545 73.4047 23.1071 73.2812 23.2554ZM75.9088 20.6333C75.9168 20.6438 75.9191 20.6558 75.9239 20.6677C75.9278 20.6663 75.9318 20.6656 75.935 20.6642C75.692 12.7718 70.6354 5.12757 64.0521 2.30298C60.0964 0.60527 53.0494 0 46.3743 0C39.6992 0 32.6513 0.60527 28.6964 2.30298C22.1282 5.12124 17.0787 12.7381 16.8144 20.6122C16.8587 20.6206 16.9022 20.627 16.9465 20.6368C16.9988 20.6488 17.051 20.6628 17.1033 20.6783C17.1088 20.6649 17.1143 20.6516 17.1254 20.6396C17.1776 20.5806 17.2695 20.5658 17.3407 20.601C18.1068 20.9785 18.7685 21.4952 19.3589 22.0582C19.5013 22.2031 19.6478 22.3451 19.7871 22.4927C19.9216 22.6424 20.0482 22.7978 20.1796 22.9503C20.3142 23.1015 20.4329 23.2611 20.5532 23.4199C20.6727 23.5788 20.7993 23.7349 20.9085 23.8994C21.3692 24.5461 21.7625 25.2259 22.1195 25.9183C22.2065 26.092 22.2928 26.267 22.3759 26.4421C22.5437 26.7078 22.7669 27.0586 23.0019 27.4185C24.121 15.3363 30.2809 10.6333 30.2809 10.6333H62.4668C62.4668 10.6333 68.7288 15.4122 69.7735 27.7138C70.1914 27.0818 70.6132 26.4118 70.7921 26.1243C70.8246 26.0589 70.8554 25.9928 70.8879 25.9268C71.0557 25.5767 71.2504 25.2371 71.4466 24.8983L71.7513 24.3943L72.0766 23.8994C72.5301 23.2498 73.0193 22.6136 73.6081 22.0442C73.7458 21.8952 73.9128 21.7679 74.064 21.6294L74.2959 21.4256L74.5475 21.2379L74.8032 21.0558C74.8871 20.9932 74.9726 20.9342 75.0683 20.8843C75.2527 20.7774 75.4387 20.6734 75.6247 20.5721C75.7221 20.5194 75.8495 20.5468 75.9088 20.6333ZM21.5995 26.1363C21.2243 25.4705 20.8365 24.8097 20.3981 24.1784C20.0372 23.6505 19.6478 23.138 19.2212 22.6544C20.1456 24.2347 20.7526 26.4962 20.9632 28.6241C21.2425 28.6565 21.5093 28.6565 21.7514 28.6255L21.9778 26.8378C21.9438 26.7718 21.9113 26.705 21.8757 26.6389C21.7871 26.4702 21.696 26.3022 21.5995 26.1363ZM60.8483 16.7381C59.3525 16.1806 55.5052 15.6751 54.0561 16.7437C52.6069 17.8129 53.4419 18.3788 55.2401 18.499C56.3046 18.5707 60.5753 18.6192 61.9389 18.4744C62.6093 18.4034 62.6829 17.4214 60.8483 16.7381ZM37.7459 18.499C36.6806 18.5707 32.4099 18.6192 31.0454 18.4744C30.3759 18.4034 30.3023 17.4214 32.1369 16.7381C33.6327 16.1806 37.4799 15.6751 38.9291 16.7437C40.3782 17.8129 39.544 18.3788 37.7459 18.499Z" fill="#1C212E"/>
</svg>
